amirilatin-bolditalic.sfdir
StartChar: exclam
Encoding: 33 33 1
Width: 514
Flags: W
LayerCount: 2
Fore
SplineSet
47 120 m 128,-1,1
 58 176 58 176 102.5 215 c 128,-1,2
 147 254 147 254 199 254 c 0,3,4
 250 254 250 254 279.5 214.5 c 128,-1,5
 309 175 309 175 299 120 c 0,6,7
 288 63 288 63 244.5 20.5 c 128,-1,8
 201 -22 201 -22 149 -22 c 0,9,10
 96 -22 96 -22 66 21 c 128,-1,0
 36 64 36 64 47 120 c 128,-1,1
411 1284 m 0,11,12
 457 1284 457 1284 484.5 1247 c 128,-1,13
 512 1210 512 1210 501 1148 c 0,14,15
 494 1109 494 1109 414.5 852 c 128,-1,16
 335 595 335 595 285 442 c 0,17,18
 275 413 275 413 254 396.5 c 128,-1,19
 233 380 233 380 211 380 c 0,20,21
 199 380 199 380 199 424 c 1,22,23
 204 544 204 544 226.5 812 c 128,-1,24
 249 1080 249 1080 263 1150 c 0,25,26
 275 1211 275 1211 317.5 1247.5 c 128,-1,27
 360 1284 360 1284 411 1284 c 0,11,12
EndSplineSet
EndChar
StartChar: numbersign
Encoding: 35 35 3
Width: 974
VWidth: 0
Flags: W
LayerCount: 2
Fore
SplineSet
760 756 m 1,0,1
 902 756 l 2,2,3
 916 756 916 756 916 746 c 0,4,5
 916 718 916 718 898.5 670 c 128,-1,6
 881 622 881 622 866 622 c 2,7,-1
 722 622 l 1,8,-1
 664 474 l 1,9,-1
 806 474 l 2,10,11
 820 474 820 474 820 462 c 0,12,13
 820 435 820 435 802.5 387.5 c 128,-1,14
 785 340 785 340 770 340 c 2,15,-1
 626 340 l 1,16,-1
 524 48 l 2,17,18
 519 32 519 32 448 32 c 0,19,20
 394 32 394 32 394 42 c 1,21,22
 396 46 396 46 396 48 c 2,23,-1
 500 340 l 1,24,-1
 346 340 l 1,25,-1
 244 48 l 2,26,27
 239 32 239 32 168 32 c 0,28,29
 114 32 114 32 114 42 c 1,30,31
 116 46 116 46 116 48 c 2,32,-1
 220 340 l 1,33,-1
 78 340 l 2,34,35
 64 340 64 340 64 352 c 0,36,37
 64 379 64 379 81.5 426.5 c 128,-1,38
 99 474 99 474 114 474 c 2,39,-1
 258 474 l 1,40,-1
 316 622 l 1,41,-1
 174 622 l 2,42,43
 160 622 160 622 160 634 c 0,44,45
 160 661 160 661 177.5 708.5 c 128,-1,46
 195 756 195 756 210 756 c 2,47,-1
 354 756 l 1,48,-1
 456 1048 l 2,49,50
 457 1051 457 1051 466 1054.5 c 128,-1,51
 475 1058 475 1058 495.5 1061 c 128,-1,52
 516 1064 516 1064 542 1064 c 0,53,54
 558 1064 558 1064 572 1060 c 128,-1,55
 586 1056 586 1056 586 1052 c 1,56,57
 584 1050 584 1050 584 1048 c 2,58,-1
 480 756 l 1,59,-1
 634 756 l 1,60,-1
 736 1048 l 2,61,62
 737 1051 737 1051 746 1054.5 c 128,-1,63
 755 1058 755 1058 775.5 1061 c 128,-1,64
 796 1064 796 1064 822 1064 c 0,65,66
 838 1064 838 1064 852 1060 c 128,-1,67
 866 1056 866 1056 866 1052 c 1,68,69
 864 1050 864 1050 864 1048 c 2,70,-1
 760 756 l 1,0,1
596 622 m 1,71,-1
 442 622 l 1,72,-1
 384 474 l 1,73,-1
 538 474 l 1,74,-1
 596 622 l 1,71,-1
EndSplineSet
EndChar
StartChar: dollar
Encoding: 36 36 4
Width: 984
UnlinkRmOvrlpSave: 1
Flags: W
LayerCount: 2
Fore
SplineSet
298 -130 m 9,0,-1
 762 1340 l 2,1,2
 764 1347 764 1347 751.5 1354 c 128,-1,3
 739 1361 739 1361 723 1365 c 128,-1,4
 707 1369 707 1369 699 1368 c 1,5,-1
 236 -100 l 2,6,7
 234 -107 234 -107 246 -114.5 c 128,-1,8
 258 -122 258 -122 273.5 -126 c 128,-1,9
 289 -130 289 -130 298 -130 c 9,0,-1
650 1286 m 0,10,11
 558 1286 558 1286 462.5 1241 c 128,-1,12
 367 1196 367 1196 294.5 1114.5 c 128,-1,13
 222 1033 222 1033 204 938 c 0,14,15
 197 903 197 903 195.5 871.5 c 128,-1,16
 194 840 194 840 201 811.5 c 128,-1,17
 208 783 208 783 213.5 762 c 128,-1,18
 219 741 219 741 237 715.5 c 128,-1,19
 255 690 255 690 264.5 676.5 c 128,-1,20
 274 663 274 663 300 638.5 c 128,-1,21
 326 614 326 614 336 605.5 c 128,-1,22
 346 597 346 597 376.642165232 571.179418795 c 0,23,24
 386 564 386 564 390 560 c 0,25,26
 397.66501147 553.34354267 397.66501147 553.34354267 415.110561313 538.64948702 c 0,27,28
 515.034979891 454.485045047 515.034979891 454.485045047 553.30802963 399.198481811 c 0,29,30
 608.144342326 319.98579063 608.144342326 319.98579063 594 246 c 0,31,32
 576 151 576 151 517.5 105.5 c 128,-1,33
 459 60 459 60 384 60 c 0,34,35
 327 60 327 60 280 93 c 128,-1,36
 233 126 233 126 206.5 175.5 c 128,-1,37
 180 225 180 225 166 276 c 128,-1,38
 152 327 152 327 154 368 c 0,39,40
 154 384 154 384 134 384 c 0,41,42
 126 384 126 384 104.5 374 c 128,-1,43
 83 364 83 364 76 356 c 1,44,45
 69 311 69 311 62 200 c 128,-1,46
 55 89 55 89 56 30 c 1,47,48
 252 -20 252 -20 386 -20 c 0,49,50
 485 -20 485 -20 582 24 c 128,-1,51
 679 68 679 68 752 151 c 128,-1,52
 825 234 825 234 844 336 c 0,53,54
 850 369 850 369 851.5 400.5 c 128,-1,55
 853 432 853 432 852 456 c 128,-1,56
 851 480 851 480 842 506 c 128,-1,57
 833 532 833 532 827.5 548.5 c 128,-1,58
 822 565 822 565 805 587.5 c 128,-1,59
 788 610 788 610 780.5 620.5 c 128,-1,60
 773 631 773 631 750.5 651.5 c 128,-1,61
 728 672 728 672 721 678 c 128,-1,62
 714 684 714 684 688.5 705 c 128,-1,63
 663 726 663 726 658 730 c 0,64,65
 620 761 620 761 597.5 781 c 128,-1,66
 575 801 575 801 541 836.5 c 128,-1,67
 507 872 507 872 489.5 901 c 128,-1,68
 472 930 472 930 461.5 967 c 128,-1,69
 451 1004 451 1004 458 1038 c 0,70,71
 469 1098 469 1098 501 1137.5 c 128,-1,72
 533 1177 533 1177 568 1191.5 c 128,-1,73
 603 1206 603 1206 642 1206 c 0,74,75
 691 1206 691 1206 729.5 1176.5 c 128,-1,76
 768 1147 768 1147 788.5 1101.5 c 128,-1,77
 809 1056 809 1056 818.5 1007.5 c 128,-1,78
 828 959 828 959 826 916 c 0,79,80
 826 902 826 902 876 902 c 0,81,82
 886 902 886 902 898 914 c 1,83,84
 918 1045 918 1045 940 1232 c 1,85,86
 914 1238 914 1238 867.5 1250 c 128,-1,87
 821 1262 821 1262 794 1268.5 c 128,-1,88
 767 1275 767 1275 727 1280.5 c 128,-1,89
 687 1286 687 1286 650 1286 c 0,10,11
EndSplineSet
EndChar
StartChar: percent
Encoding: 37 37 5
Width: 1400
Flags: W
LayerCount: 2
Fore
SplineSet
1058 542 m 0,0,1
 1007 542 1007 542 968.5 479 c 128,-1,2
 930 416 930 416 914.5 332 c 128,-1,3
 899 248 899 248 904 172 c 0,4,5
 905 151 905 151 910 127.5 c 128,-1,6
 915 104 915 104 930 81 c 128,-1,7
 945 58 945 58 966 58 c 0,8,9
 1017 58 1017 58 1055 121 c 128,-1,10
 1093 184 1093 184 1108 266 c 128,-1,11
 1123 348 1123 348 1118 420 c 0,12,13
 1115 463 1115 463 1100 502.5 c 128,-1,14
 1085 542 1085 542 1058 542 c 0,0,1
1069 600 m 0,15,16
 1286 600 1286 600 1300 400 c 0,17,18
 1305 331 1305 331 1274.5 257.5 c 128,-1,19
 1244 184 1244 184 1193.5 127.5 c 128,-1,20
 1143 71 1143 71 1076.5 34.5 c 128,-1,21
 1010 -2 1010 -2 946 -2 c 0,22,23
 853 -2 853 -2 791.5 49.5 c 128,-1,24
 730 101 730 101 723 194 c 0,25,26
 717 287 717 287 767 382 c 128,-1,27
 817 477 817 477 900.5 538.5 c 128,-1,28
 984 600 984 600 1069 600 c 0,15,16
478 1226 m 0,29,30
 427 1226 427 1226 388.5 1163 c 128,-1,31
 350 1100 350 1100 334.5 1016 c 128,-1,32
 319 932 319 932 324 856 c 0,33,34
 325 835 325 835 330 811.5 c 128,-1,35
 335 788 335 788 350 765 c 128,-1,36
 365 742 365 742 386 742 c 0,37,38
 437 742 437 742 475 805 c 128,-1,39
 513 868 513 868 528 950 c 128,-1,40
 543 1032 543 1032 538 1104 c 0,41,42
 535 1147 535 1147 520 1186.5 c 128,-1,43
 505 1226 505 1226 478 1226 c 0,29,30
489 1284 m 0,44,45
 706 1284 706 1284 720 1084 c 0,46,47
 726 992 726 992 674 897 c 128,-1,48
 622 802 622 802 537 742 c 128,-1,49
 452 682 452 682 367 682 c 0,50,51
 274 682 274 682 212 733.5 c 128,-1,52
 150 785 150 785 143 878 c 0,53,54
 137 971 137 971 187 1066 c 128,-1,55
 237 1161 237 1161 320.5 1222.5 c 128,-1,56
 404 1284 404 1284 489 1284 c 0,44,45
1181 1236 m 2,57,-1
 289 -28 l 1,58,59
 221 -12 221 -12 221 10 c 0,60,61
 221 14 221 14 225 22 c 1,62,-1
 1119 1286 l 1,63,64
 1183 1268 1183 1268 1183 1246 c 0,65,66
 1183 1238 1183 1238 1181 1236 c 2,57,-1
EndSplineSet
EndChar
StartChar: parenleft
Encoding: 40 40 8
Width: 554
VWidth: 0
Flags: W
LayerCount: 2
Fore
SplineSet
646 1496 m 1,0,1
 655 1493 655 1493 660.5 1484.5 c 128,-1,2
 666 1476 666 1476 664 1470 c 1,3,4
 615 1423 615 1423 556 1346 c 128,-1,5
 497 1269 497 1269 430.5 1152.5 c 128,-1,6
 364 1036 364 1036 313.5 909.5 c 128,-1,7
 263 783 263 783 235 628 c 128,-1,8
 207 473 207 473 220 328 c 0,9,10
 237 124 237 124 290.5 -4 c 128,-1,11
 344 -132 344 -132 438 -218 c 1,12,13
 438 -238 438 -238 426 -242 c 1,14,15
 372 -225 372 -225 316.5 -178 c 128,-1,16
 261 -131 261 -131 211 -58.5 c 128,-1,17
 161 14 161 14 125 122 c 128,-1,18
 89 230 89 230 78 354 c 0,19,20
 67 477 67 477 83 597 c 128,-1,21
 99 717 99 717 133.5 815 c 128,-1,22
 168 913 168 913 219.5 1007.5 c 128,-1,23
 271 1102 271 1102 324.5 1173.5 c 128,-1,24
 378 1245 378 1245 440 1310.5 c 128,-1,25
 502 1376 502 1376 550.5 1418.5 c 128,-1,26
 599 1461 599 1461 646 1496 c 1,0,1
EndSplineSet
EndChar
StartChar: parenright
Encoding: 41 41 9
Width: 550
VWidth: 0
Flags: W
LayerCount: 2
Fore
SplineSet
-58 -242 m 1,0,1
 -67 -239 -67 -239 -72.5 -230.5 c 128,-1,2
 -78 -222 -78 -222 -76 -216 c 1,3,4
 -27 -169 -27 -169 32 -92 c 128,-1,5
 91 -15 91 -15 157.5 101.5 c 128,-1,6
 224 218 224 218 274.5 344.5 c 128,-1,7
 325 471 325 471 353 626 c 128,-1,8
 381 781 381 781 368 926 c 0,9,10
 351 1130 351 1130 297.5 1258 c 128,-1,11
 244 1386 244 1386 150 1472 c 1,12,13
 150 1492 150 1492 162 1496 c 1,14,15
 216 1479 216 1479 271 1432 c 128,-1,16
 326 1385 326 1385 376 1312.5 c 128,-1,17
 426 1240 426 1240 461.5 1132 c 128,-1,18
 497 1024 497 1024 508 900 c 0,19,20
 519 777 519 777 503 657 c 128,-1,21
 487 537 487 537 453 439 c 128,-1,22
 419 341 419 341 367.5 246.5 c 128,-1,23
 316 152 316 152 263 80.5 c 128,-1,24
 210 9 210 9 148 -56.5 c 128,-1,25
 86 -122 86 -122 37.5 -164.5 c 128,-1,26
 -11 -207 -11 -207 -58 -242 c 1,0,1
EndSplineSet
EndChar
StartChar: asterisk
Encoding: 42 42 10
Width: 850
Flags: W
LayerCount: 2
Fore
SplineSet
540 1032 m 0,0,1
 556 1032 556 1032 583 1069 c 128,-1,2
 610 1106 610 1106 636 1151 c 128,-1,3
 662 1196 662 1196 701.5 1233 c 128,-1,4
 741 1270 741 1270 780 1270 c 0,5,6
 803 1270 803 1270 818.5 1254 c 128,-1,7
 834 1238 834 1238 834 1204 c 0,8,9
 834 1162 834 1162 793 1126.5 c 128,-1,10
 752 1091 752 1091 703 1071.5 c 128,-1,11
 654 1052 654 1052 613 1028.5 c 128,-1,12
 572 1005 572 1005 572 984 c 0,13,14
 572 967 572 967 610 957 c 128,-1,15
 648 947 648 947 693 941.5 c 128,-1,16
 738 936 738 936 776 912.5 c 128,-1,17
 814 889 814 889 814 848 c 0,18,19
 814 813 814 813 784.5 784.5 c 128,-1,20
 755 756 755 756 724 756 c 0,21,22
 700 756 700 756 676.5 773.5 c 128,-1,23
 653 791 653 791 634 815.5 c 128,-1,24
 615 840 615 840 598 864.5 c 128,-1,25
 581 889 581 889 564.5 906.5 c 128,-1,26
 548 924 548 924 534 924 c 0,27,28
 514 924 514 924 509 889 c 128,-1,29
 504 854 504 854 500 788.5 c 128,-1,30
 496 723 496 723 482 678 c 0,31,32
 470 637 470 637 445 619.5 c 128,-1,33
 420 602 420 602 394 602 c 0,34,35
 370 602 370 602 350 622.5 c 128,-1,36
 330 643 330 643 330 668 c 0,37,38
 330 702 330 702 364 756 c 128,-1,39
 398 810 398 810 432 858.5 c 128,-1,40
 466 907 466 907 466 928 c 0,41,42
 466 944 466 944 450 944 c 0,43,44
 433 944 433 944 342.5 900 c 128,-1,45
 252 856 252 856 210 856 c 0,46,47
 184 856 184 856 165 874 c 128,-1,48
 146 892 146 892 146 916 c 0,49,50
 146 929 146 929 150.5 943 c 128,-1,51
 155 957 155 957 167 975 c 128,-1,52
 179 993 179 993 205.5 1004.5 c 128,-1,53
 232 1016 232 1016 270 1016 c 0,54,55
 301 1016 301 1016 356.5 1008 c 128,-1,56
 412 1000 412 1000 430 1000 c 0,57,58
 451 1000 451 1000 461 1002.5 c 128,-1,59
 471 1005 471 1005 472.5 1008.5 c 128,-1,60
 474 1012 474 1012 474 1020 c 0,61,62
 474 1039 474 1039 447.5 1074.5 c 128,-1,63
 421 1110 421 1110 394.5 1152.5 c 128,-1,64
 368 1195 368 1195 368 1232 c 0,65,66
 368 1270 368 1270 393.5 1300 c 128,-1,67
 419 1330 419 1330 456 1330 c 0,68,69
 472 1330 472 1330 484 1325 c 128,-1,70
 496 1320 496 1320 503 1307.5 c 128,-1,71
 510 1295 510 1295 514 1284.5 c 128,-1,72
 518 1274 518 1274 519.5 1252.5 c 128,-1,73
 521 1231 521 1231 521.5 1218.5 c 128,-1,74
 522 1206 522 1206 522.021085613 1180.33039989 c 0,75,76
 522 1172 522 1172 522 1168 c 2,77,-1
 521 1150 l 2,78,79
 520 1132 520 1132 520 1114.5 c 128,-1,80
 520 1097 520 1097 521.5 1077 c 128,-1,81
 523 1057 523 1057 527.5 1044.5 c 128,-1,82
 532 1032 532 1032 540 1032 c 0,0,1
EndSplineSet
EndChar
StartChar: plus
Encoding: 43 43 11
Width: 934
Flags: W
LayerCount: 2
Back
SplineSet
422 38 m 25,0,-1
 612 1042 l 1,1,-1
 588.998046875 78.33203125 l 1,2,-1
 766 1008 l 1
EndSplineSet
Fore
SplineSet
56 426 m 2,0,1
 46 426 46 426 46 442 c 0,2,3
 46 489 46 489 76 528 c 1,4,-1
 410 528 l 1,5,-1
 476 870 l 2,6,7
 479 886 479 886 516.5 894 c 128,-1,8
 554 902 554 902 574 902 c 0,9,10
 585 902 585 902 589.5 897.5 c 128,-1,11
 594 893 594 893 592 886 c 2,12,-1
 522 528 l 1,13,-1
 858 528 l 2,14,15
 864 528 864 528 864 512 c 0,16,17
 864 454 864 454 838 426 c 1,18,-1
 506 426 l 1,19,-1
 436 78 l 2,20,21
 433 64 433 64 405 55 c 128,-1,22
 377 46 377 46 350 46 c 0,23,24
 336 46 336 46 328 51 c 128,-1,25
 320 56 320 56 322 62 c 2,26,-1
 394 426 l 1,27,-1
 56 426 l 2,0,1
EndSplineSet
EndChar
StartChar: hyphen
Encoding: 45 45 13
Width: 730
Flags: W
LayerCount: 2
Fore
SplineSet
144 534 m 2,0,-1
 598 558 l 2,1,2
 610 558 610 558 610 534 c 0,3,4
 610 511 610 511 591 460 c 128,-1,5
 572 409 572 409 558 408 c 2,6,-1
 106 386 l 2,7,8
 96 386 96 386 96 416 c 0,9,10
 96 437 96 437 112.5 485 c 128,-1,11
 129 533 129 533 144 534 c 2,0,-1
EndSplineSet
EndChar
StartChar: period
Encoding: 46 46 14
Width: 434
Flags: W
LayerCount: 2
Fore
SplineSet
15 120 m 128,-1,1
 26 176 26 176 70.5 215 c 128,-1,2
 115 254 115 254 167 254 c 0,3,4
 218 254 218 254 247.5 214.5 c 128,-1,5
 277 175 277 175 267 120 c 0,6,7
 256 63 256 63 212.5 20.5 c 128,-1,8
 169 -22 169 -22 117 -22 c 0,9,10
 64 -22 64 -22 34 21 c 128,-1,0
 4 64 4 64 15 120 c 128,-1,1
EndSplineSet
EndChar
StartChar: zero
Encoding: 48 48 16
Width: 1054
Flags: W
LayerCount: 2
Fore
SplineSet
338 304 m 0,0,1
 338 205 338 205 359.5 135.5 c 128,-1,2
 381 66 381 66 426 66 c 0,3,4
 462 66 462 66 503 111.5 c 128,-1,5
 544 157 544 157 581 240 c 128,-1,6
 618 323 618 323 648.5 428.5 c 128,-1,7
 679 534 679 534 697.5 664.5 c 128,-1,8
 716 795 716 795 716 924 c 0,9,10
 716 1208 716 1208 628 1208 c 0,11,12
 581 1208 581 1208 529.5 1134.5 c 128,-1,13
 478 1061 478 1061 435.5 941.5 c 128,-1,14
 393 822 393 822 365.5 651.5 c 128,-1,15
 338 481 338 481 338 304 c 0,0,1
90 590 m 1,16,17
 118 731 118 731 179.5 860.5 c 128,-1,18
 241 990 241 990 317.5 1082 c 128,-1,19
 394 1174 394 1174 482 1229 c 128,-1,20
 570 1284 570 1284 650 1284 c 0,21,22
 745 1284 745 1284 817.5 1235.5 c 128,-1,23
 890 1187 890 1187 927.5 1103 c 128,-1,24
 965 1019 965 1019 976 907 c 128,-1,25
 987 795 987 795 960 668 c 1,26,27
 927 499 927 499 840.5 343.5 c 128,-1,28
 754 188 754 188 633 89 c 128,-1,29
 512 -10 512 -10 392 -10 c 0,30,31
 280 -10 280 -10 198.5 70.5 c 128,-1,32
 117 151 117 151 88.5 284.5 c 128,-1,33
 60 418 60 418 90 590 c 1,16,17
EndSplineSet
Substitution2: "'pnum' Proportional Numbers lookup 12-1" zero.prop
Substitution2: "'onum' Oldstyle Figures lookup 3-1" zero.onum
EndChar
StartChar: three
Encoding: 51 51 19
Width: 1054
Flags: W
LayerCount: 2
Fore
SplineSet
699 1284 m 0,0,1
 730 1284 730 1284 761.5 1277 c 128,-1,2
 793 1270 793 1270 827.5 1252 c 128,-1,3
 862 1234 862 1234 888.5 1206.5 c 128,-1,4
 915 1179 915 1179 932 1133 c 128,-1,5
 949 1087 949 1087 949 1030 c 0,6,7
 949 970 949 970 922 917 c 128,-1,8
 895 864 895 864 853.5 830 c 128,-1,9
 812 796 812 796 774 775 c 128,-1,10
 736 754 736 754 703 744 c 1,11,12
 794 733 794 733 868.5 656 c 128,-1,13
 943 579 943 579 943 474 c 0,14,15
 943 364 943 364 889 269.5 c 128,-1,16
 835 175 835 175 752 115.5 c 128,-1,17
 669 56 669 56 574.5 23 c 128,-1,18
 480 -10 480 -10 393 -10 c 0,19,20
 221 -10 221 -10 123 58 c 1,21,22
 105 80 105 80 105 118 c 0,23,24
 105 190 105 190 142 221 c 128,-1,25
 179 252 179 252 223 252 c 0,26,27
 240 252 240 252 254.5 247 c 128,-1,28
 269 242 269 242 278 236 c 128,-1,29
 287 230 287 230 295.5 217.5 c 128,-1,30
 304 205 304 205 307.5 198 c 128,-1,31
 311 191 311 191 318 175.5 c 128,-1,32
 325 160 325 160 327 156 c 0,33,34
 346 119 346 119 381.5 92.5 c 128,-1,35
 417 66 417 66 453 66 c 0,36,37
 543 66 543 66 612 168 c 128,-1,38
 681 270 681 270 681 432 c 0,39,40
 681 537 681 537 638.5 589.5 c 128,-1,41
 596 642 596 642 497 642 c 0,42,43
 459 642 459 642 411 630 c 1,44,45
 403 643 403 643 403 666 c 0,46,47
 403 682 403 682 411 694 c 1,48,49
 462 700 462 700 514.5 719.5 c 128,-1,50
 567 739 567 739 614.5 769.5 c 128,-1,51
 662 800 662 800 691.5 847 c 128,-1,52
 721 894 721 894 721 948 c 0,53,54
 721 1034 721 1034 677.5 1080 c 128,-1,55
 634 1126 634 1126 567 1126 c 0,56,57
 536 1126 536 1126 503 1113 c 128,-1,58
 470 1100 470 1100 442.5 1079 c 128,-1,59
 415 1058 415 1058 394.5 1039 c 128,-1,60
 374 1020 374 1020 356.5 1001 c 128,-1,61
 339 982 339 982 337 980 c 1,62,63
 325 980 325 980 311 996 c 128,-1,64
 297 1012 297 1012 297 1026 c 1,65,66
 347 1113 347 1113 468 1198.5 c 128,-1,67
 589 1284 589 1284 699 1284 c 0,0,1
EndSplineSet
Substitution2: "'pnum' Proportional Numbers lookup 12-1" three.prop
Substitution2: "'onum' Oldstyle Figures lookup 3-1" three.onum
EndChar
StartChar: four
Encoding: 52 52 20
Width: 1054
Flags: W
LayerCount: 2
Fore
SplineSet
959 1284 m 0,0,1
 972 1284 972 1284 988 1264 c 128,-1,2
 1004 1244 1004 1244 1001 1232 c 2,3,-1
 857 484 l 1,4,-1
 963 484 l 2,5,6
 979 484 979 484 979 452 c 0,7,8
 979 427 979 427 968 396 c 128,-1,9
 957 365 957 365 945 350 c 1,10,-1
 829 350 l 1,11,-1
 763 4 l 1,12,13
 693 -10 693 -10 621 -10 c 0,14,15
 607 -10 607 -10 592.5 -9.5 c 128,-1,16
 578 -9 578 -9 563.5 -7 c 128,-1,17
 549 -5 549 -5 537.5 -3 c 128,-1,18
 526 -1 526 -1 519 2.5 c 128,-1,19
 512 6 512 6 513 10 c 2,20,-1
 579 350 l 1,21,-1
 69 350 l 1,22,23
 61 356 61 356 56 371 c 128,-1,24
 51 386 51 386 53 396 c 1,25,-1
 903 1252 l 2,26,27
 935 1284 935 1284 959 1284 c 0,0,1
689 930 m 25,28,-1
 249 484 l 1,29,-1
 603 484 l 1,30,-1
 689 930 l 25,28,-1
EndSplineSet
Substitution2: "'pnum' Proportional Numbers lookup 12-1" four.prop
Substitution2: "'onum' Oldstyle Figures lookup 3-1" four.onum
EndChar
StartChar: five
Encoding: 53 53 21
Width: 1054
Flags: W
LayerCount: 2
Fore
SplineSet
932 494 m 0,0,1
 932 384 932 384 879 286.5 c 128,-1,2
 826 189 826 189 744.5 126 c 128,-1,3
 663 63 663 63 568.5 26.5 c 128,-1,4
 474 -10 474 -10 388 -10 c 0,5,6
 216 -10 216 -10 118 58 c 1,7,8
 100 80 100 80 100 118 c 0,9,10
 100 190 100 190 137 221 c 128,-1,11
 174 252 174 252 218 252 c 0,12,13
 235 252 235 252 249.5 247 c 128,-1,14
 264 242 264 242 273 236 c 128,-1,15
 282 230 282 230 290.5 217.5 c 128,-1,16
 299 205 299 205 302.5 198 c 128,-1,17
 306 191 306 191 313 175.5 c 128,-1,18
 320 160 320 160 322 156 c 0,19,20
 341 119 341 119 376.5 92.5 c 128,-1,21
 412 66 412 66 448 66 c 0,22,23
 538 66 538 66 607 168 c 128,-1,24
 676 270 676 270 676 432 c 0,25,26
 676 543 676 543 621.5 602.5 c 128,-1,27
 567 662 567 662 464 662 c 0,28,29
 390 662 390 662 314 638 c 1,30,31
 311 640 311 640 290 666 c 1,32,33
 367 972 367 972 428 1270 c 1,34,35
 834 1270 834 1270 934 1292 c 1,36,37
 942 1286 942 1286 948 1276.5 c 128,-1,38
 954 1267 954 1267 954 1262 c 0,39,40
 954 1237 954 1237 919.5 1176 c 128,-1,41
 885 1115 885 1115 860 1080 c 1,42,43
 770 1060 770 1060 468 1060 c 1,44,45
 465 1050 465 1050 455 1001.5 c 128,-1,46
 445 953 445 953 431.5 887.5 c 128,-1,47
 418 822 418 822 410 784 c 1,48,49
 446 807 446 807 506.5 819.5 c 128,-1,50
 567 832 567 832 596 832 c 0,51,52
 655 832 655 832 713.5 810 c 128,-1,53
 772 788 772 788 821.5 747 c 128,-1,54
 871 706 871 706 901.5 640 c 128,-1,55
 932 574 932 574 932 494 c 0,0,1
EndSplineSet
Substitution2: "'pnum' Proportional Numbers lookup 12-1" five.prop
Substitution2: "'onum' Oldstyle Figures lookup 3-1" five.onum
EndChar
StartChar: six
Encoding: 54 54 22
Width: 1054
VWidth: 0
Flags: W
LayerCount: 2
Fore
SplineSet
654 748 m 0,0,1
 768 748 768 748 833 669 c 128,-1,2
 898 590 898 590 898 456 c 0,3,4
 898 329 898 329 832.5 220.5 c 128,-1,5
 767 112 767 112 657 50 c 128,-1,6
 547 -12 547 -12 422 -12 c 0,7,8
 361 -12 361 -12 301.5 14 c 128,-1,9
 242 40 242 40 193 86 c 128,-1,10
 144 132 144 132 114 203 c 128,-1,11
 84 274 84 274 84 356 c 0,12,13
 84 499 84 499 147 647.5 c 128,-1,14
 210 796 210 796 338 934 c 0,15,16
 453 1059 453 1059 618 1159 c 128,-1,17
 783 1259 783 1259 960 1284 c 1,18,19
 976 1273 976 1273 970 1236 c 1,20,21
 785 1158 785 1158 660 1040.5 c 128,-1,22
 535 923 535 923 456 752 c 0,23,24
 344 509 344 509 344 266 c 0,25,26
 344 166 344 166 370.5 112 c 128,-1,27
 397 58 397 58 438 58 c 0,28,29
 491 58 491 58 538 126 c 128,-1,30
 585 194 585 194 610.5 285.5 c 128,-1,31
 636 377 636 377 636 456 c 0,32,33
 636 644 636 644 532 644 c 0,34,35
 498 644 498 644 486 638 c 1,36,37
 476 645 476 645 476 668 c 0,38,39
 476 687 476 687 539 717.5 c 128,-1,40
 602 748 602 748 654 748 c 0,0,1
EndSplineSet
Substitution2: "'pnum' Proportional Numbers lookup 12-1" six.prop
Substitution2: "'onum' Oldstyle Figures lookup 3-1" six.onum
EndChar
StartChar: colon
Encoding: 58 58 26
Width: 484
Flags: W
LayerCount: 2
Fore
SplineSet
159 752 m 128,-1,1
 170 808 170 808 214.5 847 c 128,-1,2
 259 886 259 886 311 886 c 0,3,4
 362 886 362 886 391.5 846.5 c 128,-1,5
 421 807 421 807 411 752 c 0,6,7
 400 695 400 695 356.5 652.5 c 128,-1,8
 313 610 313 610 261 610 c 0,9,10
 208 610 208 610 178 653 c 128,-1,0
 148 696 148 696 159 752 c 128,-1,1
37 120 m 128,-1,12
 48 176 48 176 92.5 215 c 128,-1,13
 137 254 137 254 189 254 c 0,14,15
 240 254 240 254 269.5 214.5 c 128,-1,16
 299 175 299 175 289 120 c 0,17,18
 278 63 278 63 234.5 20.5 c 128,-1,19
 191 -22 191 -22 139 -22 c 0,20,21
 86 -22 86 -22 56 21 c 128,-1,11
 26 64 26 64 37 120 c 128,-1,12
EndSplineSet
EndChar
StartChar: less
Encoding: 60 60 28
Width: 930
Flags: W
LayerCount: 2
Fore
SplineSet
207 418 m 1,0,-1
 739 102 l 1,1,2
 739.5 101 l 2,3,4
 740 100 740 100 741 97.5 c 128,-1,5
 742 95 742 95 741 90 c 0,6,7
 739 75 739 75 718 22.5 c 128,-1,8
 697 -30 697 -30 689 -30 c 1,9,-1
 681 -26 l 1,10,-1
 57 354 l 1,11,12
 28 373 28 373 39 434 c 0,13,14
 44 464 44 464 81 482 c 2,15,-1
 849 856 l 2,16,17
 857 860 857 860 859 860 c 0,18,19
 867 860 867 860 867 772 c 0,20,21
 867 760 867 760 865 749 c 128,-1,22
 863 738 863 738 861 733 c 2,23,-1
 859 728 l 1,24,-1
 207 418 l 1,0,-1
EndSplineSet
EndChar
StartChar: equal
Encoding: 61 61 29
Width: 1084
Flags: W
LayerCount: 2
Fore
SplineSet
110 328 m 2,0,1
 100 328 100 328 100 344 c 0,2,3
 100 391 100 391 130 430 c 1,4,-1
 912 430 l 2,5,6
 918 430 918 430 918 414 c 0,7,8
 918 356 918 356 892 328 c 1,9,-1
 110 328 l 2,0,1
164 608 m 2,10,11
 154 608 154 608 154 624 c 0,12,13
 154 671 154 671 184 710 c 1,14,-1
 966 710 l 2,15,16
 972 710 972 710 972 694 c 0,17,18
 972 636 972 636 946 608 c 1,19,-1
 164 608 l 2,10,11
EndSplineSet
EndChar
StartChar: greater
Encoding: 62 62 30
Width: 934
Flags: W
LayerCount: 2
Fore
SplineSet
682 418 m 1,0,-1
 150 728 l 2,1,2
 149 729 149 729 148.5 730 c 128,-1,3
 148 731 148 731 147 736 c 128,-1,4
 146 741 146 741 148 746 c 0,5,6
 191 860 191 860 202 860 c 1,7,-1
 210 856 l 1,8,-1
 832 482 l 2,9,10
 861 464 861 464 856 434 c 0,11,12
 845 374 845 374 806 354 c 2,13,-1
 36 -26 l 2,14,15
 28 -30 28 -30 26 -30 c 0,16,17
 18 -30 18 -30 16.5 25 c 128,-1,18
 15 80 15 80 18 90 c 0,19,20
 19 94 19 94 21 97 c 128,-1,21
 23 100 23 100 24.5 101 c 2,22,-1
 26 102 l 1,23,-1
 682 418 l 1,0,-1
EndSplineSet
EndChar
StartChar: A
Encoding: 65 65 33
Width: 1240
Flags: W
LayerCount: 2
Fore
SplineSet
123 268 m 2,0,-1
 711 1248 l 2,1,2
 725 1270 725 1270 752 1297 c 128,-1,3
 779 1324 779 1324 793 1324 c 0,4,5
 805 1324 805 1324 816 1319.5 c 128,-1,6
 827 1315 827 1315 829 1310 c 1,7,-1
 1015 296 l 2,8,9
 1022 262 1022 262 1029 216 c 128,-1,10
 1036 170 1036 170 1039 152 c 0,11,12
 1045 124 1045 124 1063.5 104.5 c 128,-1,13
 1082 85 1082 85 1106 78 c 128,-1,14
 1130 71 1130 71 1144 68.5 c 128,-1,15
 1158 66 1158 66 1169 66 c 1,16,17
 1173 53 1173 53 1168 25.5 c 128,-1,18
 1163 -2 1163 -2 1157 -8 c 1,19,20
 1140 -7 1140 -7 1049.5 0.5 c 128,-1,21
 959 8 959 8 911 8 c 0,22,23
 873 8 873 8 820 5 c 128,-1,24
 767 2 767 2 706 -2.5 c 128,-1,25
 645 -7 645 -7 627 -8 c 1,26,27
 621 -1 621 -1 628 32.5 c 128,-1,28
 635 66 635 66 643 66 c 0,29,30
 670 66 670 66 704 75.5 c 128,-1,31
 738 85 738 85 759 102 c 1,32,33
 780 117 780 117 783 136 c 0,34,35
 785 144 785 144 771.5 220 c 128,-1,36
 758 296 758 296 743.5 368 c 2,37,-1
 729 440 l 1,38,39
 725 448 725 448 719 448 c 0,40,41
 684 450 684 450 541 450 c 0,42,43
 413 450 413 450 347 448 c 0,44,45
 336 448 336 448 331 438 c 0,46,47
 263 326 263 326 231 270 c 0,48,49
 168 158 168 158 165 134 c 0,50,51
 162 116 162 116 179 101.5 c 128,-1,52
 196 87 196 87 221.5 80 c 128,-1,53
 247 73 247 73 267 69.5 c 128,-1,54
 287 66 287 66 295 66 c 1,55,56
 301 56 301 56 294.5 27.5 c 128,-1,57
 288 -1 288 -1 281 -8 c 1,58,59
 153 8 153 8 83 8 c 0,60,61
 11 8 11 8 -121 -8 c 1,62,63
 -126 -3 -126 -3 -123 22.5 c 128,-1,64
 -120 48 -120 48 -111 64 c 1,65,66
 -90 64 -90 64 -37.5 85 c 128,-1,67
 15 106 15 106 31 128 c 0,68,69
 68 177 68 177 123 268 c 2,0,-1
631 952 m 1,70,-1
 395 560 l 1,71,72
 395 552 395 552 399 552 c 0,73,74
 453 546 453 546 551 546 c 0,75,76
 643 546 643 546 701 550 c 0,77,78
 703 550 703 550 705 552.5 c 128,-1,79
 707 555 707 555 708 557.5 c 2,80,-1
 709 560 l 1,81,-1
 631 952 l 1,70,-1
EndSplineSet
EndChar
StartChar: C
Encoding: 67 67 35
Width: 1292
Flags: W
LayerCount: 2
Fore
SplineSet
886 1248 m 0,0,1
 788 1248 788 1248 698 1195 c 128,-1,2
 608 1142 608 1142 540.5 1050 c 128,-1,3
 473 958 473 958 432.5 824 c 128,-1,4
 392 690 392 690 392 536 c 0,5,6
 392 477 392 477 401.5 417 c 128,-1,7
 411 357 411 357 436 294 c 128,-1,8
 461 231 461 231 497.5 183 c 128,-1,9
 534 135 534 135 594.5 104.5 c 128,-1,10
 655 74 655 74 730 74 c 0,11,12
 867 74 867 74 970 160 c 0,13,14
 1011 194 1011 194 1054.5 254 c 128,-1,15
 1098 314 1098 314 1120.5 354 c 128,-1,16
 1143 394 1143 394 1148 408 c 1,17,18
 1189 408 1189 408 1210 384 c 1,19,20
 1205 359 1205 359 1148.5 224.5 c 128,-1,21
 1092 90 1092 90 1074 80 c 0,22,23
 987 32 987 32 893 9 c 128,-1,24
 799 -14 799 -14 674 -14 c 0,25,26
 561 -14 561 -14 465.5 19 c 128,-1,27
 370 52 370 52 304.5 108 c 128,-1,28
 239 164 239 164 193 237 c 128,-1,29
 147 310 147 310 125.5 390 c 128,-1,30
 104 470 104 470 104 552 c 0,31,32
 104 697 104 697 151 824.5 c 128,-1,33
 198 952 198 952 277 1043.5 c 128,-1,34
 356 1135 356 1135 457.5 1202 c 128,-1,35
 559 1269 559 1269 669 1301.5 c 128,-1,36
 779 1334 779 1334 886 1334 c 0,37,38
 1020 1334 1020 1334 1276 1276 c 1,39,40
 1276 1260 1276 1260 1264.5 1133 c 128,-1,41
 1253 1006 1253 1006 1250 988 c 0,42,43
 1248 978 1248 978 1235 969 c 128,-1,44
 1222 960 1222 960 1206 960 c 0,45,46
 1188 960 1188 960 1182 968 c 1,47,48
 1181 995 1181 995 1173 1027 c 128,-1,49
 1165 1059 1165 1059 1143.5 1099.5 c 128,-1,50
 1122 1140 1122 1140 1091 1172 c 128,-1,51
 1060 1204 1060 1204 1006.5 1226 c 128,-1,52
 953 1248 953 1248 886 1248 c 0,0,1
EndSplineSet
EndChar
StartChar: D
Encoding: 68 68 36
Width: 1440
Flags: W
LayerCount: 2
Fore
SplineSet
592 1094 m 2,0,-1
 434 282 l 1,1,2
 412 152 412 152 418 124 c 0,3,4
 422 104 422 104 455 91 c 128,-1,5
 488 78 488 78 526 78 c 0,6,7
 756 78 756 78 887.5 208 c 128,-1,8
 1019 338 1019 338 1076 628 c 0,9,10
 1132 916 1132 916 1033 1078 c 128,-1,11
 934 1240 934 1240 722 1240 c 0,12,13
 639 1240 639 1240 624 1216 c 0,14,15
 620 1209 620 1209 616.5 1200.5 c 128,-1,16
 613 1192 613 1192 610 1178.5 c 128,-1,17
 607 1165 607 1165 605 1156.5 c 128,-1,18
 603 1148 603 1148 598.5 1126 c 128,-1,19
 594 1104 594 1104 592 1094 c 2,0,-1
792 1320 m 1,20,21
 1005 1320 1005 1320 1150.5 1234.5 c 128,-1,22
 1296 1149 1296 1149 1354 993 c 128,-1,23
 1412 837 1412 837 1372 634 c 0,24,25
 1346 497 1346 497 1287.5 388 c 128,-1,26
 1229 279 1229 279 1149.5 206 c 128,-1,27
 1070 133 1070 133 967.5 85 c 128,-1,28
 865 37 865 37 754.5 15.5 c 128,-1,29
 644 -6 644 -6 520 -6 c 2,30,-1
 -16 -6 l 1,31,32
 -21 3 -21 3 -16 30.5 c 128,-1,33
 -11 58 -11 58 -2 68 c 1,34,35
 111 77 111 77 124 102 c 0,36,37
 147 143 147 143 174 290 c 1,38,-1
 318 1026 l 2,39,40
 320 1036 320 1036 324.5 1060.5 c 128,-1,41
 329 1085 329 1085 331 1094.5 c 128,-1,42
 333 1104 333 1104 336 1123 c 128,-1,43
 339 1142 339 1142 340 1151 c 128,-1,44
 341 1160 341 1160 342 1173.5 c 128,-1,45
 343 1187 343 1187 342.5 1196.5 c 128,-1,46
 342 1206 342 1206 340 1214 c 0,47,48
 336 1237 336 1237 226 1246 c 1,49,50
 222 1256 222 1256 228 1283.5 c 128,-1,51
 234 1311 234 1311 242 1320 c 1,52,53
 324 1314 324 1314 506 1314 c 0,54,55
 551 1314 551 1314 653.5 1316.5 c 128,-1,56
 756 1319 756 1319 792 1320 c 1,20,21
EndSplineSet
EndChar
StartChar: F
Encoding: 70 70 38
Width: 1050
Flags: W
LayerCount: 2
Back
SplineSet
235.919921875 6 m 0,0,1
 183.978401407 6 183.978401407 6 144.884114408 4.00683760684 c 0,2,3
 105.789827408 2.01367521368 105.789827408 2.01367521368 57.6223960091 -2.00683760684 c 0,4,5
 9.45496461004 -6.02735042735 9.45496461004 -6.02735042735 -24.080078125 -8 c 1,2,3
 -28.080078125 -4 -28.080078125 -4 -28.080078125 10 c 0,4,5
 -28.080078125 21.094017094 -28.080078125 21.094017094 -24.8856336806 33.2735042735 c 0,6,7
 -21.6911892361 45.452991453 -21.6911892361 45.452991453 -17.9411892361 52.7264957265 c 0,8,9
 -14.1911892361 60 -14.1911892361 60 -12.080078125 60 c 0,6,7
 8.70370565878 60 8.70370565878 60 52.5947148236 76.239673391 c 0,8,9
 96.4857239884 92.4793467819 96.4857239884 92.4793467819 105.919921875 110 c 0,8,9
 130.730140853 152.854014599 130.730140853 152.854014599 155.919921875 286 c 2,10,-1
 301.919921875 1042 l 2,11,12
 302.794921875 1047.25 302.794921875 1047.25 307.619276086 1073.92526982 c 0,13,14
 312.443630297 1100.60053963 312.443630297 1100.60053963 315.158067664 1117.41848018 c 0,15,16
 317.872505031 1134.23642074 317.872505031 1134.23642074 320.244276086 1158.11276982 c 0,17,18
 322.61604714 1181.9891189 322.61604714 1181.9891189 321.919921875 1198 c 1,13,14
 319.160700564 1214.55532787 319.160700564 1214.55532787 279.067485132 1235.27766393 c 0,15,16
 238.974269701 1256 238.974269701 1256 219.919921875 1256 c 0,15,16
 215.919921875 1256 215.919921875 1256 215.919921875 1270 c 0,17,18
 215.919921875 1310 215.919921875 1310 229.919921875 1324 c 1,19,20
 390.119921875 1318 390.119921875 1318 491.919921875 1318 c 0,21,22
 598.545108164 1318.91132638 598.545108164 1318.91132638 791.426959464 1323.45566319 c 0,23,24
 984.308810764 1328 984.308810764 1328 1091.91992188 1328 c 1,23,24
 1087.91992188 1268 1087.91992188 1268 1087.91992188 1146 c 2,25,26
 1087.91992188 1032 l 1,27,28
 1077.91992188 1022 1077.91992188 1022 1043.91992188 1022 c 0,29,30
 1022.71992187 1022 1022.71992187 1022 1019.91992188 1036 c 1,31,32
 998.697699653 1111.79365079 998.697699653 1111.79365079 933.693139122 1165.8968254 c 0,33,34
 868.688578591 1220 868.688578591 1220 795.919921875 1220 c 2,33,-1
 725.919921875 1220 l 2,34,35
 661.419921875 1220 661.419921875 1220 633.44933364 1215.33823529 c 0,36,37
 605.478745404 1210.67647059 605.478745404 1210.67647059 599.919921875 1194 c 0,36,37
 575.543451287 1127.83529412 575.543451287 1127.83529412 559.919921875 1038 c 1,38,-1
 499.919921875 730 l 2,39,40
 498.554027835 723.170529801 498.554027835 723.170529801 520.344117712 720.585264901 c 0,41,42
 542.134207589 718 542.134207589 718 577.919921875 718 c 2,41,-1
 735.919921875 718 l 2,42,43
 752.873729615 718 752.873729615 718 761.701802052 718.472640382 c 0,44,45
 770.529874488 718.945280765 770.529874488 718.945280765 781.138041698 724.444026284 c 0,46,47
 791.746208909 729.942771804 791.746208909 729.942771804 796.886987237 735.231899642 c 0,48,49
 802.027765565 740.521027479 802.027765565 740.521027479 812.101004661 757.925507766 c 0,50,51
 822.174243758 775.329988053 822.174243758 775.329988053 829.405505755 791.324492234 c 0,52,53
 836.636767753 807.318996416 836.636767753 807.318996416 851.919921875 842 c 0,44,45
 857.519921875 856 857.519921875 856 883.919921875 856 c 0,46,47
 915.253255208 856 915.253255208 856 921.919921875 846 c 1,48,-1
 849.919921875 468 l 1,49,50
 847.031032986 465.111111111 847.031032986 465.111111111 832.975477431 462.555555556 c 0,51,52
 818.919921875 460 818.919921875 460 807.919921875 460 c 0,51,52
 785.119921875 460 785.119921875 460 781.919921875 476 c 1,53,54
 780.200497415 525.863309353 780.200497415 525.863309353 776.284347576 548.707516745 c 0,55,56
 772.368197737 571.551724138 772.368197737 571.551724138 759.919921875 584 c 0,55,56
 745.541873095 598.37804878 745.541873095 598.37804878 712.552326056 603.18902439 c 0,57,58
 679.562779018 608 679.562779018 608 609.919921875 608 c 0,57,58
 475.919921875 608 475.919921875 608 471.919921875 590 c 2,59,-1
 413.919921875 282 l 1,60,61
 395.919921875 192 395.919921875 192 395.919921875 148 c 0,62,63
 395.919921875 123.840780488 395.919921875 123.840780488 412.418745404 105.988097561 c 0,64,65
 428.917568934 88.1354146341 428.917568934 88.1354146341 449.741098346 79.707902439 c 0,66,67
 470.564627757 71.2803902439 470.564627757 71.2803902439 498.018745404 66.372097561 c 0,68,69
 525.472863051 61.463804878 525.472863051 61.463804878 538.701098346 60.731902439 c 0,70,71
 551.92933364 60 551.92933364 60 561.919921875 60 c 0,64,65
 569.253255208 60 569.253255208 60 563.919921875 28 c 0,66,67
 557.919921875 -2 557.919921875 -2 553.919921875 -8 c 1,68,69
 294.919921875 6 294.919921875 6 235.919921875 6 c 0,0,1
EndSplineSet
Fore
SplineSet
506 1314 m 0,0,1
 551 1314 551 1314 815.5 1320.5 c 128,-1,2
 1080 1327 1080 1327 1114 1328 c 1,3,4
 1110 1261 1110 1261 1110 1032 c 1,5,6
 1100 1022 1100 1022 1064 1022 c 0,7,8
 1041 1022 1041 1022 1038 1038 c 0,9,10
 1030 1085 1030 1085 1020.5 1117 c 128,-1,11
 1011 1149 1011 1149 993.5 1179.5 c 128,-1,12
 976 1210 976 1210 946.5 1225 c 128,-1,13
 917 1240 917 1240 876 1240 c 2,14,-1
 722 1240 l 2,15,16
 639 1240 639 1240 624 1216 c 0,17,18
 620 1209 620 1209 616.5 1200.5 c 128,-1,19
 613 1192 613 1192 610 1178.5 c 128,-1,20
 607 1165 607 1165 605 1156.5 c 128,-1,21
 603 1148 603 1148 598.5 1126 c 128,-1,22
 594 1104 594 1104 592 1094 c 2,23,-1
 520 728 l 2,24,25
 519 722 519 722 529.5 717 c 128,-1,26
 540 712 540 712 558 709 c 128,-1,27
 576 706 576 706 596 706 c 2,28,-1
 694 706 l 2,29,30
 776 706 776 706 811.5 732 c 128,-1,31
 847 758 847 758 886 846 c 0,32,33
 892 862 892 862 910 862 c 0,34,35
 937 862 937 862 944 852 c 1,36,-1
 870 468 l 1,37,38
 862 460 862 460 834 460 c 0,39,40
 812 460 812 460 812 476 c 0,41,42
 808 579 808 579 770 598 c 0,43,44
 742 612 742 612 632 612 c 0,45,46
 497 612 497 612 492 584 c 2,47,-1
 436 290 l 2,48,49
 434 280 434 280 429.5 255.5 c 128,-1,50
 425 231 425 231 423 221.5 c 128,-1,51
 421 212 421 212 418 193 c 128,-1,52
 415 174 415 174 414 165 c 128,-1,53
 413 156 413 156 412 142.5 c 128,-1,54
 411 129 411 129 411.5 119.5 c 128,-1,55
 412 110 412 110 414 102 c 0,56,57
 418 76 418 76 542 66 c 1,58,59
 546 56 546 56 541 28.5 c 128,-1,60
 536 1 536 1 528 -8 c 1,61,62
 406 6 406 6 248 6 c 0,63,64
 112 6 112 6 -18 -8 c 1,65,66
 -23 1 -23 1 -17 28.5 c 128,-1,67
 -11 56 -11 56 -2 66 c 1,68,69
 110 75 110 75 124 102 c 0,70,71
 147 143 147 143 174 290 c 1,72,-1
 318 1026 l 2,73,74
 320 1036 320 1036 324.5 1060.5 c 128,-1,75
 329 1085 329 1085 331 1094.5 c 128,-1,76
 333 1104 333 1104 336 1123 c 128,-1,77
 339 1142 339 1142 340 1151 c 128,-1,78
 341 1160 341 1160 342 1173.5 c 128,-1,79
 343 1187 343 1187 342.5 1196.5 c 128,-1,80
 342 1206 342 1206 340 1214 c 0,81,82
 336 1237 336 1237 226 1246 c 1,83,84
 222 1256 222 1256 228 1283.5 c 128,-1,85
 234 1311 234 1311 242 1320 c 1,86,87
 324 1314 324 1314 506 1314 c 0,0,1
EndSplineSet
EndChar
StartChar: G
Encoding: 71 71 39
Width: 1356
Flags: W
LayerCount: 2
Fore
SplineSet
886 1334 m 0,0,1
 1020 1334 1020 1334 1276 1276 c 1,2,3
 1276 1260 1276 1260 1264.5 1133 c 128,-1,4
 1253 1006 1253 1006 1250 988 c 0,5,6
 1248 978 1248 978 1235 969 c 128,-1,7
 1222 960 1222 960 1206 960 c 0,8,9
 1188 960 1188 960 1182 968 c 1,10,11
 1181 995 1181 995 1172.5 1027.5 c 128,-1,12
 1164 1060 1164 1060 1143 1100 c 128,-1,13
 1122 1140 1122 1140 1090.5 1172 c 128,-1,14
 1059 1204 1059 1204 1005.5 1226 c 128,-1,15
 952 1248 952 1248 886 1248 c 0,16,17
 788 1248 788 1248 698 1195 c 128,-1,18
 608 1142 608 1142 540.5 1050 c 128,-1,19
 473 958 473 958 432.5 824 c 128,-1,20
 392 690 392 690 392 536 c 0,21,22
 392 477 392 477 401.5 417 c 128,-1,23
 411 357 411 357 436 294 c 128,-1,24
 461 231 461 231 497.5 183 c 128,-1,25
 534 135 534 135 594.5 104.5 c 128,-1,26
 655 74 655 74 730 74 c 0,27,28
 808 74 808 74 844 100 c 0,29,30
 859 111 859 111 864 134 c 0,31,32
 867 147 867 147 874.5 189.5 c 128,-1,33
 882 232 882 232 893.5 293 c 128,-1,34
 905 354 905 354 912 392 c 0,35,36
 924 452 924 452 922 494 c 0,37,38
 921 511 921 511 905.5 523 c 128,-1,39
 890 535 890 535 867 540 c 128,-1,40
 844 545 844 545 828.5 546.5 c 128,-1,41
 813 548 813 548 800 548 c 1,42,43
 796 550 796 550 796.5 564.5 c 128,-1,44
 797 579 797 579 802.5 598 c 128,-1,45
 808 617 808 617 814 622 c 1,46,47
 844 621 844 621 905 617.5 c 128,-1,48
 966 614 966 614 1015 612 c 128,-1,49
 1064 610 1064 610 1106 610 c 0,50,51
 1141 610 1141 610 1177 612 c 128,-1,52
 1213 614 1213 614 1256.5 617.5 c 128,-1,53
 1300 621 1300 621 1326 622 c 1,54,55
 1327 603 1327 603 1321 575.5 c 128,-1,56
 1315 548 1315 548 1310 548 c 0,57,58
 1297 548 1297 548 1264.5 540 c 128,-1,59
 1232 532 1232 532 1216 522 c 0,60,61
 1207 516 1207 516 1195.5 490 c 128,-1,62
 1184 464 1184 464 1178 436 c 0,63,64
 1139 232 1139 232 1132 196 c 0,65,66
 1130 186 1130 186 1131.5 164 c 128,-1,67
 1133 142 1133 142 1132 138 c 0,68,69
 1129 123 1129 123 1105 102.5 c 128,-1,70
 1081 82 1081 82 1058 72 c 1,71,72
 970 29 970 29 882.5 7.5 c 128,-1,73
 795 -14 795 -14 674 -14 c 0,74,75
 561 -14 561 -14 465.5 19 c 128,-1,76
 370 52 370 52 304.5 108 c 128,-1,77
 239 164 239 164 193 237 c 128,-1,78
 147 310 147 310 125.5 390 c 128,-1,79
 104 470 104 470 104 552 c 0,80,81
 104 697 104 697 151 824.5 c 128,-1,82
 198 952 198 952 277 1043.5 c 128,-1,83
 356 1135 356 1135 457.5 1202 c 128,-1,84
 559 1269 559 1269 669 1301.5 c 128,-1,85
 779 1334 779 1334 886 1334 c 0,0,1
EndSplineSet
EndChar
StartChar: H
Encoding: 72 72 40
Width: 1414
Flags: W
LayerCount: 2
Back
SplineSet
729.919921875 738 m 0,0,1
 951.919921875 738 951.919921875 738 953.919921875 750 c 2,2,-1
 1009.91992188 1046 l 1,3,4
 1027.91992188 1154 1027.91992188 1154 1027.91992188 1200 c 0,5,6
 1027.91992188 1218.11695279 1027.91992188 1218.11695279 1016.66169819 1230.45699213 c 0,7,8
 1005.40347451 1242.79703147 1005.40347451 1242.79703147 987.521895559 1247.73050787 c 0,9,10
 969.640316612 1252.66398426 969.640316612 1252.66398426 956.849198191 1254.33199213 c 0,11,12
 944.05807977 1256 944.05807977 1256 931.919921875 1256 c 0,7,8
 927.919921875 1256 927.919921875 1256 927.919921875 1268 c 0,9,10
 927.919921875 1281.83333333 927.919921875 1281.83333333 932.984438004 1299.9811828 c 0,11,12
 938.048954133 1318.12903226 938.048954133 1318.12903226 943.919921875 1324 c 1,11,12
 969.786588542 1322.76825397 969.786588542 1322.76825397 1025.31251447 1319.35873016 c 0,13,14
 1080.83844039 1315.94920635 1080.83844039 1315.94920635 1125.19399595 1313.97460317 c 0,15,16
 1169.5495515 1312 1169.5495515 1312 1207.91992188 1312 c 0,13,14
 1244.53720583 1312 1244.53720583 1312 1285.28535397 1313.96725146 c 0,15,16
 1326.03350212 1315.93450292 1326.03350212 1315.93450292 1376.55448978 1319.36608187 c 0,17,18
 1427.07547743 1322.79766082 1427.07547743 1322.79766082 1449.91992188 1324 c 1,15,16
 1449.91992188 1312 l 2,17,18
 1449.91992188 1292.02962963 1449.91992188 1292.02962963 1446.06968033 1278.34074074 c 0,19,20
 1442.21943878 1264.65185185 1442.21943878 1264.65185185 1438.43683009 1260.32592593 c 0,21,22
 1434.65422139 1256 1434.65422139 1256 1431.91992188 1256 c 0,19,20
 1417.16316512 1256 1417.16316512 1256 1371.51004743 1239.27559055 c 0,21,22
 1325.85692975 1222.5511811 1325.85692975 1222.5511811 1317.91992188 1208 c 0,21,22
 1313.65242178 1200.12153829 1313.65242178 1200.12153829 1309.97424589 1192.33805302 c 0,23,24
 1306.29606999 1184.55456775 1306.29606999 1184.55456775 1302.9026349 1175.04466303 c 0,25,26
 1299.5091998 1165.53475832 1299.5091998 1165.53475832 1297.11827881 1159.03215453 c 0,27,28
 1294.72735782 1152.52955073 1294.72735782 1152.52955073 1291.72568017 1140.61942298 c 0,29,30
 1288.72400252 1128.70929522 1288.72400252 1128.70929522 1287.22527469 1123.1583548 c 0,31,32
 1285.72654687 1117.60741438 1285.72654687 1117.60741438 1282.72156494 1102.96784547 c 0,33,34
 1279.71658301 1088.32827657 1279.71658301 1088.32827657 1278.71498663 1083.39978141 c 0,35,36
 1277.71339025 1078.47128626 1277.71339025 1078.47128626 1274.31004231 1060.77305809 c 0,37,38
 1270.90669436 1043.07482993 1270.90669436 1043.07482993 1269.91992188 1038 c 2,23,-1
 1121.91992188 278 l 2,24,25
 1119.5426956 265.717664234 1119.5426956 265.717664234 1115.18076859 244.73744716 c 0,26,27
 1110.81884158 223.757230086 1110.81884158 223.757230086 1108.83507516 213.05455284 c 0,28,29
 1106.85130874 202.351875595 1106.85130874 202.351875595 1104.36476859 185.82544716 c 0,30,31
 1101.87822844 169.299018724 1101.87822844 169.299018724 1100.89907516 153.18255284 c 0,32,33
 1099.91992188 137.066086957 1099.91992188 137.066086957 1099.91992188 118 c 0,26,27
 1099.91992188 97.1923076923 1099.91992188 97.1923076923 1140.21158854 78.5961538462 c 0,28,29
 1180.50325521 60 1180.50325521 60 1197.91992188 60 c 0,28,29
 1201.91992188 60 1201.91992188 60 1201.91992188 50 c 0,30,31
 1201.91992188 37.8333333333 1201.91992188 37.8333333333 1196.88146034 19.358974359 c 0,32,33
 1191.8429988 0.884615384615 1191.8429988 0.884615384615 1185.91992188 -8 c 1,32,33
 1181.80881076 -7.77777777778 1181.80881076 -7.77777777778 1085.36436632 -0.888888888889 c 0,34,35
 988.919921875 6 988.919921875 6 939.919921875 6 c 0,34,35
 889.753255208 6 889.753255208 6 796.586588542 -0.5 c 0,36,37
 703.419921875 -7 703.419921875 -7 681.919921875 -8 c 1,36,37
 679.919921875 -6 679.919921875 -6 679.919921875 4 c 0,38,39
 679.919921875 19.375 679.919921875 19.375 683.452530571 39.6875 c 0,40,41
 686.985139266 60 686.985139266 60 689.919921875 60 c 0,40,41
 711.616891572 60 711.616891572 60 755.422362872 74.3126787417 c 0,42,43
 799.227834172 88.6253574833 799.227834172 88.6253574833 809.919921875 106 c 0,42,43
 828.491350446 137.571428571 828.491350446 137.571428571 857.919921875 270 c 1,44,-1
 925.919921875 608 l 1,45,-1
 925.919921875 610 l 2,46,47
 925.919921875 622 925.919921875 622 705.919921875 622 c 0,48,49
 481.919921875 622 481.919921875 622 477.919921875 606 c 2,50,-1
 413.919921875 278 l 2,51,52
 412.759318503 272.003549246 412.759318503 272.003549246 409.151679174 253.698852442 c 0,53,54
 405.544039845 235.394155638 405.544039845 235.394155638 404.589039211 230.091235022 c 0,55,56
 403.634038578 224.788314406 403.634038578 224.788314406 401.128355559 210.398560897 c 0,57,58
 398.62267254 196.008807388 398.62267254 196.008807388 397.89516166 188.540214614 c 0,59,60
 397.16765078 181.071621839 397.16765078 181.071621839 395.903865763 168.35774457 c 0,61,62
 394.640080746 155.643867301 394.640080746 155.643867301 394.280001311 143.770535313 c 0,63,64
 393.919921875 131.897203326 393.919921875 131.897203326 393.919921875 118 c 0,53,54
 393.919921875 97.1741573034 393.919921875 97.1741573034 433.306826637 78.5870786517 c 0,55,56
 472.693731399 60 472.693731399 60 489.919921875 60 c 0,55,56
 493.919921875 60 493.919921875 60 493.919921875 50 c 0,57,58
 493.919921875 37.1 493.919921875 37.1 489.764749461 18.8172413793 c 0,59,60
 485.609577047 0.534482758621 485.609577047 0.534482758621 479.919921875 -8 c 1,59,60
 455.902378015 -6.70175438596 455.902378015 -6.70175438596 403.983717728 -2.84210526316 c 0,61,62
 352.065057441 1.01754385965 352.065057441 1.01754385965 307.189459355 3.50877192982 c 0,63,64
 262.313861269 6 262.313861269 6 225.919921875 6 c 0,61,62
 176.003255208 6 176.003255208 6 86.7632189764 -0.451086956522 c 0,63,64
 -2.47681725543 -6.90217391304 -2.47681725543 -6.90217391304 -26.080078125 -8 c 1,63,64
 -28.080078125 -6 -28.080078125 -6 -28.080078125 4 c 0,65,66
 -28.080078125 18.8 -28.080078125 18.8 -23.6018172554 39.4 c 0,67,68
 -19.1235563859 60 -19.1235563859 60 -16.080078125 60 c 0,67,68
 6.04895413306 60 6.04895413306 60 48.6562378115 73.3416746872 c 0,69,70
 91.26352149 86.6833493744 91.26352149 86.6833493744 101.919921875 104 c 0,69,70
 115.422124518 126.953744493 115.422124518 126.953744493 130.860583636 181.614234884 c 0,71,72
 146.299042754 236.274725275 146.299042754 236.274725275 151.919921875 270 c 2,71,-1
 301.919921875 1046 l 2,72,73
 319.919921875 1142 319.919921875 1142 319.919921875 1192 c 0,74,75
 319.919921875 1213.62443145 319.919921875 1213.62443145 297.888175843 1229.40610786 c 0,76,77
 275.856429812 1245.18778428 275.856429812 1245.18778428 255.28500124 1250.59389214 c 0,78,79
 234.713572669 1256 234.713572669 1256 223.919921875 1256 c 0,76,77
 221.919921875 1256 221.919921875 1256 221.919921875 1264 c 0,78,79
 221.919921875 1278.5 221.919921875 1278.5 225.78530649 1299.11538462 c 0,80,81
 229.650691106 1319.73076923 229.650691106 1319.73076923 233.919921875 1324 c 1,80,81
 262.949806932 1322.61762452 262.949806932 1322.61762452 311.04159067 1319.3210728 c 0,82,83
 359.133374408 1316.02452107 359.133374408 1316.02452107 399.464919746 1314.01226054 c 0,84,85
 439.796465085 1312 439.796465085 1312 477.919921875 1312 c 0,82,83
 513.919921875 1312 513.919921875 1312 741.919921875 1324 c 1,84,85
 741.919921875 1314 l 2,86,87
 741.919921875 1297.5 741.919921875 1297.5 736.732421875 1276.75 c 0,88,89
 731.544921875 1256 731.544921875 1256 725.919921875 1256 c 0,88,89
 710.865867821 1256 710.865867821 1256 663.351094205 1239.25669882 c 0,90,91
 615.836320589 1222.51339764 615.836320589 1222.51339764 607.919921875 1208 c 0,90,91
 596.42130309 1187.55801105 596.42130309 1187.55801105 579.926862483 1123.31650552 c 0,92,93
 563.432421875 1059.075 563.432421875 1059.075 559.919921875 1038 c 2,92,-1
 505.919921875 756 l 1,93,94
 505.919921875 752 l 2,95,96
 505.919921875 749.232123212 505.919921875 749.232123212 508.33473669 747.463953062 c 0,97,98
 510.749551505 745.695782912 510.749551505 745.695782912 518.671773727 743.952713605 c 0,99,100
 526.593995949 742.209644298 526.593995949 742.209644298 541.408810764 741.223212321 c 0,101,102
 556.223625579 740.236780345 556.223625579 740.236780345 581.190292245 739.434195086 c 0,103,104
 606.156958912 738.631609828 606.156958912 738.631609828 642.482884838 738.315804914 c 0,105,106
 678.808810764 738 678.808810764 738 729.919921875 738 c 0,0,1
EndSplineSet
Fore
SplineSet
506 1310 m 0,0,1
 640 1310 640 1310 770 1324 c 1,2,3
 775 1315 775 1315 770 1287.5 c 128,-1,4
 765 1260 765 1260 756 1250 c 1,5,6
 644 1241 644 1241 630 1214 c 0,7,8
 604 1167 604 1167 578 1026 c 2,9,-1
 524 742 l 1,10,-1
 526 736 l 1,11,12
 742 730 742 730 750 730 c 0,13,14
 764 730 764 730 968 736 c 1,15,16
 974 740 974 740 974 744 c 2,17,-1
 1026 1026 l 2,18,19
 1028 1036 1028 1036 1032.5 1060.5 c 128,-1,20
 1037 1085 1037 1085 1039 1094.5 c 128,-1,21
 1041 1104 1041 1104 1044 1123 c 128,-1,22
 1047 1142 1047 1142 1048 1151 c 128,-1,23
 1049 1160 1049 1160 1050 1173.5 c 128,-1,24
 1051 1187 1051 1187 1050.5 1196.5 c 128,-1,25
 1050 1206 1050 1206 1048 1214 c 0,26,27
 1044 1241 1044 1241 936 1250 c 1,28,29
 932 1260 932 1260 937 1287.5 c 128,-1,30
 942 1315 942 1315 950 1324 c 1,31,32
 1072 1310 1072 1310 1214 1310 c 0,33,34
 1348 1310 1348 1310 1478 1324 c 1,35,36
 1483 1315 1483 1315 1478 1287.5 c 128,-1,37
 1473 1260 1473 1260 1464 1250 c 1,38,39
 1352 1241 1352 1241 1338 1214 c 0,40,41
 1312 1167 1312 1167 1286 1026 c 1,42,-1
 1144 290 l 2,43,44
 1142 280 1142 280 1137.5 255.5 c 128,-1,45
 1133 231 1133 231 1131 221.5 c 128,-1,46
 1129 212 1129 212 1126 193 c 128,-1,47
 1123 174 1123 174 1122 165 c 128,-1,48
 1121 156 1121 156 1120 142.5 c 128,-1,49
 1119 129 1119 129 1119.5 119.5 c 128,-1,50
 1120 110 1120 110 1122 102 c 0,51,52
 1126 75 1126 75 1234 66 c 1,53,54
 1238 56 1238 56 1233 28.5 c 128,-1,55
 1228 1 1228 1 1220 -8 c 1,56,57
 1098 6 1098 6 956 6 c 0,58,59
 822 6 822 6 692 -8 c 1,60,61
 687 1 687 1 692 28.5 c 128,-1,62
 697 56 697 56 706 66 c 1,63,64
 818 75 818 75 832 102 c 0,65,66
 858 149 858 149 884 290 c 1,67,-1
 948 620 l 1,68,-1
 946 630 l 1,69,70
 810 634 810 634 730 634 c 0,71,72
 514 634 514 634 502 626 c 1,73,-1
 498 618 l 1,74,-1
 436 290 l 2,75,76
 434 280 434 280 429.5 255.5 c 128,-1,77
 425 231 425 231 423 221.5 c 128,-1,78
 421 212 421 212 418 193 c 128,-1,79
 415 174 415 174 414 165 c 128,-1,80
 413 156 413 156 412 142.5 c 128,-1,81
 411 129 411 129 411.5 119.5 c 128,-1,82
 412 110 412 110 414 102 c 0,83,84
 418 75 418 75 526 66 c 1,85,86
 530 56 530 56 525 28.5 c 128,-1,87
 520 1 520 1 512 -8 c 1,88,89
 390 6 390 6 248 6 c 0,90,91
 112 6 112 6 -18 -8 c 1,92,93
 -23 1 -23 1 -17 28.5 c 128,-1,94
 -11 56 -11 56 -2 66 c 1,95,96
 110 75 110 75 124 102 c 0,97,98
 147 143 147 143 174 290 c 1,99,-1
 318 1026 l 2,100,101
 320 1036 320 1036 324.5 1060.5 c 128,-1,102
 329 1085 329 1085 331 1094.5 c 128,-1,103
 333 1104 333 1104 336 1123 c 128,-1,104
 339 1142 339 1142 340 1151 c 128,-1,105
 341 1160 341 1160 342 1173.5 c 128,-1,106
 343 1187 343 1187 342.5 1196.5 c 128,-1,107
 342 1206 342 1206 340 1214 c 0,108,109
 336 1241 336 1241 228 1250 c 1,110,111
 224 1260 224 1260 229 1287.5 c 128,-1,112
 234 1315 234 1315 242 1324 c 1,113,114
 364 1310 364 1310 506 1310 c 0,0,1
EndSplineSet
EndChar
StartChar: I
Encoding: 73 73 41
Width: 706
Flags: W
LayerCount: 2
Fore
SplineSet
506 1310 m 0,0,1
 640 1310 640 1310 770 1324 c 1,2,3
 775 1315 775 1315 770 1287.5 c 128,-1,4
 765 1260 765 1260 756 1250 c 1,5,6
 644 1241 644 1241 630 1214 c 0,7,8
 604 1167 604 1167 578 1026 c 1,9,-1
 436 290 l 2,10,11
 434 280 434 280 429.5 255.5 c 128,-1,12
 425 231 425 231 423 221.5 c 128,-1,13
 421 212 421 212 418 193 c 128,-1,14
 415 174 415 174 414 165 c 128,-1,15
 413 156 413 156 412 142.5 c 128,-1,16
 411 129 411 129 411.5 119.5 c 128,-1,17
 412 110 412 110 414 102 c 0,18,19
 418 75 418 75 526 66 c 1,20,21
 530 56 530 56 525 28.5 c 128,-1,22
 520 1 520 1 512 -8 c 1,23,24
 390 6 390 6 248 6 c 0,25,26
 112 6 112 6 -18 -8 c 1,27,28
 -23 1 -23 1 -17 28.5 c 128,-1,29
 -11 56 -11 56 -2 66 c 1,30,31
 110 75 110 75 124 102 c 0,32,33
 147 143 147 143 174 290 c 1,34,-1
 318 1026 l 2,35,36
 320 1036 320 1036 324.5 1060.5 c 128,-1,37
 329 1085 329 1085 331 1094.5 c 128,-1,38
 333 1104 333 1104 336 1123 c 128,-1,39
 339 1142 339 1142 340 1151 c 128,-1,40
 341 1160 341 1160 342 1173.5 c 128,-1,41
 343 1187 343 1187 342.5 1196.5 c 128,-1,42
 342 1206 342 1206 340 1214 c 0,43,44
 336 1241 336 1241 228 1250 c 1,45,46
 224 1260 224 1260 229 1287.5 c 128,-1,47
 234 1315 234 1315 242 1324 c 1,48,49
 364 1310 364 1310 506 1310 c 0,0,1
EndSplineSet
EndChar
StartChar: J
Encoding: 74 74 42
Width: 672
Flags: W
LayerCount: 2
Fore
SplineSet
494 1310 m 0,0,1
 628 1310 628 1310 758 1324 c 1,2,3
 763 1315 763 1315 758 1287.5 c 128,-1,4
 753 1260 753 1260 744 1250 c 1,5,6
 632 1241 632 1241 618 1214 c 0,7,8
 592 1167 592 1167 566 1026 c 1,9,-1
 422 286 l 2,10,11
 404 192 404 192 366 104.5 c 128,-1,12
 328 17 328 17 281.5 -50.5 c 128,-1,13
 235 -118 235 -118 179 -178 c 128,-1,14
 123 -238 123 -238 69.5 -280.5 c 128,-1,15
 16 -323 16 -323 -37 -356.5 c 128,-1,16
 -90 -390 -90 -390 -129 -408.5 c 128,-1,17
 -168 -427 -168 -427 -196 -436 c 1,18,19
 -203 -432 -203 -432 -210.5 -420 c 128,-1,20
 -218 -408 -218 -408 -218 -400 c 128,-1,21
 -218 -392 -218 -392 -214 -388 c 1,22,23
 -64 -307 -64 -307 23 -147.5 c 128,-1,24
 110 12 110 12 160 270 c 2,25,-1
 306 1026 l 2,26,27
 308 1036 308 1036 312.5 1060.5 c 128,-1,28
 317 1085 317 1085 319 1094.5 c 128,-1,29
 321 1104 321 1104 324 1123 c 128,-1,30
 327 1142 327 1142 328 1151 c 128,-1,31
 329 1160 329 1160 330 1173.5 c 128,-1,32
 331 1187 331 1187 330.5 1196.5 c 128,-1,33
 330 1206 330 1206 328 1214 c 0,34,35
 324 1241 324 1241 216 1250 c 1,36,37
 212 1260 212 1260 217 1287.5 c 128,-1,38
 222 1315 222 1315 230 1324 c 1,39,40
 352 1310 352 1310 494 1310 c 0,0,1
EndSplineSet
EndChar
StartChar: L
Encoding: 76 76 44
Width: 1094
Flags: W
LayerCount: 2
Back
SplineSet
413.919921875 278 m 1,0,1
 399.919921875 194 399.919921875 194 399.919921875 164 c 0,2,3
 399.919921875 139.854063018 399.919921875 139.854063018 405.650080605 129.963515755 c 0,4,5
 411.380239335 120.072968491 411.380239335 120.072968491 437.523096478 114.036484245 c 0,6,7
 463.665953621 108 463.665953621 108 521.919921875 108 c 2,4,-1
 569.919921875 108 l 2,5,6
 621.879381334 108 621.879381334 108 683.152738024 122.62654321 c 0,7,8
 744.426094715 137.25308642 744.426094715 137.25308642 789.919921875 160 c 0,7,8
 824.408110851 177.244094488 824.408110851 177.244094488 873.892232131 227.532835626 c 0,9,10
 923.37635341 277.821576763 923.37635341 277.821576763 957.919921875 340 c 0,9,10
 963.919921875 352 963.919921875 352 985.919921875 352 c 0,11,12
 1000.25325521 352 1000.25325521 352 1018.65415611 348.148648649 c 0,13,14
 1037.05505701 344.297297297 1037.05505701 344.297297297 1039.91992188 340 c 1,13,14
 1031.47108467 323.705813953 1031.47108467 323.705813953 996.232740146 256.736611891 c 0,15,16
 960.994395627 189.767409828 960.994395627 189.767409828 944.200853604 156.825888109 c 0,17,18
 927.40731158 123.88436639 927.40731158 123.88436639 904.920240146 75.3616118909 c 0,19,20
 882.433168713 26.8388573921 882.433168713 26.8388573921 871.919921875 -4 c 1,15,16
 766.919921875 -4 766.919921875 -4 542.919921875 0 c 0,17,18
 318.919921875 4 318.919921875 4 237.919921875 4 c 0,17,18
 190.808810764 4 190.808810764 4 125.308810764 1 c 0,19,20
 59.8088107639 -2 59.8088107639 -2 17.8643663194 -5 c 2,21,-1
 -24.080078125 -8 l 1,19,20
 -28.080078125 0 -28.080078125 0 -28.080078125 10 c 0,21,22
 -28.080078125 21.1717171717 -28.080078125 21.1717171717 -25.3960503472 33.2929292929 c 0,23,24
 -22.7120225694 45.4141414141 -22.7120225694 45.4141414141 -19.4307725694 52.7070707071 c 0,25,26
 -16.1495225694 60 -16.1495225694 60 -14.080078125 60 c 0,23,24
 5.34675114329 60 5.34675114329 60 53.5200174973 78.458915145 c 0,25,26
 101.693283851 96.91783029 101.693283851 96.91783029 109.919921875 112 c 0,25,26
 132.292803231 158.779661017 132.292803231 158.779661017 151.919921875 270 c 1,27,-1
 301.919921875 1046 l 2,28,29
 319.919921875 1142 319.919921875 1142 319.919921875 1192 c 0,30,31
 319.919921875 1213.62443145 319.919921875 1213.62443145 297.888175843 1229.40610786 c 0,32,33
 275.856429812 1245.18778428 275.856429812 1245.18778428 255.28500124 1250.59389214 c 0,34,35
 234.713572669 1256 234.713572669 1256 223.919921875 1256 c 0,32,33
 221.919921875 1256 221.919921875 1256 221.919921875 1264 c 0,34,35
 221.919921875 1278.5 221.919921875 1278.5 225.78530649 1299.11538462 c 0,36,37
 229.650691106 1319.73076923 229.650691106 1319.73076923 233.919921875 1324 c 1,36,37
 262.949806932 1322.61762452 262.949806932 1322.61762452 311.04159067 1319.3210728 c 0,38,39
 359.133374408 1316.02452107 359.133374408 1316.02452107 399.464919746 1314.01226054 c 0,40,41
 439.796465085 1312 439.796465085 1312 477.919921875 1312 c 0,38,39
 513.919921875 1312 513.919921875 1312 741.919921875 1324 c 1,40,41
 741.919921875 1314 l 2,42,43
 741.919921875 1297.5 741.919921875 1297.5 736.732421875 1276.75 c 0,44,45
 731.544921875 1256 731.544921875 1256 725.919921875 1256 c 0,44,45
 710.865867821 1256 710.865867821 1256 663.351094205 1239.25669882 c 0,46,47
 615.836320589 1222.51339764 615.836320589 1222.51339764 607.919921875 1208 c 0,46,47
 596.42130309 1187.55801105 596.42130309 1187.55801105 579.926862483 1123.31650552 c 0,48,49
 563.432421875 1059.075 563.432421875 1059.075 559.919921875 1038 c 2,48,-1
 413.919921875 278 l 1,0,1
EndSplineSet
Fore
SplineSet
434 282 m 1,0,1
 412 152 412 152 418 124 c 0,2,3
 422 105 422 105 455.5 94.5 c 128,-1,4
 489 84 489 84 530 84 c 2,5,-1
 654 84 l 2,6,7
 765 84 765 84 840 150 c 0,8,9
 899 202 899 202 976 340 c 0,10,11
 982 352 982 352 1006 352 c 0,12,13
 1020 352 1020 352 1037.5 348 c 128,-1,14
 1055 344 1055 344 1058 340 c 1,15,16
 1054 333 1054 333 1023.5 274.5 c 128,-1,17
 993 216 993 216 982 194 c 128,-1,18
 971 172 971 172 949 127.5 c 128,-1,19
 927 83 927 83 914 52 c 128,-1,20
 901 21 901 21 892 -4 c 1,21,-1
 248 -4 l 2,22,23
 190 -4 190 -4 130 -4.5 c 128,-1,24
 70 -5 70 -5 31 -5.5 c 128,-1,25
 -8 -6 -8 -6 -16 -6 c 1,26,27
 -21 3 -21 3 -16 30.5 c 128,-1,28
 -11 58 -11 58 -2 68 c 1,29,30
 111 77 111 77 124 102 c 0,31,32
 147 143 147 143 174 290 c 1,33,-1
 318 1026 l 2,34,35
 320 1036 320 1036 324.5 1060.5 c 128,-1,36
 329 1085 329 1085 331 1094.5 c 128,-1,37
 333 1104 333 1104 336 1123 c 128,-1,38
 339 1142 339 1142 340 1151 c 128,-1,39
 341 1160 341 1160 342 1173.5 c 128,-1,40
 343 1187 343 1187 342.5 1196.5 c 128,-1,41
 342 1206 342 1206 340 1214 c 0,42,43
 336 1241 336 1241 228 1250 c 1,44,45
 224 1260 224 1260 229 1287.5 c 128,-1,46
 234 1315 234 1315 242 1324 c 1,47,48
 364 1310 364 1310 506 1310 c 0,49,50
 640 1310 640 1310 770 1324 c 1,51,52
 775 1315 775 1315 770 1287.5 c 128,-1,53
 765 1260 765 1260 756 1250 c 1,54,55
 644 1241 644 1241 630 1214 c 0,56,57
 604 1167 604 1167 578 1026 c 1,58,-1
 434 282 l 1,0,1
EndSplineSet
EndChar
StartChar: O
Encoding: 79 79 47
Width: 1410
Flags: W
LayerCount: 2
Fore
SplineSet
804 1248 m 3,0,1
 724 1248 724 1248 655 1200.5 c 128,-1,2
 586 1153 586 1153 537.5 1075.5 c 128,-1,3
 489 998 489 998 454 898.5 c 128,-1,4
 419 799 419 799 402.5 694 c 128,-1,5
 386 589 386 589 386 488 c 0,6,7
 386 399 386 399 401 324.5 c 128,-1,8
 416 250 416 250 447 191 c 128,-1,9
 478 132 478 132 530.5 99 c 128,-1,10
 583 66 583 66 652 66 c 0,11,12
 749 66 749 66 830.5 137 c 128,-1,13
 912 208 912 208 963 320 c 128,-1,14
 1014 432 1014 432 1042 562.5 c 128,-1,15
 1070 693 1070 693 1070 820 c 0,16,17
 1070 939 1070 939 1042 1033.5 c 128,-1,18
 1014 1128 1014 1128 952.5 1188 c 128,-1,19
 891 1248 891 1248 804 1248 c 3,0,1
848 1334 m 0,20,21
 966 1334 966 1334 1065 1285 c 128,-1,22
 1164 1236 1164 1236 1226.5 1156.5 c 128,-1,23
 1289 1077 1289 1077 1323.5 980.5 c 128,-1,24
 1358 884 1358 884 1358 786 c 0,25,26
 1358 638 1358 638 1310 506.5 c 128,-1,27
 1262 375 1262 375 1183 280.5 c 128,-1,28
 1104 186 1104 186 1004 117 c 128,-1,29
 904 48 904 48 797.5 14 c 128,-1,30
 691 -20 691 -20 590 -20 c 0,31,32
 453 -20 453 -20 339.5 54.5 c 128,-1,33
 226 129 226 129 162 253 c 128,-1,34
 98 377 98 377 98 522 c 0,35,36
 98 666 98 666 144 797 c 128,-1,37
 190 928 190 928 267 1024 c 128,-1,38
 344 1120 344 1120 441 1191 c 128,-1,39
 538 1262 538 1262 643 1298 c 128,-1,40
 748 1334 748 1334 848 1334 c 0,20,21
EndSplineSet
EndChar
StartChar: R
Encoding: 82 82 50
Width: 1290
Flags: W
LayerCount: 2
Fore
SplineSet
506 1314 m 0,0,1
 541 1314 541 1314 638 1317 c 128,-1,2
 735 1320 735 1320 794 1320 c 0,3,4
 971 1320 971 1320 1064 1209.5 c 128,-1,5
 1157 1099 1157 1099 1122 916 c 0,6,7
 1110 855 1110 855 1068 801.5 c 128,-1,8
 1026 748 1026 748 972.5 714.5 c 128,-1,9
 919 681 919 681 873 660.5 c 128,-1,10
 827 640 827 640 792 632 c 1,11,12
 817 582 817 582 850 514.5 c 128,-1,13
 883 447 883 447 896 421.5 c 128,-1,14
 909 396 909 396 933 353.5 c 128,-1,15
 957 311 957 311 990 260 c 0,16,17
 1028 200 1028 200 1075 156.5 c 128,-1,18
 1122 113 1122 113 1162 93 c 128,-1,19
 1202 73 1202 73 1229.5 64.5 c 128,-1,20
 1257 56 1257 56 1272 56 c 1,21,22
 1276 44 1276 44 1273 20.5 c 128,-1,23
 1270 -3 1270 -3 1268 -8 c 1,24,25
 1249 -9 1249 -9 1232.5 -11.5 c 128,-1,26
 1216 -14 1216 -14 1200 -15 c 128,-1,27
 1184 -16 1184 -16 1150 -16 c 0,28,29
 1063 -16 1063 -16 993 1 c 128,-1,30
 923 18 923 18 883.5 38.5 c 128,-1,31
 844 59 844 59 810.5 94.5 c 128,-1,32
 777 130 777 130 766.5 148.5 c 128,-1,33
 756 167 756 167 740 198 c 2,34,-1
 550 568 l 1,35,36
 536 598 536 598 522 598 c 2,37,-1
 496 598 l 1,38,-1
 436 290 l 2,39,40
 434 280 434 280 429.5 255.5 c 128,-1,41
 425 231 425 231 423 221.5 c 128,-1,42
 421 212 421 212 418 193 c 128,-1,43
 415 174 415 174 414 165 c 128,-1,44
 413 156 413 156 412 142.5 c 128,-1,45
 411 129 411 129 411.5 119.5 c 128,-1,46
 412 110 412 110 414 102 c 0,47,48
 418 75 418 75 526 66 c 1,49,50
 530 56 530 56 525 28.5 c 128,-1,51
 520 1 520 1 512 -8 c 1,52,53
 390 6 390 6 248 6 c 0,54,55
 112 6 112 6 -18 -8 c 1,56,57
 -23 1 -23 1 -17 28.5 c 128,-1,58
 -11 56 -11 56 -2 66 c 1,59,60
 110 75 110 75 124 102 c 0,61,62
 147 143 147 143 174 290 c 1,63,-1
 318 1026 l 2,64,65
 320 1036 320 1036 324.5 1060.5 c 128,-1,66
 329 1085 329 1085 331 1094.5 c 128,-1,67
 333 1104 333 1104 336 1123 c 128,-1,68
 339 1142 339 1142 340 1151 c 128,-1,69
 341 1160 341 1160 342 1173.5 c 128,-1,70
 343 1187 343 1187 342.5 1196.5 c 128,-1,71
 342 1206 342 1206 340 1214 c 0,72,73
 336 1237 336 1237 226 1246 c 1,74,75
 222 1256 222 1256 228 1283.5 c 128,-1,76
 234 1311 234 1311 242 1320 c 1,77,78
 324 1314 324 1314 506 1314 c 0,0,1
510 676 m 17,79,-1
 596 676 l 2,80,81
 680 676 680 676 746 731.5 c 128,-1,82
 812 787 812 787 842 896 c 0,83,84
 858 953 858 953 861.5 1011 c 128,-1,85
 865 1069 865 1069 854.5 1121.5 c 128,-1,86
 844 1174 844 1174 810 1207 c 128,-1,87
 776 1240 776 1240 722 1240 c 0,88,89
 639 1240 639 1240 624 1216 c 0,90,91
 620 1209 620 1209 616.5 1200.5 c 128,-1,92
 613 1192 613 1192 610 1178.5 c 128,-1,93
 607 1165 607 1165 605 1156.5 c 128,-1,94
 603 1148 603 1148 598.5 1126 c 128,-1,95
 594 1104 594 1104 592 1094 c 2,96,-1
 510 676 l 17,79,-1
EndSplineSet
EndChar
StartChar: W
Encoding: 87 87 55
Width: 1754
Flags: W
LayerCount: 2
Fore
SplineSet
399 1310 m 0,0,1
 534 1310 534 1310 663 1324 c 1,2,3
 668 1315 668 1315 663 1287.5 c 128,-1,4
 658 1260 658 1260 649 1250 c 1,5,6
 529 1240 529 1240 529 1172 c 0,7,8
 529 1133 529 1133 541 1046 c 2,9,-1
 617 502 l 1,10,11
 939 1120 939 1120 1009 1250 c 0,12,13
 1025 1280 1025 1280 1046 1302 c 128,-1,14
 1067 1324 1067 1324 1081 1324 c 0,15,16
 1091 1324 1091 1324 1097 1292 c 2,17,-1
 1247 428 l 1,18,19
 1517 978 1517 978 1549 1042 c 0,20,21
 1555 1055 1555 1055 1568 1082.5 c 128,-1,22
 1581 1110 1581 1110 1589.5 1127 c 128,-1,23
 1598 1144 1598 1144 1606 1165.5 c 128,-1,24
 1614 1187 1614 1187 1617 1202 c 0,25,26
 1623 1238 1623 1238 1481 1250 c 1,27,28
 1477 1260 1477 1260 1483 1287.5 c 128,-1,29
 1489 1315 1489 1315 1497 1324 c 1,30,31
 1648 1310 1648 1310 1715 1310 c 0,32,33
 1762 1310 1762 1310 1832 1316.5 c 128,-1,34
 1902 1323 1902 1323 1927 1324 c 1,35,36
 1932 1315 1932 1315 1926 1287.5 c 128,-1,37
 1920 1260 1920 1260 1911 1250 c 1,38,39
 1909 1250 1909 1250 1897.5 1249 c 128,-1,40
 1886 1248 1886 1248 1878 1247.5 c 128,-1,41
 1870 1247 1870 1247 1856.5 1245 c 128,-1,42
 1843 1243 1843 1243 1832.5 1240.5 c 128,-1,43
 1822 1238 1822 1238 1810.5 1234.5 c 128,-1,44
 1799 1231 1799 1231 1790 1226 c 128,-1,45
 1781 1221 1781 1221 1775 1214 c 0,46,47
 1711 1143 1711 1143 1665 1048 c 1,48,49
 1509 734 1509 734 1173 80 c 0,50,51
 1153 42 1153 42 1124 10 c 128,-1,52
 1095 -22 1095 -22 1079 -22 c 0,53,54
 1061 -22 1061 -22 1049 6 c 1,55,-1
 903 836 l 1,56,57
 669 375 669 375 521 88 c 0,58,59
 504 56 504 56 476.5 17 c 128,-1,60
 449 -22 449 -22 435 -22 c 0,61,62
 417 -22 417 -22 405 6 c 1,63,-1
 267 1020 l 1,64,65
 264 1051 264 1051 245 1180 c 0,66,67
 242 1198 242 1198 226 1212.5 c 128,-1,68
 210 1227 210 1227 188 1234.5 c 128,-1,69
 166 1242 166 1242 150 1245.5 c 128,-1,70
 134 1249 134 1249 121 1250 c 1,71,72
 115 1260 115 1260 121 1287 c 128,-1,73
 127 1314 127 1314 135 1324 c 1,74,75
 258 1310 258 1310 399 1310 c 0,0,1
EndSplineSet
EndChar
StartChar: Z
Encoding: 90 90 58
Width: 1216
Flags: W
LayerCount: 2
Fore
SplineSet
582 1220 m 2,0,1
 550 1220 550 1220 521.5 1215.5 c 128,-1,2
 493 1211 493 1211 468.5 1199 c 128,-1,3
 444 1187 444 1187 425.5 1177.5 c 128,-1,4
 407 1168 407 1168 387.5 1146.5 c 128,-1,5
 368 1125 368 1125 356.5 1113.5 c 128,-1,6
 345 1102 345 1102 328 1073 c 128,-1,7
 311 1044 311 1044 305 1033 c 128,-1,8
 299 1022 299 1022 281.5 989 c 128,-1,9
 264 956 264 956 260 948 c 1,10,11
 252 936 252 936 234 936 c 0,12,13
 189 936 189 936 182 946 c 1,14,15
 289 1229 289 1229 322 1324 c 1,16,17
 340 1319 340 1319 435 1314.5 c 128,-1,18
 530 1310 530 1310 564 1310 c 2,19,-1
 824 1312 l 1,20,21
 1032 1315 1032 1315 1260 1332 c 1,22,23
 1266 1331 1266 1331 1267.5 1306 c 128,-1,24
 1269 1281 1269 1281 1266 1266 c 1,25,26
 1263 1259 1263 1259 1025 966 c 128,-1,27
 787 673 787 673 550.5 383.5 c 2,28,-1
 314 94 l 1,29,-1
 716 94 l 2,30,31
 827 94 827 94 906 164 c 1,32,33
 973 222 973 222 1038 340 c 0,34,35
 1044 352 1044 352 1066 352 c 0,36,37
 1080 352 1080 352 1098.5 348 c 128,-1,38
 1117 344 1117 344 1120 340 c 1,39,40
 1103 305 1103 305 1038 178 c 128,-1,41
 973 51 973 51 954 2 c 1,42,-1
 -2 0 l 2,43,44
 -13 0 -13 0 -24.5 9.5 c 128,-1,45
 -36 19 -36 19 -41 29.5 c 128,-1,46
 -46 40 -46 40 -42 44 c 2,47,-1
 924 1220 l 1,48,-1
 582 1220 l 2,0,1
EndSplineSet
EndChar
StartChar: backslash
Encoding: 92 92 60
Width: 780
Flags: W
LayerCount: 2
Fore
SplineSet
606 -8 m 2,0,1
 610 -30 610 -30 585 -55 c 128,-1,2
 560 -80 560 -80 542 -80 c 0,3,4
 526 -80 526 -80 518 -74 c 1,5,-1
 246 1510 l 1,6,7
 255 1524 255 1524 274 1524 c 0,8,9
 302 1524 302 1524 328 1496.5 c 128,-1,10
 354 1469 354 1469 358 1450 c 2,11,-1
 606 -8 l 2,0,1
EndSplineSet
EndChar
StartChar: bracketright
Encoding: 93 93 61
Width: 520
Flags: W
LayerCount: 2
Fore
SplineSet
204 1530 m 0,0,1
 414 1512 414 1512 534 1512 c 0,2,3
 545 1512 545 1512 550.5 1504.5 c 128,-1,4
 556 1497 556 1497 554 1490 c 2,5,-1
 224 -194 l 1,6,7
 222 -197 l 2,8,9
 220 -200 220 -200 217.5 -203 c 128,-1,10
 215 -206 215 -206 210.5 -208.5 c 128,-1,11
 206 -211 206 -211 200 -212 c 0,12,13
 14 -229 14 -229 -106 -266 c 1,14,15
 -110 -264 -110 -264 -115 -255.5 c 128,-1,16
 -120 -247 -120 -247 -120 -238 c 0,17,18
 -120 -209 -120 -209 -66 -182 c 0,19,20
 25 -137 25 -137 108 -112 c 0,21,22
 123 -107 123 -107 126 -96 c 2,23,-1
 420 1394 l 2,24,25
 423 1409 423 1409 406 1412 c 0,26,27
 276 1428 276 1428 216 1456 c 1,28,29
 186 1472 186 1472 186 1510 c 0,30,31
 186 1517 186 1517 190.5 1522 c 128,-1,32
 195 1527 195 1527 198.5 1528.5 c 128,-1,33
 202 1530 202 1530 204 1530 c 0,0,1
EndSplineSet
EndChar
StartChar: asciicircum
Encoding: 94 94 62
Width: 646
Flags: W
LayerCount: 2
Fore
SplineSet
40 998 m 1,0,1
 44 1006 44 1006 78.5 1035.5 c 128,-1,2
 113 1065 113 1065 156 1103.5 c 128,-1,3
 199 1142 199 1142 258 1210.5 c 128,-1,4
 317 1279 317 1279 364 1354 c 0,5,6
 366 1358 366 1358 369.5 1365.5 c 128,-1,7
 373 1373 373 1373 374.5 1374.5 c 128,-1,8
 376 1376 376 1376 379.5 1378 c 128,-1,9
 383 1380 383 1380 388 1380 c 0,10,11
 401 1380 401 1380 408 1375 c 128,-1,12
 415 1370 415 1370 420.5 1354 c 128,-1,13
 426 1338 426 1338 431.5 1317.5 c 128,-1,14
 437 1297 437 1297 452 1258 c 128,-1,15
 467 1219 467 1219 488 1176 c 1,16,17
 502 1150 502 1150 531.5 1108 c 128,-1,18
 561 1066 561 1066 583 1035 c 128,-1,19
 605 1004 605 1004 606 1000 c 1,20,21
 603 987 603 987 591 962.5 c 128,-1,22
 579 938 579 938 570 938 c 0,23,24
 546 938 546 938 474 1010.5 c 128,-1,25
 402 1083 402 1083 354 1164 c 1,26,27
 282 1085 282 1085 180 1011.5 c 128,-1,28
 78 938 78 938 52 938 c 0,29,30
 40 938 40 938 40 998 c 1,0,1
EndSplineSet
EndChar
StartChar: underscore
Encoding: 95 95 63
Width: 948
Flags: W
LayerCount: 2
Fore
SplineSet
-71 -70 m 0,0,1
 -70 -66 -70 -66 -69 -59 c 128,-1,2
 -68 -52 -68 -52 -63 -34 c 128,-1,3
 -58 -16 -58 -16 -53 -2 c 128,-1,4
 -48 12 -48 12 -40.5 23 c 128,-1,5
 -33 34 -33 34 -25 34 c 2,6,-1
 811 34 l 2,7,8
 815 34 815 34 815 18 c 0,9,10
 815 -13 815 -13 785 -78 c 0,11,12
 782 -83 782 -83 777.5 -86 c 128,-1,13
 773 -89 773 -89 770 -89.5 c 2,14,-1
 767 -90 l 1,15,-1
 -61 -90 l 2,16,17
 -62 -90 -62 -90 -62.5 -90 c 128,-1,18
 -63 -90 -63 -90 -65.5 -89 c 128,-1,19
 -68 -88 -68 -88 -69 -86 c 128,-1,20
 -70 -84 -70 -84 -71.5 -80 c 128,-1,21
 -73 -76 -73 -76 -71 -70 c 0,0,1
EndSplineSet
EndChar
StartChar: b
Encoding: 98 98 66
Width: 930
Flags: W
LayerCount: 2
Fore
SplineSet
560 722 m 0,0,1
 495 722 495 722 419 596.5 c 128,-1,2
 343 471 343 471 316 334 c 0,3,4
 304 273 304 273 302.5 217.5 c 128,-1,5
 301 162 301 162 316.5 120 c 128,-1,6
 332 78 332 78 366 78 c 0,7,8
 426 78 426 78 486 170 c 128,-1,9
 546 262 546 262 581 384.5 c 128,-1,10
 616 507 616 507 616 604 c 0,11,12
 616 722 616 722 560 722 c 0,0,1
380 672 m 1,13,14
 427 745 427 745 526 821.5 c 128,-1,15
 625 898 625 898 692 898 c 0,16,17
 777 898 777 898 825.5 840 c 128,-1,18
 874 782 874 782 874 674 c 0,19,20
 874 539 874 539 816.5 409 c 128,-1,21
 759 279 759 279 673.5 189 c 128,-1,22
 588 99 588 99 488 43.5 c 128,-1,23
 388 -12 388 -12 302 -12 c 0,24,25
 205 -12 205 -12 137.5 50.5 c 128,-1,26
 70 113 70 113 70 214 c 0,27,28
 70 268 70 268 82 324 c 1,29,-1
 238 1120 l 1,30,31
 256 1201 256 1201 256 1226 c 0,32,33
 256 1264 256 1264 134 1264 c 1,34,35
 130 1270 130 1270 133 1293 c 128,-1,36
 136 1316 136 1316 142 1322 c 1,37,38
 219 1329 219 1329 342 1354 c 128,-1,39
 465 1379 465 1379 502 1392 c 1,40,41
 514 1385 514 1385 514 1354 c 0,42,43
 514 1329 514 1329 488 1204 c 2,44,-1
 380 672 l 1,13,14
EndSplineSet
EndChar
StartChar: c
Encoding: 99 99 67
Width: 754
Flags: W
LayerCount: 2
Fore
SplineSet
532 898 m 0,0,1
 588 898 588 898 637 884.5 c 128,-1,2
 686 871 686 871 708 854 c 1,3,4
 738 809 738 809 738 754 c 0,5,6
 738 708 738 708 704 670 c 128,-1,7
 670 632 670 632 626 632 c 0,8,9
 563 632 563 632 524 706 c 0,10,11
 523 708 523 708 518 718 c 128,-1,12
 513 728 513 728 510.5 731.5 c 128,-1,13
 508 735 508 735 503 744.5 c 128,-1,14
 498 754 498 754 494.5 758.5 c 128,-1,15
 491 763 491 763 485 770.5 c 128,-1,16
 479 778 479 778 474 782 c 128,-1,17
 469 786 469 786 463 790 c 128,-1,18
 457 794 457 794 450 796 c 128,-1,19
 443 798 443 798 436 798 c 0,20,21
 400 798 400 798 364 728 c 128,-1,22
 328 658 328 658 305 550.5 c 128,-1,23
 282 443 282 443 282 340 c 0,24,25
 282 241 282 241 313 197.5 c 128,-1,26
 344 154 344 154 406 154 c 0,27,28
 419 154 419 154 433.5 157.5 c 128,-1,29
 448 161 448 161 461 166.5 c 128,-1,30
 474 172 474 172 488 180 c 128,-1,31
 502 188 502 188 513.5 196.5 c 128,-1,32
 525 205 525 205 537.5 214.5 c 128,-1,33
 550 224 550 224 559 233 c 128,-1,34
 568 242 568 242 577 250.5 c 128,-1,35
 586 259 586 259 591.5 264.5 c 128,-1,36
 597 270 597 270 601.5 275 c 2,37,-1
 606 280 l 1,38,39
 617 280 617 280 624.5 260.5 c 128,-1,40
 632 241 632 241 632 228 c 1,41,42
 618 207 618 207 583 170.5 c 128,-1,43
 548 134 548 134 498 91.5 c 128,-1,44
 448 49 448 49 385.5 18.5 c 128,-1,45
 323 -12 323 -12 270 -12 c 0,46,47
 173 -12 173 -12 101.5 59 c 128,-1,48
 30 130 30 130 30 262 c 0,49,50
 30 414 30 414 105 563 c 128,-1,51
 180 712 180 712 297.5 805 c 128,-1,52
 415 898 415 898 532 898 c 0,0,1
EndSplineSet
EndChar
StartChar: g
Encoding: 103 103 71
Width: 888
VWidth: 0
Flags: W
LayerCount: 2
Fore
SplineSet
548 -226 m 0,0,1
 548 -188 548 -188 490 -146 c 128,-1,2
 432 -104 432 -104 366.5 -77 c 128,-1,3
 301 -50 301 -50 230 -28 c 1,4,5
 173 -58 173 -58 145.5 -90.5 c 128,-1,6
 118 -123 118 -123 118 -168 c 0,7,8
 118 -260 118 -260 182.5 -308 c 128,-1,9
 247 -356 247 -356 344 -356 c 0,10,11
 386 -356 386 -356 431.5 -342.5 c 128,-1,12
 477 -329 477 -329 512.5 -298 c 128,-1,13
 548 -267 548 -267 548 -226 c 0,0,1
470 838 m 0,14,15
 424 840 424 840 387 796 c 128,-1,16
 350 752 350 752 331.5 688 c 128,-1,17
 313 624 313 624 310 554 c 0,18,19
 307 472 307 472 327 415.5 c 128,-1,20
 347 359 347 359 398 356 c 0,21,22
 461 353 461 353 509 431 c 128,-1,23
 557 509 557 509 560 604 c 0,24,25
 562 643 562 643 558.5 680.5 c 128,-1,26
 555 718 555 718 546 754.5 c 128,-1,27
 537 791 537 791 517.5 814 c 128,-1,28
 498 837 498 837 470 838 c 0,14,15
728 788 m 1,29,30
 728 787 728 787 732.5 781.5 c 128,-1,31
 737 776 737 776 740.5 771 c 128,-1,32
 744 766 744 766 749.5 756 c 128,-1,33
 755 746 755 746 759 736.5 c 128,-1,34
 763 727 763 727 768 713.5 c 128,-1,35
 773 700 773 700 776.5 686 c 128,-1,36
 780 672 780 672 782 654 c 128,-1,37
 784 636 784 636 784 618 c 0,38,39
 784 552 784 552 755.5 492.5 c 128,-1,40
 727 433 727 433 681 391.5 c 128,-1,41
 635 350 635 350 592.5 323.5 c 128,-1,42
 550 297 550 297 508 280 c 0,43,44
 495 275 495 275 453 263 c 128,-1,45
 411 251 411 251 393.5 240 c 128,-1,46
 376 229 376 229 376 210 c 0,47,48
 376 194 376 194 415 176.5 c 128,-1,49
 454 159 454 159 510 139 c 128,-1,50
 566 119 566 119 622 92 c 128,-1,51
 678 65 678 65 717 20.5 c 128,-1,52
 756 -24 756 -24 756 -80 c 0,53,54
 756 -226 756 -226 606 -339 c 128,-1,55
 456 -452 456 -452 242 -452 c 0,56,57
 81 -452 81 -452 -16.5 -385.5 c 128,-1,58
 -114 -319 -114 -319 -114 -220 c 0,59,60
 -114 -182 -114 -182 -96.5 -149 c 128,-1,61
 -79 -116 -79 -116 -53.5 -94 c 128,-1,62
 -28 -72 -28 -72 8.5 -52.5 c 128,-1,63
 45 -33 45 -33 74.5 -21.5 c 128,-1,64
 104 -10 104 -10 139.58133434 1.55524971683 c 0,65,66
 152 6 152 6 158 8 c 1,67,68
 82 42 82 42 68 56 c 0,69,70
 65 59 65 59 59 64 c 128,-1,71
 53 69 53 69 50.5 72 c 128,-1,72
 48 75 48 75 44.5 80.5 c 128,-1,73
 41 86 41 86 39.5 93.5 c 128,-1,74
 38 101 38 101 38 112 c 0,75,76
 38 147 38 147 144 208.5 c 128,-1,77
 250 270 250 270 328 288 c 1,78,79
 221 316 221 316 151.5 380.5 c 128,-1,80
 82 445 82 445 82 554 c 0,81,82
 82 702 82 702 190 809 c 128,-1,83
 298 916 298 916 446 916 c 0,84,85
 527 916 527 916 636 868 c 0,86,87
 644 864 644 864 680 870.5 c 128,-1,88
 716 877 716 877 758.5 887 c 128,-1,89
 801 897 801 897 808 898 c 1,90,91
 833 890 833 890 871.5 865 c 128,-1,92
 910 840 910 840 910 824 c 0,93,94
 910 813 910 813 899.5 800.5 c 128,-1,95
 889 788 889 788 878 788 c 2,96,-1
 728 788 l 1,29,30
EndSplineSet
EndChar
StartChar: i
Encoding: 105 105 73
Width: 620
VWidth: 0
Flags: W
LayerCount: 2
Fore
SplineSet
212 618 m 1,0,1
 222 658 222 658 222 684 c 0,2,3
 222 699 222 699 214 712.5 c 128,-1,4
 206 726 206 726 192 726 c 0,5,6
 164 726 164 726 111.5 674 c 128,-1,7
 59 622 59 622 50 604 c 1,8,9
 41 604 41 604 31.5 625 c 128,-1,10
 22 646 22 646 22 658 c 1,11,12
 55 720 55 720 157.5 809 c 128,-1,13
 260 898 260 898 332 898 c 0,14,15
 393 898 393 898 429.5 861 c 128,-1,16
 466 824 466 824 466 756 c 0,17,18
 466 726 466 726 448 636 c 2,19,-1
 374 264 l 1,20,21
 366 232 366 232 366 198 c 0,22,23
 366 182 366 182 373 169 c 128,-1,24
 380 156 380 156 394 156 c 0,25,26
 422 156 422 156 474.5 208 c 128,-1,27
 527 260 527 260 536 278 c 1,28,29
 545 278 545 278 554.5 257 c 128,-1,30
 564 236 564 236 564 224 c 1,31,32
 545 189 545 189 492 134 c 128,-1,33
 439 79 439 79 367.5 31.5 c 128,-1,34
 296 -16 296 -16 246 -16 c 0,35,36
 192 -16 192 -16 156 19 c 128,-1,37
 120 54 120 54 120 126 c 0,38,39
 120 174 120 174 138 246 c 1,40,-1
 212 618 l 1,0,1
426 1374 m 0,41,42
 477 1374 477 1374 509.5 1338.5 c 128,-1,43
 542 1303 542 1303 542 1250 c 0,44,45
 542 1183 542 1183 495 1131.5 c 128,-1,46
 448 1080 448 1080 386 1080 c 0,47,48
 336 1080 336 1080 303 1116.5 c 128,-1,49
 270 1153 270 1153 270 1206 c 0,50,51
 270 1272 270 1272 316.5 1323 c 128,-1,52
 363 1374 363 1374 426 1374 c 0,41,42
EndSplineSet
Substitution2: "'ccmp' Turkish i-1" i.TRK
EndChar
StartChar: j
Encoding: 106 106 74
Width: 572
VWidth: 0
Flags: W
LayerCount: 2
Fore
SplineSet
232 618 m 1,0,1
 242 658 242 658 242 684 c 0,2,3
 242 699 242 699 234 712.5 c 128,-1,4
 226 726 226 726 212 726 c 0,5,6
 184 726 184 726 131.5 674 c 128,-1,7
 79 622 79 622 70 604 c 1,8,9
 61 604 61 604 51.5 625 c 128,-1,10
 42 646 42 646 42 658 c 1,11,12
 75 720 75 720 177.5 809 c 128,-1,13
 280 898 280 898 352 898 c 0,14,15
 413 898 413 898 449.5 861 c 128,-1,16
 486 824 486 824 486 756 c 0,17,18
 486 726 486 726 468 636 c 1,19,20
 422 390 422 390 392 240 c 0,21,22
 369 121 369 121 327 30 c 128,-1,23
 285 -61 285 -61 218 -150 c 0,24,25
 159 -228 159 -228 25.5 -325 c 128,-1,26
 -108 -422 -108 -422 -158 -436 c 1,27,28
 -165 -436 -165 -436 -170.5 -421.5 c 128,-1,29
 -176 -407 -176 -407 -176 -392 c 1,30,31
 -23 -274 -23 -274 42 -152.5 c 128,-1,32
 107 -31 107 -31 152 200 c 2,33,-1
 232 618 l 1,0,1
472 1378 m 0,34,35
 522 1378 522 1378 555 1341.5 c 128,-1,36
 588 1305 588 1305 588 1252 c 0,37,38
 588 1185 588 1185 541 1133.5 c 128,-1,39
 494 1082 494 1082 432 1082 c 0,40,41
 382 1082 382 1082 349 1118.5 c 128,-1,42
 316 1155 316 1155 316 1208 c 0,43,44
 316 1275 316 1275 363 1326.5 c 128,-1,45
 410 1378 410 1378 472 1378 c 0,34,35
EndSplineSet
EndChar
StartChar: k
Encoding: 107 107 75
Width: 1006
VWidth: 0
Flags: W
LayerCount: 2
Back
SplineSet
720 263.940429688 m 0,0,1
 711.6796875 215.651735228 711.6796875 215.651735228 711.6796875 198.033203125 c 0,2,3
 711.6796875 181.855759226 711.6796875 181.855759226 718.999808896 168.927879613 c 0,4,5
 726.319930291 156 726.319930291 156 740.631835938 156 c 0,4,5
 768.696642645 156 768.696642645 156 821.11279492 207.897111258 c 0,6,7
 873.528947195 259.794222516 873.528947195 259.794222516 882.631835938 278 c 1,6,7
 892.060218469 278 892.060218469 278 901.346027203 256.854532878 c 0,8,9
 910.631835938 235.709065755 910.631835938 235.709065755 910.631835938 224 c 1,8,9
 897.337993271 198.976296158 897.337993271 198.976296158 861.164738744 159.463354861 c 0,10,11
 824.991484217 119.950413564 824.991484217 119.950413564 779.461176783 80.5993282445 c 0,12,13
 733.930869349 41.248242925 733.930869349 41.248242925 681.669133276 13.0528324 c 0,14,15
 629.407397202 -15.142578125 629.407397202 -15.142578125 591.080078125 -15.142578125 c 0
EndSplineSet
Fore
SplineSet
752 898 m 3,0,1
 916 898 916 898 916 754 c 0,2,3
 916 707 916 707 884 660 c 128,-1,4
 852 613 852 613 799.5 575.5 c 128,-1,5
 747 538 747 538 689.5 509 c 128,-1,6
 632 480 632 480 572 460 c 1,7,8
 587 417 587 417 607.5 372 c 128,-1,9
 628 327 628 327 656 277 c 128,-1,10
 684 227 684 227 717 195.5 c 128,-1,11
 750 164 750 164 780 164 c 0,12,13
 802 164 802 164 833.5 189 c 128,-1,14
 865 214 865 214 884 236 c 128,-1,15
 903 258 903 258 916 276 c 1,16,17
 929 276 929 276 936.5 256.5 c 128,-1,18
 944 237 944 237 944 224 c 1,19,20
 924 171 924 171 823 81.5 c 128,-1,21
 722 -8 722 -8 642 -8 c 0,22,23
 598 -8 598 -8 555.5 23.5 c 128,-1,24
 513 55 513 55 482 100 c 128,-1,25
 451 145 451 145 421.5 206.5 c 128,-1,26
 392 268 392 268 374.5 316.5 c 128,-1,27
 357 365 357 365 342 416 c 1,28,-1
 260 0 l 1,29,30
 220 -12 220 -12 148 -12 c 0,31,32
 78 -12 78 -12 30 0 c 1,33,34
 227 1017 227 1017 244 1120 c 1,35,36
 262 1206 262 1206 262 1226 c 0,37,38
 262 1264 262 1264 140 1264 c 1,39,40
 136 1270 136 1270 139 1293 c 128,-1,41
 142 1316 142 1316 148 1322 c 1,42,43
 225 1329 225 1329 348 1354 c 128,-1,44
 471 1379 471 1379 508 1392 c 1,45,46
 520 1385 520 1385 520 1354 c 0,47,48
 520 1325 520 1325 494 1204 c 1,49,-1
 396 682 l 1,50,51
 406 704 406 704 439 738.5 c 128,-1,52
 472 773 472 773 519 809.5 c 128,-1,53
 566 846 566 846 629.5 872 c 128,-1,54
 693 898 693 898 752 898 c 3,0,1
602 748 m 3,55,56
 561 748 561 748 514.5 715.5 c 128,-1,57
 468 683 468 683 435 640 c 128,-1,58
 402 597 402 597 380 556 c 128,-1,59
 358 515 358 515 358 496 c 1,60,61
 422 496 422 496 490.5 520 c 128,-1,62
 559 544 559 544 608.5 588.5 c 128,-1,63
 658 633 658 633 658 684 c 0,64,65
 658 706 658 706 645 727 c 128,-1,66
 632 748 632 748 602 748 c 3,55,56
EndSplineSet
EndChar
StartChar: m
Encoding: 109 109 77
Width: 1510
Flags: W
LayerCount: 2
Fore
SplineSet
1034 246 m 1,0,1
 1086 484 l 2,2,3
 1091 504 1091 504 1100.5 563 c 128,-1,4
 1110 622 1110 622 1110 636 c 0,5,6
 1110 653 1110 653 1101.5 665.5 c 128,-1,7
 1093 678 1093 678 1078 678 c 0,8,9
 1049 678 1049 678 996 608.5 c 128,-1,10
 943 539 943 539 888.5 420.5 c 128,-1,11
 834 302 834 302 808 182 c 2,12,-1
 768 0 l 1,13,14
 728 -12 728 -12 656 -12 c 0,15,16
 586 -12 586 -12 538 0 c 1,17,-1
 642 484 l 2,18,19
 647 504 647 504 656.5 563 c 128,-1,20
 666 622 666 622 666 636 c 0,21,22
 666 653 666 653 657.5 665.5 c 128,-1,23
 649 678 649 678 634 678 c 0,24,25
 605 678 605 678 552 608.5 c 128,-1,26
 499 539 499 539 444.5 420.5 c 128,-1,27
 390 302 390 302 364 182 c 2,28,-1
 324 0 l 1,29,30
 284 -12 284 -12 212 -12 c 0,31,32
 142 -12 142 -12 94 0 c 1,33,-1
 212 618 l 1,34,35
 222 658 222 658 222 684 c 0,36,37
 222 699 222 699 214 712.5 c 128,-1,38
 206 726 206 726 192 726 c 0,39,40
 164 726 164 726 111.5 674 c 128,-1,41
 59 622 59 622 50 604 c 1,42,43
 41 604 41 604 31.5 625 c 128,-1,44
 22 646 22 646 22 658 c 1,45,46
 55 720 55 720 157.5 809 c 128,-1,47
 260 898 260 898 332 898 c 0,48,49
 393 898 393 898 429.5 861 c 128,-1,50
 466 824 466 824 466 756 c 0,51,52
 466 726 466 726 448 636 c 1,53,-1
 428 548 l 1,54,55
 459 617 459 617 519 698 c 128,-1,56
 579 779 579 779 649 838.5 c 128,-1,57
 719 898 719 898 766 898 c 0,58,59
 847 898 847 898 878.5 856 c 128,-1,60
 910 814 910 814 910 724 c 0,61,62
 910 678 910 678 896 594 c 1,63,64
 957 704 957 704 1052 801 c 128,-1,65
 1147 898 1147 898 1210 898 c 0,66,67
 1291 898 1291 898 1322.5 856 c 128,-1,68
 1354 814 1354 814 1354 724 c 0,69,70
 1354 698 1354 698 1349 658.5 c 128,-1,71
 1344 619 1344 619 1338.5 589 c 128,-1,72
 1333 559 1333 559 1324.5 517 c 128,-1,73
 1316 475 1316 475 1314 466 c 0,74,75
 1310 447 1310 447 1293 371 c 128,-1,76
 1276 295 1276 295 1270 264 c 0,77,78
 1262 224 1262 224 1262 198 c 0,79,80
 1262 182 1262 182 1269 169 c 128,-1,81
 1276 156 1276 156 1290 156 c 0,82,83
 1318 156 1318 156 1370.5 208 c 128,-1,84
 1423 260 1423 260 1432 278 c 1,85,86
 1441 278 1441 278 1450.5 257 c 128,-1,87
 1460 236 1460 236 1460 224 c 1,88,89
 1441 189 1441 189 1388 134 c 128,-1,90
 1335 79 1335 79 1263.5 31.5 c 128,-1,91
 1192 -16 1192 -16 1142 -16 c 0,92,93
 1088 -16 1088 -16 1052 19 c 128,-1,94
 1016 54 1016 54 1016 126 c 0,95,96
 1016 174 1016 174 1034 246 c 1,0,1
EndSplineSet
EndChar
StartChar: n
Encoding: 110 110 78
Width: 1072
Flags: W
LayerCount: 2
Fore
SplineSet
448 636 m 0,0,1
 446 625 446 625 441 603 c 128,-1,2
 436 581 436 581 432 564 c 128,-1,3
 428 547 428 547 428 548 c 0,4,5
 459 617 459 617 519 698 c 128,-1,6
 579 779 579 779 649 838.5 c 128,-1,7
 719 898 719 898 766 898 c 0,8,9
 847 898 847 898 878.5 856 c 128,-1,10
 910 814 910 814 910 724 c 0,11,12
 910 674 910 674 870 466 c 2,13,-1
 832 264 l 1,14,15
 824 232 824 232 824 198 c 0,16,17
 824 182 824 182 831 169 c 128,-1,18
 838 156 838 156 852 156 c 0,19,20
 880 156 880 156 932.5 208 c 128,-1,21
 985 260 985 260 994 278 c 1,22,23
 1003 278 1003 278 1012.5 257 c 128,-1,24
 1022 236 1022 236 1022 224 c 1,25,26
 1003 189 1003 189 950 134 c 128,-1,27
 897 79 897 79 825.5 31.5 c 128,-1,28
 754 -16 754 -16 704 -16 c 0,29,30
 650 -16 650 -16 614 19 c 128,-1,31
 578 54 578 54 578 126 c 0,32,33
 578 174 578 174 596 246 c 1,34,-1
 642 484 l 1,35,36
 647 504 647 504 656.5 563 c 128,-1,37
 666 622 666 622 666 636 c 0,38,39
 666 653 666 653 657.5 665.5 c 128,-1,40
 649 678 649 678 634 678 c 0,41,42
 605 678 605 678 552 608.5 c 128,-1,43
 499 539 499 539 444.5 420.5 c 128,-1,44
 390 302 390 302 364 182 c 2,45,-1
 324 0 l 1,46,47
 284 -12 284 -12 212 -12 c 0,48,49
 142 -12 142 -12 94 0 c 1,50,-1
 212 618 l 1,51,52
 222 658 222 658 222 684 c 0,53,54
 222 699 222 699 214 712.5 c 128,-1,55
 206 726 206 726 192 726 c 0,56,57
 164 726 164 726 111.5 674 c 128,-1,58
 59 622 59 622 50 604 c 1,59,60
 41 604 41 604 31.5 625 c 128,-1,61
 22 646 22 646 22 658 c 1,62,63
 55 720 55 720 157.5 809 c 128,-1,64
 260 898 260 898 332 898 c 0,65,66
 393 898 393 898 429.5 861 c 128,-1,67
 466 824 466 824 466 756 c 0,68,69
 466 726 466 726 448 636 c 0,0,1
EndSplineSet
EndChar
StartChar: q
Encoding: 113 113 81
Width: 908
Flags: W
LayerCount: 2
Fore
SplineSet
714 -422 m 1,0,1
 700 -422 700 -422 632.5 -421 c 128,-1,2
 565 -420 565 -420 552 -420 c 0,3,4
 433 -420 433 -420 248 -440 c 1,5,6
 244 -437 244 -437 246 -406.5 c 128,-1,7
 248 -376 248 -376 256 -376 c 0,8,9
 304 -371 304 -371 338.5 -350 c 128,-1,10
 373 -329 373 -329 380 -292 c 2,11,-1
 468 168 l 1,12,13
 428 104 428 104 348.5 45 c 128,-1,14
 269 -14 269 -14 190 -14 c 0,15,16
 108 -14 108 -14 65 58.5 c 128,-1,17
 22 131 22 131 22 228 c 0,18,19
 22 346 22 346 77.5 468.5 c 128,-1,20
 133 591 133 591 220.5 685 c 128,-1,21
 308 779 308 779 421.5 838.5 c 128,-1,22
 535 898 535 898 644 898 c 0,23,24
 766 898 766 898 838 854 c 1,25,-1
 728 278 l 1,26,-1
 624 -266 l 1,27,28
 620 -294 620 -294 620 -308 c 0,29,30
 620 -335 620 -335 640.5 -348.5 c 128,-1,31
 661 -362 661 -362 722 -362 c 1,32,33
 726 -364 726 -364 726 -376 c 128,-1,34
 726 -388 726 -388 722.5 -403.5 c 128,-1,35
 719 -419 719 -419 714 -422 c 1,0,1
574 682 m 0,36,37
 576 701 576 701 576 724.5 c 128,-1,38
 576 748 576 748 562.5 768 c 128,-1,39
 549 788 549 788 524 788 c 0,40,41
 459 788 459 788 400.5 717.5 c 128,-1,42
 342 647 342 647 308 537.5 c 128,-1,43
 274 428 274 428 274 314 c 0,44,45
 274 237 274 237 294 199.5 c 128,-1,46
 314 162 314 162 342 162 c 0,47,48
 393 162 393 162 459.5 287.5 c 128,-1,49
 526 413 526 413 552 550 c 0,50,51
 564 616 564 616 574 682 c 0,36,37
EndSplineSet
EndChar
StartChar: x
Encoding: 120 120 88
Width: 1022
VWidth: 0
Flags: W
LayerCount: 2
Fore
SplineSet
408 898 m 0,0,1
 477 898 477 898 508 786 c 2,2,-1
 562 594 l 1,3,-1
 642 750 l 1,4,5
 722 898 722 898 834 898 c 0,6,7
 873 898 873 898 916 886 c 128,-1,8
 959 874 959 874 978 856 c 1,9,10
 986 841 986 841 994 811.5 c 128,-1,11
 1002 782 1002 782 1002 760 c 0,12,13
 1002 715 1002 715 972 676.5 c 128,-1,14
 942 638 942 638 892 638 c 0,15,16
 839 638 839 638 802 696 c 1,17,18
 772 746 772 746 758 746 c 0,19,20
 743 746 743 746 729 730 c 128,-1,21
 715 714 715 714 694 680 c 2,22,-1
 590 502 l 1,23,-1
 670 236 l 2,24,25
 695 156 695 156 732 156 c 0,26,27
 760 156 760 156 812.5 208 c 128,-1,28
 865 260 865 260 874 278 c 1,29,30
 883 278 883 278 892.5 257 c 128,-1,31
 902 236 902 236 902 224 c 1,32,33
 870 164 870 164 762.5 74 c 128,-1,34
 655 -16 655 -16 582 -16 c 0,35,36
 535 -16 535 -16 507.5 18.5 c 128,-1,37
 480 53 480 53 458 116 c 1,38,39
 458 125 458 125 410 286 c 1,40,-1
 332 134 l 1,41,42
 252 -14 252 -14 140 -14 c 0,43,44
 58 -14 58 -14 6 22 c 1,45,46
 -5 32 -5 32 -14.5 59.5 c 128,-1,47
 -24 87 -24 87 -24 118 c 0,48,49
 -24 165 -24 165 4 205.5 c 128,-1,50
 32 246 32 246 82 246 c 0,51,52
 135 246 135 246 172 188 c 0,53,54
 173 186 173 186 179.5 176.5 c 128,-1,55
 186 167 186 167 189 162.5 c 128,-1,56
 192 158 192 158 197.5 151 c 128,-1,57
 203 144 203 144 207.5 141 c 128,-1,58
 212 138 212 138 216 138 c 0,59,60
 249 138 249 138 288 208 c 2,61,-1
 382 378 l 1,62,-1
 308 630 l 1,63,64
 281 712 281 712 242 712 c 0,65,66
 223 712 223 712 178.5 666 c 128,-1,67
 134 620 134 620 126 604 c 1,68,69
 117 604 117 604 107.5 625 c 128,-1,70
 98 646 98 646 98 658 c 1,71,72
 133 722 133 722 234.5 810 c 128,-1,73
 336 898 336 898 408 898 c 0,0,1
EndSplineSet
EndChar
StartChar: z
Encoding: 122 122 90
Width: 882
Flags: W
LayerCount: 2
Back
SplineSet
240 704 m 0,0,1
 271 704 271 704 310.5 685 c 0,2,3
 350 666 350 666 399.5 647 c 0,4,5
 449 628 449 628 506 628 c 0
EndSplineSet
Fore
SplineSet
340 900 m 0,0,1
 431 900 431 900 530 856 c 0,2,3
 616 818 616 818 696 818 c 0,4,5
 751 818 751 818 836 898 c 1,6,7
 842 898 842 898 847.5 897 c 128,-1,8
 853 896 853 896 857 893 c 128,-1,9
 861 890 861 890 864 887.5 c 128,-1,10
 867 885 867 885 869 880.5 c 128,-1,11
 871 876 871 876 872.5 873 c 128,-1,12
 874 870 874 870 875 864.5 c 128,-1,13
 876 859 876 859 876.5 856.5 c 128,-1,14
 877 854 877 854 877.5 848.5 c 128,-1,15
 878 843 878 843 878 842 c 0,16,17
 878 830 878 830 726.5 684 c 128,-1,18
 575 538 575 538 420 394.5 c 128,-1,19
 265 251 265 251 264 250 c 1,20,21
 304 266 304 266 348 266 c 0,22,23
 438 266 438 266 498 236 c 0,24,25
 501 234 501 234 519.5 225.5 c 128,-1,26
 538 217 538 217 547.5 212.5 c 128,-1,27
 557 208 557 208 573 202 c 128,-1,28
 589 196 589 196 602.5 193 c 128,-1,29
 616 190 616 190 628 190 c 0,30,31
 649 190 649 190 669.5 204 c 128,-1,32
 690 218 690 218 701.5 232.5 c 128,-1,33
 713 247 713 247 727 268 c 128,-1,34
 741 289 741 289 742 290 c 1,35,36
 756 290 756 290 766 273.5 c 128,-1,37
 776 257 776 257 778 242 c 1,38,39
 762 210 762 210 733.5 170 c 128,-1,40
 705 130 705 130 668 89.5 c 128,-1,41
 631 49 631 49 587 21.5 c 128,-1,42
 543 -6 543 -6 506 -6 c 0,43,44
 415 -6 415 -6 316 38 c 0,45,46
 230 76 230 76 150 76 c 0,47,48
 95 76 95 76 10 -4 c 1,49,50
 4 -4 4 -4 -1.5 -3 c 128,-1,51
 -7 -2 -7 -2 -11 1 c 128,-1,52
 -15 4 -15 4 -18 6.5 c 128,-1,53
 -21 9 -21 9 -23 13.5 c 128,-1,54
 -25 18 -25 18 -26.5 21 c 128,-1,55
 -28 24 -28 24 -29 29.5 c 128,-1,56
 -30 35 -30 35 -30.5 37.5 c 128,-1,57
 -31 40 -31 40 -31.5 45.5 c 128,-1,58
 -32 51 -32 51 -32 52 c 0,59,60
 -32 66 -32 66 120.5 212 c 128,-1,61
 273 358 273 358 427 500 c 128,-1,62
 581 642 581 642 582 644 c 1,63,64
 542 628 542 628 498 628 c 0,65,66
 408 628 408 628 348 658 c 0,67,68
 345 660 345 660 326.5 668.5 c 128,-1,69
 308 677 308 677 298.5 681.5 c 128,-1,70
 289 686 289 686 273 692 c 128,-1,71
 257 698 257 698 243.5 701 c 128,-1,72
 230 704 230 704 218 704 c 0,73,74
 197 704 197 704 176.5 690 c 128,-1,75
 156 676 156 676 144.5 661.5 c 128,-1,76
 133 647 133 647 119 626 c 128,-1,77
 105 605 105 605 104 604 c 1,78,79
 90 604 90 604 80 620.5 c 128,-1,80
 70 637 70 637 68 652 c 1,81,82
 84 684 84 684 112.5 724 c 128,-1,83
 141 764 141 764 178 804.5 c 128,-1,84
 215 845 215 845 259 872.5 c 128,-1,85
 303 900 303 900 340 900 c 0,0,1
EndSplineSet
EndChar
StartChar: bar
Encoding: 124 124 92
Width: 400
Flags: W
LayerCount: 2
Fore
SplineSet
344 1514 m 1,0,1
 369 1532 369 1532 406 1532 c 0,2,3
 420 1532 420 1532 429.5 1527 c 128,-1,4
 439 1522 439 1522 438 1512 c 2,5,-1
 98 -232 l 1,6,7
 73 -250 73 -250 28 -250 c 0,8,9
 16 -250 16 -250 9 -243.5 c 128,-1,10
 2 -237 2 -237 4 -230 c 0,11,12
 204 837 204 837 344 1514 c 1,0,1
EndSplineSet
EndChar
StartChar: braceright
Encoding: 125 125 93
Width: 496
Flags: W
LayerCount: 2
Fore
SplineSet
274 1480 m 1,0,1
 307 1472 307 1472 345.5 1440.5 c 128,-1,2
 384 1409 384 1409 419 1362 c 128,-1,3
 454 1315 454 1315 470.5 1247 c 128,-1,4
 487 1179 487 1179 474 1108 c 1,5,6
 460 1041 460 1041 412 956 c 0,7,8
 410 953 410 953 399.5 933 c 128,-1,9
 389 913 389 913 386 907.5 c 128,-1,10
 383 902 383 902 374.5 885 c 128,-1,11
 366 868 366 868 362.5 858.5 c 128,-1,12
 359 849 359 849 354.5 835 c 128,-1,13
 350 821 350 821 348 808 c 0,14,15
 334 735 334 735 369 687 c 128,-1,16
 404 639 404 639 464 618 c 1,17,18
 468 611 468 611 464 596 c 0,19,20
 459 577 459 577 456 574 c 1,21,22
 387 553 387 553 333.5 505 c 128,-1,23
 280 457 280 457 266 384 c 0,24,25
 256 333 256 333 272 242 c 1,26,27
 287 150 287 150 274 84 c 0,28,29
 261 13 261 13 217.5 -55 c 128,-1,30
 174 -123 174 -123 121 -170 c 128,-1,31
 68 -217 68 -217 17 -248.5 c 128,-1,32
 -34 -280 -34 -280 -70 -288 c 1,33,34
 -79 -288 -79 -288 -82.5 -272 c 128,-1,35
 -86 -256 -86 -256 -80 -244 c 1,36,37
 -26 -217 -26 -217 34.5 -150.5 c 128,-1,38
 95 -84 95 -84 110 -6 c 0,39,40
 125 73 125 73 106 158 c 1,41,42
 88 250 88 250 104 328 c 0,43,44
 115 382 115 382 145 432 c 128,-1,45
 175 482 175 482 211 515.5 c 128,-1,46
 247 549 247 549 281.5 570.5 c 128,-1,47
 316 592 316 592 340 596 c 1,48,49
 287 605 287 605 237.5 683.5 c 128,-1,50
 188 762 188 762 208 864 c 0,51,52
 227 957 227 957 280 1044 c 1,53,54
 330 1129 330 1129 344 1198 c 0,55,56
 359 1276 359 1276 324 1342.5 c 128,-1,57
 289 1409 289 1409 246 1436 c 1,58,59
 245 1448 245 1448 255 1464 c 128,-1,60
 265 1480 265 1480 274 1480 c 1,0,1
EndSplineSet
EndChar
StartChar: yen
Encoding: 165 165 100
Width: 1262
Flags: W
LayerCount: 2
Fore
SplineSet
278 438 m 2,0,1
 268 438 268 438 268 452 c 0,2,3
 268 493 268 493 298 526 c 1,4,-1
 918 526 l 2,5,6
 924 526 924 526 924 512 c 0,7,8
 924 462 924 462 898 438 c 1,9,-1
 278 438 l 2,0,1
244 260 m 2,10,11
 234 260 234 260 234 274 c 0,12,13
 234 315 234 315 264 348 c 1,14,-1
 884 348 l 2,15,16
 890 348 890 348 890 334 c 0,17,18
 890 284 890 284 864 260 c 1,19,-1
 244 260 l 2,10,11
424 282 m 2,20,-1
 476 550 l 2,21,22
 478 565 478 565 472 590 c 0,23,24
 460 637 460 637 425.5 750 c 128,-1,25
 391 863 391 863 362.5 952.5 c 2,26,-1
 334 1042 l 2,27,28
 326 1066 326 1066 317 1097 c 128,-1,29
 308 1128 308 1128 300 1148 c 0,30,31
 288 1179 288 1179 253.5 1194.5 c 128,-1,32
 219 1210 219 1210 190 1212 c 1,33,34
 186 1222 186 1222 190 1248.5 c 128,-1,35
 194 1275 194 1275 202 1284 c 1,36,37
 321 1270 321 1270 460 1270 c 0,38,39
 590 1270 590 1270 716 1284 c 1,40,41
 721 1275 721 1275 716 1248.5 c 128,-1,42
 711 1222 711 1222 702 1212 c 0,43,44
 701 1212 701 1212 692 1211.5 c 128,-1,45
 683 1211 683 1211 678 1210.5 c 128,-1,46
 673 1210 673 1210 662.5 1208.5 c 128,-1,47
 652 1207 652 1207 645 1205 c 128,-1,48
 638 1203 638 1203 628.5 1200.5 c 128,-1,49
 619 1198 619 1198 612 1194.5 c 128,-1,50
 605 1191 605 1191 598.5 1186 c 128,-1,51
 592 1181 592 1181 588 1174.5 c 128,-1,52
 584 1168 584 1168 582 1160 c 0,53,54
 581 1156 581 1156 582 1152 c 128,-1,55
 583 1148 583 1148 586 1141.5 c 128,-1,56
 589 1135 589 1135 590 1130 c 2,57,-1
 720 700 l 1,58,59
 725 693 725 693 826 832 c 128,-1,60
 927 971 927 971 1032 1122 c 0,61,62
 1045 1142 1045 1142 1048 1166 c 1,63,64
 1054 1201 1054 1201 924 1212 c 1,65,66
 920 1222 920 1222 925 1248.5 c 128,-1,67
 930 1275 930 1275 938 1284 c 1,68,69
 1085 1270 1085 1270 1138 1270 c 0,70,71
 1184 1270 1184 1270 1251.5 1276.5 c 128,-1,72
 1319 1283 1319 1283 1344 1284 c 1,73,74
 1349 1275 1349 1275 1344 1248.5 c 128,-1,75
 1339 1222 1339 1222 1330 1212 c 0,76,77
 1329 1212 1329 1212 1318.5 1211 c 128,-1,78
 1308 1210 1308 1210 1302 1209.5 c 128,-1,79
 1296 1209 1296 1209 1283 1207.5 c 128,-1,80
 1270 1206 1270 1206 1261.5 1204 c 128,-1,81
 1253 1202 1253 1202 1240.5 1198 c 128,-1,82
 1228 1194 1228 1194 1219 1189.5 c 128,-1,83
 1210 1185 1210 1185 1201 1178.5 c 128,-1,84
 1192 1172 1192 1172 1186 1164 c 0,85,86
 1135 1102 1135 1102 964 877.5 c 128,-1,87
 793 653 793 653 744 578 c 1,88,89
 728 556 728 556 726 542 c 2,90,-1
 676 282 l 1,91,92
 646 144 646 144 656 98 c 1,93,94
 660 73 660 73 764 64 c 1,95,96
 768 54 768 54 763 27.5 c 128,-1,97
 758 1 758 1 750 -8 c 1,98,99
 631 6 631 6 494 6 c 0,100,101
 364 6 364 6 238 -8 c 1,102,103
 233 1 233 1 238 27.5 c 128,-1,104
 243 54 243 54 252 64 c 1,105,106
 361 73 361 73 374 98 c 0,107,108
 380 109 380 109 385.5 122 c 128,-1,109
 391 135 391 135 396.5 156.5 c 128,-1,110
 402 178 402 178 404.5 190.5 c 128,-1,111
 407 203 407 203 414 236 c 128,-1,112
 421 269 421 269 424 282 c 2,20,-1
EndSplineSet
EndChar
StartChar: brokenbar
Encoding: 166 166 101
Width: 408
Flags: W
LayerCount: 2
Fore
SplineSet
346 1514 m 1,0,1
 371 1532 371 1532 408 1532 c 0,2,3
 422 1532 422 1532 431.5 1527 c 128,-1,4
 441 1522 441 1522 440 1512 c 2,5,-1
 294 768 l 1,6,7
 269 750 269 750 224 750 c 0,8,9
 212 750 212 750 205 756.5 c 128,-1,10
 198 763 198 763 200 770 c 0,11,12
 216 835 216 835 346 1514 c 1,0,1
152 514 m 1,13,14
 177 532 177 532 214 532 c 0,15,16
 228 532 228 532 237.5 527 c 128,-1,17
 247 522 247 522 246 512 c 2,18,-1
 100 -232 l 1,19,20
 75 -250 75 -250 30 -250 c 0,21,22
 18 -250 18 -250 11 -243.5 c 128,-1,23
 4 -237 4 -237 6 -230 c 0,24,25
 22 -165 22 -165 152 514 c 1,13,14
EndSplineSet
EndChar
StartChar: section
Encoding: 167 167 102
Width: 876
UnlinkRmOvrlpSave: 1
Flags: W
LayerCount: 2
Fore
SplineSet
751 1306 m 0,0,1
 601 1306 601 1306 473.5 1201.5 c 128,-1,2
 346 1097 346 1097 321 972 c 1,3,4
 319 946 319 946 317 927.5 c 128,-1,5
 315 909 315 909 322.5 885 c 128,-1,6
 330 861 330 861 335.5 845 c 128,-1,7
 341 829 341 829 354.5 807 c 128,-1,8
 368 785 368 785 377.5 770 c 128,-1,9
 387 755 387 755 403 735 c 128,-1,10
 419 715 419 715 430.5 702 c 128,-1,11
 442 689 442 689 458 670 c 128,-1,12
 474 651 474 651 483 640 c 0,13,14
 505 613 505 613 518 596 c 128,-1,15
 531 579 531 579 550.5 550.5 c 128,-1,16
 570 522 570 522 581 500.5 c 128,-1,17
 592 479 592 479 604 448.5 c 128,-1,18
 616 418 616 418 620.5 390 c 128,-1,19
 625 362 625 362 625.5 328.5 c 128,-1,20
 626 295 626 295 619 260 c 0,21,22
 607 199 607 199 583 161.5 c 128,-1,23
 559 124 559 124 511 74 c 1,24,25
 463 30 463 30 443 -6 c 0,26,27
 437 -16 437 -16 434.5 -25.5 c 128,-1,28
 432 -35 432 -35 430.5 -47.5 c 128,-1,29
 429 -60 429 -60 427 -68 c 1,30,31
 473 -38 473 -38 545 31.5 c 128,-1,32
 617 101 617 101 688 198.5 c 128,-1,33
 759 296 759 296 773 368 c 0,34,35
 781 407 781 407 780.5 443.5 c 128,-1,36
 780 480 780 480 777.5 506 c 128,-1,37
 775 532 775 532 760 566.5 c 128,-1,38
 745 601 745 601 737 618 c 128,-1,39
 729 635 729 635 703 670.5 c 128,-1,40
 677 706 677 706 668 717 c 128,-1,41
 659 728 659 728 627 768 c 0,42,43
 590 813 590 813 566 845.5 c 128,-1,44
 542 878 542 878 508.5 928.5 c 128,-1,45
 475 979 475 979 461 1022.5 c 128,-1,46
 447 1066 447 1066 453 1098 c 0,47,48
 463 1150 463 1150 513 1178 c 128,-1,49
 563 1206 563 1206 615 1206 c 0,50,51
 660 1206 660 1206 683 1180 c 0,52,53
 709.237070981 1150.01477602 709.237070981 1150.01477602 728.395481376 1143.56930592 c 0,54,55
 739.004828197 1140 739.004828197 1140 751 1140 c 0,56,57
 824 1140 824 1140 839 1220 c 1,58,59
 845 1259 845 1259 839 1280 c 1,60,61
 787 1306 787 1306 751 1306 c 0,0,1
375 1046 m 1,62,63
 423 1092 423 1092 443 1128 c 0,64,65
 449 1138 449 1138 451.5 1147.5 c 128,-1,66
 454 1157 454 1157 455.5 1169.5 c 128,-1,67
 457 1182 457 1182 459 1190 c 1,68,69
 413 1160 413 1160 341 1090.5 c 128,-1,70
 269 1021 269 1021 198 923.5 c 128,-1,71
 127 826 127 826 113 754 c 0,72,73
 105 715 105 715 105.5 678.5 c 128,-1,74
 106 642 106 642 108.5 616 c 128,-1,75
 111 590 111 590 126 555.5 c 128,-1,76
 141 521 141 521 149 504 c 128,-1,77
 157 487 157 487 183 451.5 c 128,-1,78
 209 416 209 416 218 405 c 128,-1,79
 227 394 227 394 259 354 c 0,80,81
 296 309 296 309 320 276.5 c 128,-1,82
 344 244 344 244 377.5 193.5 c 128,-1,83
 411 143 411 143 425 99.5 c 128,-1,84
 439 56 439 56 433 24 c 0,85,86
 423 -28 423 -28 373 -56 c 128,-1,87
 323 -84 323 -84 271 -84 c 0,88,89
 224 -84 224 -84 207 -62 c 0,90,91
 173 -18 173 -18 137 -18 c 0,92,93
 99 -18 99 -18 75.5 -43 c 128,-1,94
 52 -68 52 -68 45 -104 c 0,95,96
 43 -112 43 -112 43.5 -129 c 128,-1,97
 44 -146 44 -146 47 -156 c 1,98,99
 94 -184 94 -184 135 -184 c 0,100,101
 285 -184 285 -184 412.5 -79.5 c 128,-1,102
 540 25 540 25 565 150 c 1,103,104
 567 176 567 176 569 194.5 c 128,-1,105
 571 213 571 213 563.5 237 c 128,-1,106
 556 261 556 261 550.5 277 c 128,-1,107
 545 293 545 293 531.5 315 c 128,-1,108
 518 337 518 337 508.5 352 c 128,-1,109
 499 367 499 367 483 387 c 128,-1,110
 467 407 467 407 455.5 420 c 128,-1,111
 444 433 444 433 428 452 c 128,-1,112
 412 471 412 471 403 482 c 0,113,114
 382 508 382 508 368 526 c 128,-1,115
 354 544 354 544 335 571.5 c 128,-1,116
 316 599 316 599 304.5 621.5 c 128,-1,117
 293 644 293 644 281.5 674 c 128,-1,118
 270 704 270 704 265.5 732 c 128,-1,119
 261 760 261 760 260.5 793.5 c 128,-1,120
 260 827 260 827 267 862 c 0,121,122
 279 923 279 923 301.5 958 c 128,-1,123
 324 993 324 993 375 1046 c 1,62,63
EndSplineSet
EndChar
StartChar: copyright
Encoding: 169 169 104
Width: 1232
Flags: W
LayerCount: 2
Fore
SplineSet
683 910 m 0,0,1
 705 910 705 910 732.5 905 c 128,-1,2
 760 900 760 900 795.5 890 c 128,-1,3
 831 880 831 880 841 878 c 1,4,5
 841 876 841 876 846.5 818 c 128,-1,6
 852 760 852 760 851 754 c 0,7,8
 851 751 851 751 839.5 746.5 c 128,-1,9
 828 742 828 742 821 742 c 0,10,11
 813 742 813 742 811 744 c 1,12,13
 809 761 809 761 803.5 776.5 c 128,-1,14
 798 792 798 792 785.5 812.5 c 128,-1,15
 773 833 773 833 746 845.5 c 128,-1,16
 719 858 719 858 681 858 c 0,17,18
 606 858 606 858 560.5 788 c 128,-1,19
 515 718 515 718 503 620 c 0,20,21
 490 517 490 517 522 446.5 c 128,-1,22
 554 376 554 376 631 376 c 0,23,24
 696 376 696 376 733 410 c 0,25,26
 749 424 749 424 765.5 449 c 128,-1,27
 782 474 782 474 789.5 490 c 128,-1,28
 797 506 797 506 799 512 c 1,29,30
 828 512 828 512 833 504 c 1,31,32
 830 487 830 487 812.5 434 c 128,-1,33
 795 381 795 381 787 378 c 0,34,35
 776 374 776 374 748 362.5 c 128,-1,36
 720 351 720 351 701.5 344.5 c 128,-1,37
 683 338 683 338 655 332 c 128,-1,38
 627 326 627 326 603 326 c 0,39,40
 483 326 483 326 418 403 c 128,-1,41
 353 480 353 480 369 610 c 128,-1,42
 385 740 385 740 477.5 825 c 128,-1,43
 570 910 570 910 683 910 c 0,0,1
209 620 m 128,-1,45
 194 496 194 496 238 391 c 128,-1,46
 282 286 282 286 372 225 c 128,-1,47
 462 164 462 164 577 164 c 128,-1,48
 692 164 692 164 797.5 225 c 128,-1,49
 903 286 903 286 972.5 391 c 128,-1,50
 1042 496 1042 496 1057 620 c 128,-1,51
 1072 744 1072 744 1028 849 c 128,-1,52
 984 954 984 954 894 1015 c 128,-1,53
 804 1076 804 1076 689 1076 c 128,-1,54
 574 1076 574 1076 468.5 1015 c 128,-1,55
 363 954 363 954 293.5 849 c 128,-1,44
 224 744 224 744 209 620 c 128,-1,45
701 1168 m 128,-1,57
 839 1168 839 1168 947.5 1095 c 128,-1,58
 1056 1022 1056 1022 1109 896 c 128,-1,59
 1162 770 1162 770 1143 622 c 0,60,61
 1124 473 1124 473 1040.5 347.5 c 128,-1,62
 957 222 957 222 831 149 c 128,-1,63
 705 76 705 76 567 76 c 128,-1,64
 429 76 429 76 321 149 c 128,-1,65
 213 222 213 222 160.5 348 c 128,-1,66
 108 474 108 474 127 622 c 0,67,68
 146 771 146 771 229 896.5 c 128,-1,69
 312 1022 312 1022 437.5 1095 c 128,-1,56
 563 1168 563 1168 701 1168 c 128,-1,57
EndSplineSet
EndChar
StartChar: ordfeminine
Encoding: 170 170 105
Width: 798
Flags: W
LayerCount: 2
Fore
SplineSet
532 492 m 0,0,1
 491 492 491 492 464.5 512 c 128,-1,2
 438 532 438 532 438 574 c 0,3,4
 438 582 438 582 442 602 c 0,5,6
 443 606 443 606 444 614.5 c 128,-1,7
 445 623 445 623 446 626 c 1,8,9
 419 581 419 581 357.5 537.5 c 128,-1,10
 296 494 296 494 236 494 c 128,-1,11
 176 494 176 494 143 540 c 128,-1,12
 110 586 110 586 110 658 c 0,13,14
 110 745 110 745 154.5 830 c 128,-1,15
 199 915 199 915 266 974.5 c 128,-1,16
 333 1034 333 1034 412 1071 c 128,-1,17
 491 1108 491 1108 560 1108 c 0,18,19
 598 1108 598 1108 645.5 1100 c 128,-1,20
 693 1092 693 1092 716 1084 c 1,21,-1
 628 698 l 2,22,23
 628 695 628 695 625 676 c 128,-1,24
 622 657 622 657 622 654 c 0,25,26
 622 626 622 626 644 626 c 0,27,28
 665 626 665 626 703.5 661 c 128,-1,29
 742 696 742 696 748 708 c 1,30,31
 756 703 756 703 761.5 685 c 128,-1,32
 767 667 767 667 764 654 c 1,33,34
 742 613 742 613 664 552.5 c 128,-1,35
 586 492 586 492 532 492 c 0,0,1
474 1020 m 0,36,37
 400 1020 400 1020 347 925 c 128,-1,38
 294 830 294 830 294 708 c 0,39,40
 294 612 294 612 346 612 c 0,41,42
 383 612 383 612 429 695.5 c 128,-1,43
 475 779 475 779 498 882 c 2,44,-1
 526 1004 l 1,45,46
 510 1020 510 1020 474 1020 c 0,36,37
EndSplineSet
EndChar
StartChar: guillemotleft
Encoding: 171 171 106
Width: 956
Flags: W
LayerCount: 2
Fore
SplineSet
791 184 m 1,0,1
 783 170 783 170 764.5 159 c 128,-1,2
 746 148 746 148 735 146 c 1,3,-1
 719 166.5 l 2,4,5
 703 187 703 187 676 217.5 c 128,-1,6
 649 248 649 248 611.5 286.5 c 128,-1,7
 574 325 574 325 519 373.5 c 128,-1,8
 464 422 464 422 405 466 c 1,9,10
 396 479 396 479 399 496 c 0,11,12
 402 511 402 511 417 526 c 1,13,14
 461 551 461 551 504 578 c 128,-1,15
 547 605 547 605 583.5 629.5 c 128,-1,16
 620 654 620 654 654 677.5 c 128,-1,17
 688 701 688 701 716 722 c 128,-1,18
 744 743 744 743 767.5 761 c 128,-1,19
 791 779 791 779 810 794.5 c 128,-1,20
 829 810 829 810 841.5 820.5 c 128,-1,21
 854 831 854 831 862 838 c 128,-1,22
 870 845 870 845 871 846 c 1,23,24
 881 844 881 844 895.5 832.5 c 128,-1,25
 910 821 910 821 913 808 c 1,26,27
 898 790 898 790 777 666 c 128,-1,28
 656 542 656 542 603 496 c 1,29,30
 627 464 627 464 673 387.5 c 128,-1,31
 719 311 719 311 752.5 252.5 c 128,-1,32
 786 194 786 194 791 184 c 1,0,1
445 184 m 1,33,34
 437 171 437 171 417.5 159.5 c 128,-1,35
 398 148 398 148 387 146 c 1,36,-1
 371 166.5 l 2,37,38
 355 187 355 187 328.5 217.5 c 128,-1,39
 302 248 302 248 264.5 286.5 c 128,-1,40
 227 325 227 325 172.5 373.5 c 128,-1,41
 118 422 118 422 59 466 c 1,42,43
 48 481 48 481 51 496 c 128,-1,44
 54 511 54 511 69 526 c 1,45,46
 113 551 113 551 156 578 c 128,-1,47
 199 605 199 605 235.5 629.5 c 128,-1,48
 272 654 272 654 306 677.5 c 128,-1,49
 340 701 340 701 368 722 c 128,-1,50
 396 743 396 743 419.5 761 c 128,-1,51
 443 779 443 779 462 794.5 c 128,-1,52
 481 810 481 810 493.5 820.5 c 128,-1,53
 506 831 506 831 514 838 c 128,-1,54
 522 845 522 845 523 846 c 1,55,56
 533 844 533 844 547.5 832.5 c 128,-1,57
 562 821 562 821 565 808 c 1,58,59
 550 790 550 790 429 666 c 128,-1,60
 308 542 308 542 255 496 c 1,61,62
 279 464 279 464 325.5 387.5 c 128,-1,63
 372 311 372 311 406 252.5 c 128,-1,64
 440 194 440 194 445 184 c 1,33,34
EndSplineSet
EndChar
StartChar: uni00B2
Encoding: 178 178 112
Width: 678
Flags: W
LayerCount: 2
Back
SplineSet
748.200195312 1105.79980469 m 0,0,1
 748.200195312 1033.29492382 748.200195312 1033.29492382 705.06206609 970.967113752 c 0,2,3
 661.923936868 908.639303686 661.923936868 908.639303686 579.559570312 837.400390625 c 0,2,3
 556.70484371 817.632242835 556.70484371 817.632242835 531.04220799 795.963549951 c 0,4,5
 505.379572271 774.294857066 505.379572271 774.294857066 483.192320754 755.911959684 c 0,6,7
 461.005069237 737.529062301 461.005069237 737.529062301 439.289543085 719.704530271 c 0,8,9
 417.574016933 701.879998241 417.574016933 701.879998241 400.745094989 688.189502732 c 0,10,11
 383.916173044 674.499007224 383.916173044 674.499007224 370.963171912 663.933165475 c 0,12,13
 358.010170779 653.367323727 358.010170779 653.367323727 351.354993859 647.78375952 c 0,14,15
 344.699816939 642.200195312 344.699816939 642.200195312 345.200195312 642.200195312 c 2,4,-1
 558.48046875 642.200195312 l 2,5,6
 602.903328149 642.200195312 602.903328149 642.200195312 626.459745773 664.272984792 c 0,7,8
 650.016163397 686.345774271 650.016163397 686.345774271 663.879882812 722.719726562 c 0,7,8
 668.062918527 733.700195312 668.062918527 733.700195312 682.48046875 733.700195312 c 0,9,10
 691.986769246 733.700195312 691.986769246 733.700195312 703.559570312 725.16015625 c 1,11,12
 701.200363821 719.633605556 701.200363821 719.633605556 605.599609375 508 c 1,13,14
 184 508 l 2,15,16
 180.105088013 508 180.105088013 508 177.264612613 516.13072355 c 0,17,18
 174.424137212 524.2614471 174.424137212 524.2614471 175.3203125 534.83984375 c 1,17,18
 228.328931985 582.25278847 228.328931985 582.25278847 315.866463683 673.022224572 c 0,19,20
 403.403995381 763.791660673 403.403995381 763.791660673 454.3203125 825.200195312 c 0,19,20
 572.120117188 967.270725081 572.120117188 967.270725081 572.120117188 1078.95996094 c 0,21,22
 572.120117188 1127.87459043 572.120117188 1127.87459043 545.167393877 1157.70731474 c 0,23,24
 518.214670567 1187.54003906 518.214670567 1187.54003906 469.200195312 1187.54003906 c 0,23,24
 444.292081776 1187.54003906 444.292081776 1187.54003906 419.387974474 1177.47991728 c 0,25,26
 394.483867172 1167.41979551 394.483867172 1167.41979551 375.850535658 1152.02191377 c 0,27,28
 357.217204143 1136.62403204 357.217204143 1136.62403204 347.428959582 1126.88812041 c 0,29,30
 337.640715021 1117.15220878 337.640715021 1117.15220878 331.559570312 1109.45996094 c 1,25,26
 323.655039428 1109.45996094 323.655039428 1109.45996094 316.331350935 1117.69496487 c 0,27,28
 309.007662441 1125.92996881 309.007662441 1125.92996881 308 1133.86035156 c 1,27,28
 313.881198356 1147.01146397 313.881198356 1147.01146397 336.82843872 1171.60374782 c 0,29,30
 359.775679084 1196.19603167 359.775679084 1196.19603167 393.212714234 1223.7021909 c 0,31,32
 426.649749384 1251.20835013 426.649749384 1251.20835013 472.221047363 1271.22429225 c 0,33,34
 517.792345342 1291.24023438 517.792345342 1291.24023438 559.719726562 1291.24023438 c 0,29,30
 633.073167891 1291.24023438 633.073167891 1291.24023438 690.636681602 1240.48919957 c 0,31,32
 748.200195312 1189.73816477 748.200195312 1189.73816477 748.200195312 1105.79980469 c 0,0,1
EndSplineSet
Fore
SplineSet
672 1106 m 0,0,1
 672 1032 672 1032 612 952.5 c 128,-1,2
 552 873 552 873 472 806 c 0,3,4
 452 789 452 789 417.5 759 c 128,-1,5
 383 729 383 729 354.5 706.5 c 128,-1,6
 326 684 326 684 290 660 c 1,7,-1
 474 660 l 2,8,9
 489 660 489 660 502.5 665 c 128,-1,10
 516 670 516 670 524.5 675.5 c 128,-1,11
 533 681 533 681 544 694 c 128,-1,12
 555 707 555 707 559.5 714 c 128,-1,13
 564 721 564 721 574.5 738 c 128,-1,14
 585 755 585 755 588 760 c 0,15,16
 595 770 595 770 606 770 c 0,17,18
 628 770 628 770 634 764 c 1,19,20
 618 724 618 724 571.5 626 c 128,-1,21
 525 528 525 528 514 508 c 1,22,-1
 92 508 l 1,23,24
 84 520 84 520 84 536 c 1,25,26
 231 677 231 677 360 818 c 0,27,28
 492 963 492 963 492 1074 c 0,29,30
 492 1178 492 1178 398 1178 c 0,31,32
 375 1178 375 1178 352.5 1170.5 c 128,-1,33
 330 1163 330 1163 312.5 1151 c 128,-1,34
 295 1139 295 1139 282.5 1128 c 128,-1,35
 270 1117 270 1117 259.5 1106 c 128,-1,36
 249 1095 249 1095 248 1094 c 1,37,38
 241 1094 241 1094 230 1104 c 128,-1,39
 219 1114 219 1114 222 1130 c 1,40,41
 236 1151 236 1151 258 1174.5 c 128,-1,42
 280 1198 280 1198 313 1225.5 c 128,-1,43
 346 1253 346 1253 390 1270.5 c 128,-1,44
 434 1288 434 1288 480 1288 c 0,45,46
 572 1288 572 1288 622 1234.5 c 128,-1,47
 672 1181 672 1181 672 1106 c 0,0,1
EndSplineSet
EndChar
StartChar: uni00B3
Encoding: 179 179 113
Width: 676
Flags: W
LayerCount: 2
Fore
SplineSet
486 1288 m 0,0,1
 514 1288 514 1288 540.5 1281.5 c 128,-1,2
 567 1275 567 1275 594 1259 c 128,-1,3
 621 1243 621 1243 637.5 1211.5 c 128,-1,4
 654 1180 654 1180 654 1136 c 0,5,6
 654 1095 654 1095 633 1060 c 128,-1,7
 612 1025 612 1025 581 1004 c 128,-1,8
 550 983 550 983 523.5 970.5 c 128,-1,9
 497 958 497 958 478 954 c 1,10,11
 494 953 494 953 510 950.5 c 128,-1,12
 526 948 526 948 552 937.5 c 128,-1,13
 578 927 578 927 597.5 910.5 c 128,-1,14
 617 894 617 894 631.5 862 c 128,-1,15
 646 830 646 830 646 788 c 0,16,17
 646 717 646 717 605 657.5 c 128,-1,18
 564 598 564 598 502 563 c 128,-1,19
 440 528 440 528 374 509 c 128,-1,20
 308 490 308 490 250 490 c 0,21,22
 198 490 198 490 155 504 c 128,-1,23
 112 518 112 518 96 536 c 1,24,25
 84 565 84 565 90 596 c 0,26,27
 95 625 95 625 117.5 650.5 c 128,-1,28
 140 676 140 676 172 676 c 0,29,30
 197 676 197 676 212.5 658 c 128,-1,31
 228 640 228 640 242 606 c 0,32,33
 263 552 263 552 312 552 c 0,34,35
 366 552 366 552 413 610 c 128,-1,36
 460 668 460 668 460 744 c 0,37,38
 460 803 460 803 435 847.5 c 128,-1,39
 410 892 410 892 358 892 c 0,40,41
 316 892 316 892 296 886 c 1,42,43
 292 898 292 898 292 908 c 0,44,45
 292 926 292 926 296 934 c 1,46,47
 324 938 324 938 353 947.5 c 128,-1,48
 382 957 382 957 416.5 975 c 128,-1,49
 451 993 451 993 472.5 1027 c 128,-1,50
 494 1061 494 1061 494 1104 c 0,51,52
 494 1140 494 1140 472.5 1164 c 128,-1,53
 451 1188 451 1188 404 1188 c 0,54,55
 390 1188 390 1188 375 1183.5 c 128,-1,56
 360 1179 360 1179 346.5 1171.5 c 128,-1,57
 333 1164 333 1164 321 1155.5 c 128,-1,58
 309 1147 309 1147 298 1136.5 c 128,-1,59
 287 1126 287 1126 279.5 1119 c 128,-1,60
 272 1112 272 1112 265 1104 c 2,61,-1
 258 1096 l 1,62,63
 249 1098 249 1098 238 1111.5 c 128,-1,64
 227 1125 227 1125 232 1138 c 1,65,66
 283 1205 283 1205 351.5 1246.5 c 128,-1,67
 420 1288 420 1288 486 1288 c 0,0,1
EndSplineSet
EndChar
StartChar: mu
Encoding: 181 181 115
Width: 1058
Flags: W
LayerCount: 2
Fore
SplineSet
344 892 m 128,-1,1
 361 892 361 892 404.5 864 c 128,-1,2
 448 836 448 836 444 818 c 0,3,4
 418 690 418 690 358 532 c 1,5,-1
 330 446 l 1,6,7
 308 328 308 328 323.5 254 c 128,-1,8
 339 180 339 180 386 180 c 0,9,10
 456 180 456 180 501 242 c 128,-1,11
 546 304 546 304 578 408 c 1,12,-1
 674 866 l 1,13,14
 719 896 719 896 766 892 c 0,15,16
 823 888 823 888 857 864 c 128,-1,17
 891 840 891 840 886 818 c 1,18,19
 870 723 870 723 782 492 c 1,20,-1
 764 446 l 1,21,22
 755 401 755 401 749 367.5 c 128,-1,23
 743 334 743 334 739 298.5 c 128,-1,24
 735 263 735 263 736.5 239 c 128,-1,25
 738 215 738 215 743.5 195 c 128,-1,26
 749 175 749 175 761.5 165.5 c 128,-1,27
 774 156 774 156 794 156 c 0,28,29
 823 156 823 156 860.5 178 c 128,-1,30
 898 200 898 200 914 218 c 1,31,32
 920 218 920 218 930 192 c 1,33,34
 931 186 931 186 930.5 171.5 c 128,-1,35
 930 157 930 157 928 152 c 0,36,37
 898 85 898 85 842 38.5 c 128,-1,38
 786 -8 786 -8 734 -8 c 1,39,40
 694 -7 694 -7 666.5 32.5 c 128,-1,41
 639 72 639 72 629 131 c 128,-1,42
 619 190 619 190 624 256 c 1,43,44
 595 206 595 206 574.5 173 c 128,-1,45
 554 140 554 140 524 100 c 128,-1,46
 494 60 494 60 467.5 37 c 128,-1,47
 441 14 441 14 407 -2 c 128,-1,48
 373 -18 373 -18 338 -18 c 0,49,50
 326 -18 326 -18 316.5 -15 c 128,-1,51
 307 -12 307 -12 299.5 -4 c 128,-1,52
 292 4 292 4 286 10.5 c 128,-1,53
 280 17 280 17 275.5 30.5 c 128,-1,54
 271 44 271 44 268.5 52.5 c 128,-1,55
 266 61 266 61 263.5 78 c 128,-1,56
 261 95 261 95 260 102.5 c 128,-1,57
 259 110 259 110 257 128.5 c 128,-1,58
 255 147 255 147 254 152 c 1,59,60
 253 145 253 145 234.5 68 c 128,-1,61
 216 -9 216 -9 201 -84 c 128,-1,62
 186 -159 186 -159 187 -247 c 128,-1,63
 188 -335 188 -335 218 -382 c 1,64,65
 205 -399 205 -399 168 -426.5 c 128,-1,66
 131 -454 131 -454 110 -454 c 0,67,68
 77 -454 77 -454 54.5 -434.5 c 128,-1,69
 32 -415 32 -415 21.5 -382.5 c 128,-1,70
 11 -350 11 -350 6.5 -319 c 128,-1,71
 2 -288 2 -288 2 -254 c 0,72,73
 2 -203 2 -203 56.5 10 c 128,-1,74
 111 223 111 223 166 408 c 1,75,76
 172 436 172 436 182.5 509 c 128,-1,77
 193 582 193 582 196 596 c 0,78,79
 197 602 197 602 246 852 c 1,80,81
 255 864 255 864 291 878 c 128,-1,0
 327 892 327 892 344 892 c 128,-1,1
EndSplineSet
EndChar
StartChar: periodcentered
Encoding: 183 183 117
Width: 474
Flags: W
LayerCount: 2
Fore
SplineSet
94 500 m 0,0,1
 94 569 94 569 147 622.5 c 128,-1,2
 200 676 200 676 264 676 c 0,3,4
 312 676 312 676 343 643 c 128,-1,5
 374 610 374 610 374 560 c 0,6,7
 374 493 374 493 322 434.5 c 128,-1,8
 270 376 270 376 208 376 c 0,9,10
 158 376 158 376 126 412 c 128,-1,11
 94 448 94 448 94 500 c 0,0,1
EndSplineSet
EndChar
StartChar: ordmasculine
Encoding: 186 186 120
Width: 716
Flags: W
LayerCount: 2
Back
SplineSet
538 1046 m 3,0,1
 512 1046 512 1046 490.5 1032 c 0,2,3
 469 1018 469 1018 455 997 c 0,4,5
 441 976 441 976 429 944.5 c 0,6,7
 417 913 417 913 410.5 886.5 c 0,8,9
 404 860 404 860 398 826 c 0,2,3
 389 765 389 765 388 706.5 c 0,4,5
 387 648 387 648 409.5 606 c 0,6,7
 432 564 432 564 474 564 c 0,4,5
 506 564 506 564 531 583.5 c 0,6,7
 556 603 556 603 571.5 638 c 0,8,9
 587 673 587 673 596.5 705 c 0,10,11
 606 737 606 737 614 780 c 1,6,7
 623 841 623 841 624 900.5 c 0,8,9
 625 960 625 960 602.5 1003 c 0,10,11
 580 1046 580 1046 538 1046 c 3,0,1
564 1106 m 0,8,9
 693 1106 693 1106 759.5 1021.5 c 0,10,11
 826 937 826 937 802 810 c 0,10,11
 778 683 778 683 675 592.5 c 0,12,13
 572 502 572 502 448 502 c 0,12,13
 319 502 319 502 252.5 587.5 c 0,14,15
 186 673 186 673 210 800 c 0,14,15
 234 926 234 926 337.5 1016 c 0,16,17
 441 1106 441 1106 564 1106 c 0,8,9
EndSplineSet
Fore
SplineSet
474 1046 m 0,0,1
 423 1046 423 1046 381 983 c 128,-1,2
 339 920 339 920 318.5 836.5 c 128,-1,3
 298 753 298 753 298 676 c 0,4,5
 298 562 298 562 348 562 c 0,6,7
 399 562 399 562 440.5 625 c 128,-1,8
 482 688 482 688 502 770 c 128,-1,9
 522 852 522 852 522 924 c 0,10,11
 522 969 522 969 511.5 1007.5 c 128,-1,12
 501 1046 501 1046 474 1046 c 0,0,1
489 1104 m 0,13,14
 706 1104 706 1104 706 904 c 0,15,16
 706 812 706 812 647 717 c 128,-1,17
 588 622 588 622 498.5 562 c 128,-1,18
 409 502 409 502 324 502 c 0,19,20
 231 502 231 502 172.5 553.5 c 128,-1,21
 114 605 114 605 114 698 c 0,22,23
 114 790 114 790 171 885.5 c 128,-1,24
 228 981 228 981 316 1042.5 c 128,-1,25
 404 1104 404 1104 489 1104 c 0,13,14
EndSplineSet
EndChar
StartChar: guillemotright
Encoding: 187 187 121
Width: 956
Flags: W
LayerCount: 2
Fore
SplineSet
150 808 m 1,0,1
 158 821 158 821 177.5 832.5 c 128,-1,2
 197 844 197 844 208 846 c 1,3,-1
 224 825.5 l 2,4,5
 240 805 240 805 266.5 774.5 c 128,-1,6
 293 744 293 744 330.5 705.5 c 128,-1,7
 368 667 368 667 422.5 618.5 c 128,-1,8
 477 570 477 570 536 526 c 1,9,10
 545 513 545 513 542 496 c 0,11,12
 539 481 539 481 524 466 c 1,13,14
 480 441 480 441 437 414 c 128,-1,15
 394 387 394 387 357.5 362.5 c 128,-1,16
 321 338 321 338 287.5 314.5 c 128,-1,17
 254 291 254 291 226 270 c 128,-1,18
 198 249 198 249 174.5 231 c 128,-1,19
 151 213 151 213 132.5 197.5 c 128,-1,20
 114 182 114 182 101.5 171.5 c 128,-1,21
 89 161 89 161 81 154 c 128,-1,22
 73 147 73 147 72 146 c 1,23,24
 62 148 62 148 46.5 159.5 c 128,-1,25
 31 171 31 171 28 184 c 1,26,27
 43 202 43 202 164 326 c 128,-1,28
 285 450 285 450 338 496 c 1,29,30
 314 528 314 528 268 604.5 c 128,-1,31
 222 681 222 681 188.5 739.5 c 128,-1,32
 155 798 155 798 150 808 c 1,0,1
498 808 m 1,33,34
 506 822 506 822 524.5 833 c 128,-1,35
 543 844 543 844 554 846 c 1,36,-1
 570 825.5 l 2,37,38
 586 805 586 805 613 774.5 c 128,-1,39
 640 744 640 744 677.5 705.5 c 128,-1,40
 715 667 715 667 770 618.5 c 128,-1,41
 825 570 825 570 884 526 c 1,42,43
 893 513 893 513 890 496 c 0,44,45
 887 481 887 481 872 466 c 1,46,47
 828 441 828 441 785 414 c 128,-1,48
 742 387 742 387 705.5 362.5 c 128,-1,49
 669 338 669 338 635 314.5 c 128,-1,50
 601 291 601 291 573 270 c 128,-1,51
 545 249 545 249 521.5 231 c 128,-1,52
 498 213 498 213 479 197.5 c 128,-1,53
 460 182 460 182 447.5 171.5 c 128,-1,54
 435 161 435 161 427 154 c 128,-1,55
 419 147 419 147 418 146 c 1,56,57
 408 148 408 148 393.5 159.5 c 128,-1,58
 379 171 379 171 376 184 c 1,59,60
 391 202 391 202 512 326 c 128,-1,61
 633 450 633 450 686 496 c 1,62,63
 662 528 662 528 616 604.5 c 128,-1,64
 570 681 570 681 536.5 739.5 c 128,-1,65
 503 798 503 798 498 808 c 1,33,34
EndSplineSet
EndChar
StartChar: onequarter
Encoding: 188 188 122
Width: 1410
Flags: W
LayerCount: 2
Fore
SplineSet
1275 800 m 0,0,1
 1284 800 1284 800 1293.5 788 c 128,-1,2
 1303 776 1303 776 1301 768 c 2,3,-1
 1211 304 l 1,4,-1
 1277 304 l 2,5,6
 1287 304 1287 304 1287 284 c 0,7,8
 1287 253 1287 253 1265 220 c 1,9,-1
 1193 220 l 1,10,-1
 1153 6 l 1,11,12
 1109 -2 1109 -2 1065 -2 c 1,13,14
 997.206056403 -0.433162892622 997.206056403 -0.433162892622 991 10 c 1,15,-1
 1033 220 l 1,16,-1
 723 220 l 1,17,18
 717 223 717 223 714 233 c 128,-1,19
 711 243 711 243 713 250 c 1,20,-1
 1239 780 l 2,21,22
 1259 800 1259 800 1275 800 c 0,0,1
1095 564 m 25,23,-1
 845 304 l 1,24,-1
 1047 304 l 1,25,-1
 1095 564 l 25,23,-1
195 1084 m 1,26,27
 190 1087 190 1087 185.5 1100.5 c 128,-1,28
 181 1114 181 1114 181 1122 c 0,29,30
 181 1126 181 1126 187 1132 c 1,31,32
 259 1169 259 1169 381 1226.5 c 128,-1,33
 503 1284 503 1284 519 1292 c 1,34,-1
 523 1292 l 2,35,36
 527 1292 527 1292 531 1276 c 128,-1,37
 535 1260 535 1260 533 1248 c 1,38,39
 499 1180 499 1180 473 1044 c 2,40,-1
 407 686 l 2,41,42
 395 626 395 626 395 590 c 0,43,44
 395 578 395 578 408.5 570 c 128,-1,45
 422 562 422 562 442.5 559 c 128,-1,46
 463 556 463 556 475 555 c 128,-1,47
 487 554 487 554 495 554 c 1,48,49
 497 552 497 552 496 541 c 128,-1,50
 495 530 495 530 493 522 c 0,51,52
 492 520 492 520 491.5 516.5 c 128,-1,53
 491 513 491 513 490.5 511 c 128,-1,54
 490 509 490 509 489 508 c 1,55,56
 313 516 313 516 291 516 c 0,57,58
 289 516 289 516 105 508 c 1,59,60
 102 513 102 513 106.5 533.5 c 128,-1,61
 111 554 111 554 115 554 c 0,62,63
 133 554 133 554 166 561.5 c 128,-1,64
 199 569 199 569 207 582 c 0,65,66
 217 599 217 599 225 648 c 1,67,-1
 297 1016 l 2,68,69
 313.73118693 1102.04610421 313.73118693 1102.04610421 310.395642374 1115.22687904 c 0,70,71
 307.669381934 1126 307.669381934 1126 297 1126 c 0,72,73
 287 1126 287 1126 195 1084 c 1,26,27
1265 1266 m 2,74,-1
 363 -16 l 1,75,76
 309 -14 309 -14 309 8 c 0,77,78
 309 12 309 12 313 20 c 1,79,-1
 1217 1302 l 1,80,81
 1267 1298 1267 1298 1267 1276 c 0,82,83
 1267 1268 1267 1268 1265 1266 c 2,74,-1
EndSplineSet
EndChar
StartChar: threequarters
Encoding: 190 190 124
Width: 1424
Flags: W
LayerCount: 2
Fore
SplineSet
1292 800 m 0,0,1
 1301 800 1301 800 1310.5 788 c 128,-1,2
 1320 776 1320 776 1318 768 c 2,3,-1
 1228 304 l 1,4,-1
 1294 304 l 2,5,6
 1304 304 1304 304 1304 284 c 0,7,8
 1304 253 1304 253 1282 220 c 1,9,-1
 1212 220 l 1,10,-1
 1170 6 l 1,11,12
 1126 -2 1126 -2 1082 -2 c 1,13,14
 1016.06961323 -0.391203703704 1016.06961323 -0.391203703704 1010 10 c 1,15,-1
 1050 220 l 1,16,-1
 740 220 l 1,17,18
 734 223 734 223 731 233 c 128,-1,19
 728 243 728 243 730 250 c 1,20,-1
 1256 780 l 2,21,22
 1276 800 1276 800 1292 800 c 0,0,1
1112 564 m 25,23,-1
 862 304 l 1,24,-1
 1064 304 l 1,25,-1
 1112 564 l 25,23,-1
476 1288 m 0,26,27
 504 1288 504 1288 530.5 1281.5 c 128,-1,28
 557 1275 557 1275 584 1259 c 128,-1,29
 611 1243 611 1243 627.5 1211.5 c 128,-1,30
 644 1180 644 1180 644 1136 c 0,31,32
 644 1095 644 1095 623 1060 c 128,-1,33
 602 1025 602 1025 571 1004 c 128,-1,34
 540 983 540 983 513.5 970.5 c 128,-1,35
 487 958 487 958 468 954 c 1,36,37
 484 953 484 953 500 950.5 c 128,-1,38
 516 948 516 948 542 937.5 c 128,-1,39
 568 927 568 927 587.5 910.5 c 128,-1,40
 607 894 607 894 621.5 862 c 128,-1,41
 636 830 636 830 636 788 c 0,42,43
 636 717 636 717 595 657.5 c 128,-1,44
 554 598 554 598 492 563 c 128,-1,45
 430 528 430 528 364 509 c 128,-1,46
 298 490 298 490 240 490 c 0,47,48
 188 490 188 490 145 504 c 128,-1,49
 102 518 102 518 86 536 c 1,50,51
 74 565 74 565 80 596 c 0,52,53
 85 625 85 625 107.5 650.5 c 128,-1,54
 130 676 130 676 162 676 c 0,55,56
 187 676 187 676 202.5 658 c 128,-1,57
 218 640 218 640 232 606 c 0,58,59
 253 552 253 552 302 552 c 0,60,61
 356 552 356 552 403 610 c 128,-1,62
 450 668 450 668 450 744 c 0,63,64
 450 803 450 803 425 847.5 c 128,-1,65
 400 892 400 892 348 892 c 0,66,67
 306 892 306 892 286 886 c 1,68,69
 282 898 282 898 282 908 c 0,70,71
 282 926 282 926 286 934 c 1,72,73
 314 938 314 938 343 947.5 c 128,-1,74
 372 957 372 957 406.5 975 c 128,-1,75
 441 993 441 993 462.5 1027 c 128,-1,76
 484 1061 484 1061 484 1104 c 0,77,78
 484 1140 484 1140 462.5 1164 c 128,-1,79
 441 1188 441 1188 394 1188 c 0,80,81
 380 1188 380 1188 365 1183.5 c 128,-1,82
 350 1179 350 1179 336.5 1171.5 c 128,-1,83
 323 1164 323 1164 311 1155.5 c 128,-1,84
 299 1147 299 1147 288 1136.5 c 128,-1,85
 277 1126 277 1126 269.5 1119 c 128,-1,86
 262 1112 262 1112 255 1104 c 2,87,-1
 248 1096 l 1,88,89
 239 1098 239 1098 228 1111.5 c 128,-1,90
 217 1125 217 1125 222 1138 c 1,91,92
 273 1205 273 1205 341.5 1246.5 c 128,-1,93
 410 1288 410 1288 476 1288 c 0,26,27
1274 1266 m 2,94,-1
 372 -16 l 1,95,96
 318 -14 318 -14 318 8 c 0,97,98
 318 12 318 12 322 20 c 1,99,-1
 1226 1302 l 1,100,101
 1276 1298 1276 1298 1276 1276 c 0,102,103
 1276 1268 1276 1268 1274 1266 c 2,94,-1
EndSplineSet
EndChar
StartChar: questiondown
Encoding: 191 191 125
Width: 728
Flags: W
LayerCount: 2
Fore
SplineSet
626 756 m 128,-1,1
 615 700 615 700 570.5 661 c 128,-1,2
 526 622 526 622 474 622 c 0,3,4
 423 622 423 622 393.5 661.5 c 128,-1,5
 364 701 364 701 374 756 c 0,6,7
 385 813 385 813 428.5 855.5 c 128,-1,8
 472 898 472 898 524 898 c 0,9,10
 577 898 577 898 607 855 c 128,-1,0
 637 812 637 812 626 756 c 128,-1,1
298 446 m 1,11,12
 298 455 298 455 307 468 c 128,-1,13
 316 481 316 481 324 486 c 1,14,15
 343 486 343 486 380 468 c 128,-1,16
 417 450 417 450 455 421.5 c 128,-1,17
 493 393 493 393 521.5 352 c 128,-1,18
 550 311 550 311 550 272 c 0,19,20
 550 240 550 240 540.5 211.5 c 128,-1,21
 531 183 531 183 520 164.5 c 128,-1,22
 509 146 509 146 487.5 125.5 c 128,-1,23
 466 105 466 105 454 96 c 128,-1,24
 442 87 442 87 417 71 c 128,-1,25
 392 55 392 55 388 52 c 0,26,27
 369 39 369 39 287 -3.5 c 128,-1,28
 205 -46 205 -46 168 -78 c 0,29,30
 136 -105 136 -105 121 -130.5 c 128,-1,31
 106 -156 106 -156 106 -192 c 0,32,33
 106 -270 106 -270 180 -270 c 0,34,35
 210 -270 210 -270 271 -219 c 128,-1,36
 332 -168 332 -168 362 -168 c 0,37,38
 406 -168 406 -168 432 -196 c 128,-1,39
 458 -224 458 -224 459.5 -263 c 128,-1,40
 461 -302 461 -302 448 -342 c 1,41,42
 389 -416 389 -416 282 -416 c 0,43,44
 158 -416 158 -416 59 -325.5 c 128,-1,45
 -40 -235 -40 -235 -40 -124 c 0,46,47
 -40 -33 -40 -33 -4.5 31.5 c 128,-1,48
 31 96 31 96 136 162 c 0,49,50
 147 169 147 169 202 197 c 128,-1,51
 257 225 257 225 288 246 c 0,52,53
 366 296 366 296 366 342 c 0,54,55
 366 404 366 404 298 446 c 1,11,12
EndSplineSet
EndChar
StartChar: Eth
Encoding: 208 208 142
Width: 1442
Flags: W
LayerCount: 2
Fore
SplineSet
120 686 m 1,0,-1
 780 686 l 2,1,2
 786 686 786 686 789 681 c 0,3,4
 792 676 792 676 790 670 c 0,5,6
 781 627 781 627 768 608 c 1,7,-1
 106 608 l 2,8,9
 94 608 94 608 100 630 c 1,10,11
 109 675 109 675 120 686 c 1,0,-1
EndSplineSet
Refer: 36 68 N 1 0 0 1 2 0 2
EndChar
StartChar: eth
Encoding: 240 240 174
Width: 926
VWidth: 0
UnlinkRmOvrlpSave: 1
Flags: W
LayerCount: 2
Fore
SplineSet
345 1018 m 17,0,1
 315 1070 315 1070 327 1082 c 1,2,-1
 827 1410 l 1,3,4
 837 1396 837 1396 845.5 1375.5 c 128,-1,5
 854 1355 854 1355 847 1348 c 1,6,-1
 345 1018 l 17,0,1
289 1348 m 1,7,8
 291 1361 291 1361 298.5 1375.5 c 128,-1,9
 306 1390 306 1390 315 1390 c 1,10,11
 402 1366 402 1366 485.5 1317.5 c 128,-1,12
 569 1269 569 1269 646 1194 c 128,-1,13
 723 1119 723 1119 772.5 1020.5 c 128,-1,14
 822 922 822 922 842.5 797.5 c 128,-1,15
 863 673 863 673 833 526 c 0,16,17
 812 419 812 419 753.5 317.5 c 128,-1,18
 695 216 695 216 621 144.5 c 128,-1,19
 547 73 547 73 465.5 29.5 c 128,-1,20
 384 -14 384 -14 317 -14 c 0,21,22
 246 -14 246 -14 191 9 c 128,-1,23
 136 32 136 32 103 71.5 c 128,-1,24
 70 111 70 111 51 164.5 c 128,-1,25
 32 218 32 218 32 279.5 c 128,-1,26
 32 341 32 341 43 408 c 1,27,28
 64 516 64 516 141.5 629.5 c 128,-1,29
 219 743 219 743 329 820.5 c 128,-1,30
 439 898 439 898 541 898 c 0,31,32
 581 898 581 898 623 892 c 1,33,34
 623 1173 623 1173 289 1348 c 1,7,8
569 434 m 0,35,36
 587 522 587 522 600 620 c 128,-1,37
 613 718 613 718 609 738 c 0,38,39
 592 818 592 818 519 818 c 0,40,41
 462 818 462 818 415 755.5 c 128,-1,42
 368 693 368 693 340.5 608.5 c 128,-1,43
 313 524 313 524 295 420 c 0,44,45
 268 272 268 272 280.5 170 c 128,-1,46
 293 68 293 68 345 68 c 0,47,48
 417 68 417 68 478 173.5 c 128,-1,49
 539 279 539 279 569 434 c 0,35,36
EndSplineSet
EndChar
StartChar: divide
Encoding: 247 247 181
Width: 1070
VWidth: 0
Flags: W
LayerCount: 2
Fore
SplineSet
102 446 m 2,0,1
 92 446 92 446 92 462 c 0,2,3
 92 509 92 509 122 548 c 1,4,-1
 958 548 l 2,5,6
 964 548 964 548 964 532 c 0,7,8
 964 474 964 474 938 446 c 1,9,-1
 102 446 l 2,0,1
623 994 m 0,10,11
 662 994 662 994 687.5 967.5 c 128,-1,12
 713 941 713 941 713 900 c 0,13,14
 713 850 713 850 677.5 810 c 128,-1,15
 642 770 642 770 593 770 c 0,16,17
 554 770 554 770 529.5 797.5 c 128,-1,18
 505 825 505 825 505 866 c 0,19,20
 505 916 505 916 539.5 955 c 128,-1,21
 574 994 574 994 623 994 c 0,10,11
476 224 m 0,22,23
 515 224 515 224 540.5 197.5 c 128,-1,24
 566 171 566 171 566 130 c 0,25,26
 566 80 566 80 530.5 40 c 128,-1,27
 495 0 495 0 446 0 c 0,28,29
 407 0 407 0 382.5 27.5 c 128,-1,30
 358 55 358 55 358 96 c 0,31,32
 358 146 358 146 392.5 185 c 128,-1,33
 427 224 427 224 476 224 c 0,22,23
EndSplineSet
EndChar
StartChar: oslash
Encoding: 248 248 182
Width: 910
Flags: W
LayerCount: 2
Fore
SplineSet
668 918 m 17,0,1
 680 918 680 918 701.5 912 c 0,2,3
 723 906 723 906 724 898 c 1,4,-1
 220 -38 l 1,5,6
 209 -40 209 -40 189 -33.5 c 0,7,8
 169 -27 169 -27 164 -16 c 1,9,-1
 668 918 l 17,0,1
EndSplineSet
Refer: 79 111 N 1 0 0 1 0 0 3
EndChar
StartChar: aogonek
Encoding: 261 261 378
Width: 978
Flags: W
LayerCount: 2
Fore
SplineSet
524 788 m 0,0,1
 458 788 458 788 399.5 716.5 c 128,-1,2
 341 645 341 645 307.5 533 c 128,-1,3
 274 421 274 421 274 304 c 0,4,5
 274 162 274 162 346 162 c 0,6,7
 396 162 396 162 459.5 286.5 c 128,-1,8
 523 411 523 411 554 562 c 1,9,-1
 594 764 l 1,10,11
 573 788 573 788 524 788 c 0,0,1
916 224 m 1,12,13
 882 161 882 161 770 68 c 0,14,15
 761 61 761 61 742.987318713 45.9605072515 c 0,16,17
 697 9 697 9 673.5 -11 c 128,-1,18
 650 -31 650 -31 613.5 -66 c 128,-1,19
 577 -101 577 -101 559 -126 c 128,-1,20
 541 -151 541 -151 526.5 -183 c 128,-1,21
 512 -215 512 -215 512 -244 c 0,22,23
 512 -280 512 -280 529 -296 c 128,-1,24
 546 -312 546 -312 584 -312 c 0,25,26
 613 -312 613 -312 641 -301.5 c 128,-1,27
 669 -291 669 -291 684 -280 c 128,-1,28
 699 -269 699 -269 715 -254.5 c 128,-1,29
 731 -240 731 -240 732 -240 c 0,30,31
 741 -243 741 -243 741.5 -265 c 128,-1,32
 742 -287 742 -287 738 -292 c 0,33,34
 703 -352 703 -352 637.5 -394 c 128,-1,35
 572 -436 572 -436 510 -436 c 0,36,37
 455 -436 455 -436 422.5 -400 c 128,-1,38
 390 -364 390 -364 390 -320 c 0,39,40
 390 -289 390 -289 399.5 -257.5 c 128,-1,41
 409 -226 409 -226 418.5 -205 c 128,-1,42
 428 -184 428 -184 453 -151.5 c 128,-1,43
 478 -119 478 -119 489 -106.5 c 128,-1,44
 500 -94 500 -94 534.5 -57.5 c 128,-1,45
 569 -21 569 -21 576 -14 c 1,46,47
 529 -8 529 -8 501.5 25 c 128,-1,48
 474 58 474 58 474 116 c 0,49,50
 474 126 474 126 478 154 c 0,51,52
 480 166 480 166 486 192 c 1,53,54
 447 124 447 124 361 55 c 128,-1,55
 275 -14 275 -14 194 -14 c 128,-1,56
 113 -14 113 -14 67.5 55 c 128,-1,57
 22 124 22 124 22 230 c 0,58,59
 22 359 22 359 82.5 484.5 c 128,-1,60
 143 610 143 610 234 699 c 128,-1,61
 325 788 325 788 433 843 c 128,-1,62
 541 898 541 898 636 898 c 0,63,64
 686 898 686 898 750.5 886 c 128,-1,65
 815 874 815 874 850 862 c 1,66,-1
 726 264 l 1,67,68
 718 232 718 232 718 198 c 0,69,70
 718 182 718 182 725 169 c 128,-1,71
 732 156 732 156 746 156 c 0,72,73
 774 156 774 156 826.5 208 c 128,-1,74
 879 260 879 260 888 278 c 1,75,76
 897 278 897 278 906.5 257 c 128,-1,77
 916 236 916 236 916 224 c 1,12,13
EndSplineSet
EndChar
StartChar: eogonek
Encoding: 281 281 380
Width: 788
Flags: W
LayerCount: 2
Fore
SplineSet
290 452 m 1,0,1
 319 452 319 452 358.5 477.5 c 128,-1,2
 398 503 398 503 434 543 c 128,-1,3
 470 583 470 583 495 638 c 128,-1,4
 520 693 520 693 520 746 c 0,5,6
 520 789 520 789 509.5 806.5 c 128,-1,7
 499 824 499 824 468 824 c 0,8,9
 434 824 434 824 401.5 781 c 128,-1,10
 369 738 369 738 346.5 676 c 128,-1,11
 324 614 324 614 309 554 c 128,-1,12
 294 494 294 494 290 452 c 1,0,1
124 -320 m 0,13,14
 124 -279 124 -279 138 -237.5 c 128,-1,15
 152 -196 152 -196 182.5 -152 c 128,-1,16
 213 -108 213 -108 235 -81 c 128,-1,17
 257 -54 257 -54 298 -8 c 1,18,19
 284 -12 284 -12 262 -12 c 0,20,21
 155 -12 155 -12 93.5 65 c 128,-1,22
 32 142 32 142 32 280 c 0,23,24
 32 388 32 388 78.5 501 c 128,-1,25
 125 614 125 614 197 700.5 c 128,-1,26
 269 787 269 787 360.5 842.5 c 128,-1,27
 452 898 452 898 536 898 c 0,28,29
 577 898 577 898 614 888.5 c 128,-1,30
 651 879 651 879 684.5 859 c 128,-1,31
 718 839 718 839 738 801.5 c 128,-1,32
 758 764 758 764 758 714 c 0,33,34
 758 642 758 642 702 575.5 c 128,-1,35
 646 509 646 509 567 467 c 128,-1,36
 488 425 488 425 411 400.5 c 128,-1,37
 334 376 334 376 284 376 c 1,38,39
 280 364 280 364 280 326 c 0,40,41
 280 295 280 295 285.5 267.5 c 128,-1,42
 291 240 291 240 303.5 213 c 128,-1,43
 316 186 316 186 341 170 c 128,-1,44
 366 154 366 154 402 154 c 0,45,46
 416 154 416 154 432 158 c 128,-1,47
 448 162 448 162 463 169.5 c 128,-1,48
 478 177 478 177 493 186 c 128,-1,49
 508 195 508 195 521.5 206 c 128,-1,50
 535 217 535 217 547 227 c 128,-1,51
 559 237 559 237 569.5 247.5 c 128,-1,52
 580 258 580 258 586.5 265 c 128,-1,53
 593 272 593 272 598.5 278 c 2,54,-1
 604 284 l 1,55,56
 616 284 616 284 625 260.5 c 128,-1,57
 634 237 634 237 634 224 c 1,58,59
 612 187 612 187 508 106 c 0,60,61
 395 18 395 18 320.5 -74.5 c 128,-1,62
 246 -167 246 -167 246 -244 c 0,63,64
 246 -280 246 -280 263 -296 c 128,-1,65
 280 -312 280 -312 318 -312 c 0,66,67
 347 -312 347 -312 375 -301.5 c 128,-1,68
 403 -291 403 -291 418 -280 c 128,-1,69
 433 -269 433 -269 449 -254.5 c 128,-1,70
 465 -240 465 -240 466 -240 c 0,71,72
 475 -243 475 -243 475.5 -265 c 128,-1,73
 476 -287 476 -287 472 -292 c 0,74,75
 437 -352 437 -352 371.5 -394 c 128,-1,76
 306 -436 306 -436 244 -436 c 0,77,78
 189 -436 189 -436 156.5 -400 c 128,-1,79
 124 -364 124 -364 124 -320 c 0,13,14
EndSplineSet
EndChar
StartChar: hbar
Encoding: 295 295 387
Width: 1008
Flags: W
LayerCount: 2
Fore
SplineSet
144 1112 m 1,0,-1
 754 1112 l 2,1,2
 760 1112 760 1112 763 1107 c 0,3,4
 766 1102 766 1102 764 1096 c 0,5,6
 755 1053 755 1053 742 1034 c 1,7,-1
 130 1034 l 2,8,9
 118 1034 118 1034 124 1056 c 1,10,11
 133 1101 133 1101 144 1112 c 1,0,-1
EndSplineSet
Refer: 72 104 N 1 0 0 1 0 0 3
EndChar
StartChar: iogonek
Encoding: 303 303 383
Width: 622
VWidth: 0
Flags: W
LayerCount: 2
Fore
SplineSet
428 1374 m 0,0,1
 479 1374 479 1374 511.5 1338.5 c 128,-1,2
 544 1303 544 1303 544 1250 c 0,3,4
 544 1183 544 1183 497 1131.5 c 128,-1,5
 450 1080 450 1080 388 1080 c 0,6,7
 338 1080 338 1080 305 1116.5 c 128,-1,8
 272 1153 272 1153 272 1206 c 0,9,10
 272 1272 272 1272 318.5 1323 c 128,-1,11
 365 1374 365 1374 428 1374 c 0,0,1
566 224 m 1,12,13
 537 169 537 169 402 54 c 0,14,15
 394 47 394 47 368.5 25.5 c 128,-1,16
 343 4 343 4 334 -4 c 128,-1,17
 325 -12 325 -12 302 -32.5 c 128,-1,18
 279 -53 279 -53 269.5 -63 c 128,-1,19
 260 -73 260 -73 241.5 -92 c 128,-1,20
 223 -111 223 -111 215 -122.5 c 128,-1,21
 207 -134 207 -134 195 -151.5 c 128,-1,22
 183 -169 183 -169 177.5 -182.5 c 128,-1,23
 172 -196 172 -196 168 -212.5 c 128,-1,24
 164 -229 164 -229 164 -244 c 0,25,26
 164 -280 164 -280 181 -296 c 128,-1,27
 198 -312 198 -312 236 -312 c 0,28,29
 265 -312 265 -312 293 -301.5 c 128,-1,30
 321 -291 321 -291 336 -280 c 128,-1,31
 351 -269 351 -269 367 -254.5 c 128,-1,32
 383 -240 383 -240 384 -240 c 0,33,34
 393 -243 393 -243 393.5 -265 c 128,-1,35
 394 -287 394 -287 390 -292 c 0,36,37
 355 -352 355 -352 289.5 -394 c 128,-1,38
 224 -436 224 -436 162 -436 c 0,39,40
 107 -436 107 -436 74.5 -400 c 128,-1,41
 42 -364 42 -364 42 -320 c 0,42,43
 42 -294 42 -294 47 -269 c 128,-1,44
 52 -244 52 -244 65 -219 c 128,-1,45
 78 -194 78 -194 88 -176 c 128,-1,46
 98 -158 98 -158 120.5 -131.5 c 128,-1,47
 143 -105 143 -105 154 -92.5 c 128,-1,48
 165 -80 165 -80 192 -51.5 c 128,-1,49
 219 -23 219 -23 228 -14 c 1,50,51
 181 -7 181 -7 151.5 27 c 128,-1,52
 122 61 122 61 122 126 c 0,53,54
 122 174 122 174 140 246 c 1,55,-1
 214 618 l 1,56,57
 224 658 224 658 224 684 c 0,58,59
 224 699 224 699 216 712.5 c 128,-1,60
 208 726 208 726 194 726 c 0,61,62
 166 726 166 726 113.5 674 c 128,-1,63
 61 622 61 622 52 604 c 1,64,65
 43 604 43 604 33.5 625 c 128,-1,66
 24 646 24 646 24 658 c 1,67,68
 57 720 57 720 159.5 809 c 128,-1,69
 262 898 262 898 334 898 c 0,70,71
 395 898 395 898 431.5 861 c 128,-1,72
 468 824 468 824 468 756 c 0,73,74
 468 726 468 726 450 636 c 2,75,-1
 376 264 l 1,76,77
 368 232 368 232 368 198 c 0,78,79
 368 182 368 182 375 169 c 128,-1,80
 382 156 382 156 396 156 c 0,81,82
 424 156 424 156 476.5 208 c 128,-1,83
 529 260 529 260 538 278 c 1,84,85
 547 278 547 278 556.5 257 c 128,-1,86
 566 236 566 236 566 224 c 1,12,13
EndSplineSet
EndChar
StartChar: kgreenlandic
Encoding: 312 312 394
Width: 1070
VWidth: 0
Flags: W
LayerCount: 2
Fore
SplineSet
212 618 m 1,0,1
 222 658 222 658 222 684 c 0,2,3
 222 699 222 699 214 712.5 c 128,-1,4
 206 726 206 726 192 726 c 0,5,6
 164 726 164 726 111.5 674 c 128,-1,7
 59 622 59 622 50 604 c 1,8,9
 41 604 41 604 31.5 625 c 128,-1,10
 22 646 22 646 22 658 c 1,11,12
 55 720 55 720 157.5 809 c 128,-1,13
 260 898 260 898 332 898 c 0,14,15
 393 898 393 898 429.5 861 c 128,-1,16
 466 824 466 824 466 756 c 0,17,18
 466 746 466 746 461 696 c 0,19,20
 461 694 461 694 460.5 689.5 c 128,-1,21
 460 685 460 685 460 682 c 1,22,23
 470 704 470 704 503 738.5 c 128,-1,24
 536 773 536 773 583 809.5 c 128,-1,25
 630 846 630 846 693.5 872 c 128,-1,26
 757 898 757 898 816 898 c 0,27,28
 980 898 980 898 980 754 c 0,29,30
 980 707 980 707 948 660 c 128,-1,31
 916 613 916 613 863.5 575.5 c 128,-1,32
 811 538 811 538 753.5 509 c 128,-1,33
 696 480 696 480 636 460 c 1,34,35
 651 417 651 417 671.5 372 c 128,-1,36
 692 327 692 327 720 277 c 128,-1,37
 748 227 748 227 781 195.5 c 128,-1,38
 814 164 814 164 844 164 c 0,39,40
 866 164 866 164 897.5 189 c 128,-1,41
 929 214 929 214 948 236 c 128,-1,42
 967 258 967 258 980 276 c 1,43,44
 993 276 993 276 1000.5 256.5 c 128,-1,45
 1008 237 1008 237 1008 224 c 1,46,47
 988 171 988 171 887 81.5 c 128,-1,48
 786 -8 786 -8 706 -8 c 0,49,50
 662 -8 662 -8 619.5 23.5 c 128,-1,51
 577 55 577 55 546 100 c 128,-1,52
 515 145 515 145 485.5 206.5 c 128,-1,53
 456 268 456 268 438.5 316.5 c 128,-1,54
 421 365 421 365 406 416 c 1,55,-1
 324 0 l 1,56,57
 284 -12 284 -12 212 -12 c 0,58,59
 142 -12 142 -12 94 0 c 1,60,-1
 212 618 l 1,0,1
666 748 m 3,61,62
 625 748 625 748 578.5 715.5 c 128,-1,63
 532 683 532 683 499 640 c 128,-1,64
 466 597 466 597 444 556 c 128,-1,65
 422 515 422 515 422 496 c 1,66,67
 486 496 486 496 554.5 520 c 128,-1,68
 623 544 623 544 672.5 588.5 c 128,-1,69
 722 633 722 633 722 684 c 0,70,71
 722 706 722 706 709 727 c 128,-1,72
 696 748 696 748 666 748 c 3,61,62
EndSplineSet
EndChar
StartChar: Eng
Encoding: 330 330 395
Width: 1428
Flags: W
LayerCount: 2
Fore
SplineSet
957 138 m 1,0,-1
 451 1038 l 1,1,-1
 311 314 l 2,2,3
 301 261 301 261 295.5 201.5 c 128,-1,4
 290 142 290 142 293 120 c 0,5,6
 297 96 297 96 353.5 82 c 128,-1,7
 410 68 410 68 437 68 c 1,8,9
 442 55 442 55 436.5 30 c 128,-1,10
 431 5 431 5 425 -8 c 1,11,12
 404 -7 404 -7 322 0.5 c 128,-1,13
 240 8 240 8 193 8 c 0,14,15
 145 8 145 8 70.5 1 c 128,-1,16
 -4 -6 -4 -6 -37 -8 c 1,17,18
 -40 0 -40 0 -36.5 18.5 c 128,-1,19
 -33 37 -33 37 -28 51.5 c 128,-1,20
 -23 66 -23 66 -21 66 c 0,21,22
 8 66 8 66 65.5 80.5 c 128,-1,23
 123 95 123 95 137 118 c 128,-1,24
 151 141 151 141 170 202.5 c 128,-1,25
 189 264 189 264 199 320 c 0,26,27
 224 451 224 451 268 674 c 128,-1,28
 312 897 312 897 337 1028 c 0,29,30
 346 1077 346 1077 347 1125 c 128,-1,31
 348 1173 348 1173 337 1208 c 1,32,33
 329 1225 329 1225 287.5 1237.5 c 128,-1,34
 246 1250 246 1250 223 1250 c 1,35,36
 219 1252 219 1252 218.5 1266.5 c 128,-1,37
 218 1281 218 1281 222.5 1300 c 128,-1,38
 227 1319 227 1319 233 1324 c 1,39,40
 249 1323 249 1323 288.5 1319 c 128,-1,41
 328 1315 328 1315 365.5 1312.5 c 128,-1,42
 403 1310 403 1310 441 1310 c 0,43,44
 538 1310 538 1310 647 1324 c 1,45,46
 661 1269 661 1269 711.5 1166 c 128,-1,47
 762 1063 762 1063 813 972.5 c 128,-1,48
 864 882 864 882 952.5 727 c 128,-1,49
 1041 572 1041 572 1083 496 c 1,50,51
 1088 507 1088 507 1103 578 c 1,52,-1
 1175 952 l 1,53,54
 1215 1170 1215 1170 1205 1208 c 1,55,56
 1200 1231 1200 1231 1149 1241.5 c 128,-1,57
 1098 1252 1098 1252 1063 1252 c 1,58,59
 1062 1254 1062 1254 1062.5 1267 c 128,-1,60
 1063 1280 1063 1280 1067 1299 c 128,-1,61
 1071 1318 1071 1318 1077 1326 c 1,62,63
 1109 1324 1109 1324 1181 1317 c 128,-1,64
 1253 1310 1253 1310 1301 1310 c 0,65,66
 1348 1310 1348 1310 1432.5 1317.5 c 128,-1,67
 1517 1325 1517 1325 1539 1326 c 1,68,69
 1541 1315 1541 1315 1535.5 1289 c 128,-1,70
 1530 1263 1530 1263 1519 1250 c 1,71,72
 1502 1250 1502 1250 1475 1248 c 128,-1,73
 1448 1246 1448 1246 1408 1234.5 c 128,-1,74
 1368 1223 1368 1223 1357 1204 c 1,75,76
 1347 1183 1347 1183 1323.5 1098 c 128,-1,77
 1300 1013 1300 1013 1289 958 c 2,78,-1
 1157 278 l 2,79,80
 1132 149 1132 149 1069.5 33 c 128,-1,81
 1007 -83 1007 -83 935 -160.5 c 128,-1,82
 863 -238 863 -238 781.5 -300 c 128,-1,83
 700 -362 700 -362 640.5 -392.5 c 128,-1,84
 581 -423 581 -423 539 -436 c 1,85,86
 532 -432 532 -432 524.5 -420 c 128,-1,87
 517 -408 517 -408 517 -400 c 128,-1,88
 517 -392 517 -392 521 -388 c 1,89,90
 848 -212 848 -212 957 138 c 1,0,-1
EndSplineSet
EndChar
StartChar: tbar
Encoding: 359 359 398
Width: 702
Flags: W
LayerCount: 2
Fore
SplineSet
67 636 m 1,0,-1
 617 636 l 2,1,2
 623 636 623 636 626 631 c 0,3,4
 629 626 629 626 627 620 c 0,5,6
 618 577 618 577 605 558 c 1,7,-1
 53 558 l 2,8,9
 42 558 42 558 47 580 c 0,10,11
 56 625 56 625 67 636 c 1,0,-1
EndSplineSet
Refer: 84 116 N 1 0 0 1 47 0 2
EndChar
StartChar: Ohorn
Encoding: 416 416 687
Width: 1410
Flags: W
LayerCount: 2
Fore
SplineSet
804 1248 m 0,0,1
 724 1248 724 1248 655 1200.5 c 128,-1,2
 586 1153 586 1153 537.5 1075.5 c 128,-1,3
 489 998 489 998 454 898.5 c 128,-1,4
 419 799 419 799 402.5 694 c 128,-1,5
 386 589 386 589 386 488 c 0,6,7
 386 399 386 399 401 324.5 c 128,-1,8
 416 250 416 250 447 191 c 128,-1,9
 478 132 478 132 530.5 99 c 128,-1,10
 583 66 583 66 652 66 c 0,11,12
 749 66 749 66 830.5 137 c 128,-1,13
 912 208 912 208 963 320 c 128,-1,14
 1014 432 1014 432 1042 562.5 c 128,-1,15
 1070 693 1070 693 1070 820 c 0,16,17
 1070 939 1070 939 1042 1033.5 c 128,-1,18
 1014 1128 1014 1128 952.5 1188 c 128,-1,19
 891 1248 891 1248 804 1248 c 0,0,1
1144 1236 m 1,20,21
 1244 1189 1244 1189 1286 1191 c 0,22,23
 1318 1192 1318 1192 1341.5 1206.5 c 128,-1,24
 1365 1221 1365 1221 1368 1241 c 128,-1,25
 1371 1261 1371 1261 1348.5 1290.5 c 128,-1,26
 1326 1320 1326 1320 1331 1354 c 0,27,28
 1338 1401 1338 1401 1396.5 1423 c 128,-1,29
 1455 1445 1455 1445 1495 1418 c 1,30,31
 1513 1373 1513 1373 1513 1357 c 0,32,33
 1514 1289 1514 1289 1473 1232.5 c 128,-1,34
 1432 1176 1432 1176 1374.5 1146.5 c 128,-1,35
 1317 1117 1317 1117 1259 1113 c 1,36,37
 1358 964 1358 964 1358 786 c 0,38,39
 1358 638 1358 638 1310 506.5 c 128,-1,40
 1262 375 1262 375 1183 280.5 c 128,-1,41
 1104 186 1104 186 1004 117 c 128,-1,42
 904 48 904 48 797.5 14 c 128,-1,43
 691 -20 691 -20 590 -20 c 0,44,45
 453 -20 453 -20 339.5 54.5 c 128,-1,46
 226 129 226 129 162 253 c 128,-1,47
 98 377 98 377 98 522 c 0,48,49
 98 666 98 666 144 797 c 128,-1,50
 190 928 190 928 267 1024 c 128,-1,51
 344 1120 344 1120 441 1191 c 128,-1,52
 538 1262 538 1262 643 1298 c 128,-1,53
 748 1334 748 1334 848 1334 c 0,54,55
 1015 1334 1015 1334 1144 1236 c 1,20,21
EndSplineSet
EndChar
StartChar: Uhorn
Encoding: 431 431 688
Width: 1384
Flags: W
LayerCount: 2
Fore
SplineSet
469 1310 m 0,0,1
 604 1310 604 1310 733 1324 c 1,2,3
 738 1315 738 1315 733 1287.5 c 128,-1,4
 728 1260 728 1260 719 1250 c 1,5,6
 607 1241 607 1241 593 1214 c 0,7,8
 567 1167 567 1167 541 1026 c 2,9,-1
 471 660 l 2,10,11
 460 600 460 600 454 562 c 128,-1,12
 448 524 448 524 443.5 479 c 128,-1,13
 439 434 439 434 441 395 c 128,-1,14
 443 356 443 356 451 318 c 0,15,16
 490 126 490 126 697 126 c 0,17,18
 755 126 755 126 812.5 154.5 c 128,-1,19
 870 183 870 183 924.5 240 c 128,-1,20
 979 297 979 297 1023.5 394.5 c 128,-1,21
 1068 492 1068 492 1093 618 c 2,22,-1
 1159 958 l 1,23,24
 1193 1141 1193 1141 1181 1202 c 0,25,26
 1173 1240 1173 1240 1051 1250 c 1,27,28
 1047 1260 1047 1260 1052 1287.5 c 128,-1,29
 1057 1315 1057 1315 1065 1324 c 1,30,31
 1194 1312 1194 1312 1295 1312 c 0,32,33
 1361 1312 1361 1312 1397 1319 c 128,-1,34
 1433 1326 1433 1326 1468 1351 c 1,35,36
 1481 1358 1481 1358 1476 1370.5 c 128,-1,37
 1471 1383 1471 1383 1459.5 1393 c 128,-1,38
 1448 1403 1448 1403 1438 1423 c 128,-1,39
 1428 1443 1428 1443 1431 1464 c 0,40,41
 1438 1511 1438 1511 1496.5 1533 c 128,-1,42
 1555 1555 1555 1555 1595 1528 c 1,43,44
 1613 1483 1613 1483 1613 1467 c 0,45,46
 1616 1351 1616 1351 1501 1286 c 0,47,48
 1483 1276 1483 1276 1447 1263.5 c 128,-1,49
 1411 1251 1411 1251 1386.5 1237.5 c 128,-1,50
 1362 1224 1362 1224 1349 1202 c 0,51,52
 1332 1172 1332 1172 1309.5 1098 c 128,-1,53
 1287 1024 1287 1024 1275 960 c 2,54,-1
 1199 572 l 2,55,56
 1170 424 1170 424 1106 308.5 c 128,-1,57
 1042 193 1042 193 957 123 c 128,-1,58
 872 53 872 53 775 17.5 c 128,-1,59
 678 -18 678 -18 575 -18 c 0,60,61
 454 -18 454 -18 359.5 26.5 c 128,-1,62
 265 71 265 71 217 158 c 0,63,64
 140 297 140 297 199 602 c 2,65,-1
 281 1026 l 2,66,67
 283 1036 283 1036 287.5 1060.5 c 128,-1,68
 292 1085 292 1085 294 1094.5 c 128,-1,69
 296 1104 296 1104 299 1123 c 128,-1,70
 302 1142 302 1142 303 1151 c 128,-1,71
 304 1160 304 1160 305 1173.5 c 128,-1,72
 306 1187 306 1187 305.5 1196.5 c 128,-1,73
 305 1206 305 1206 303 1214 c 0,74,75
 299 1241 299 1241 191 1250 c 1,76,77
 187 1260 187 1260 192 1287.5 c 128,-1,78
 197 1315 197 1315 205 1324 c 1,79,80
 328 1310 328 1310 469 1310 c 0,0,1
EndSplineSet
EndChar
StartChar: uni0237
Encoding: 567 567 391
Width: 572
VWidth: 0
Flags: W
LayerCount: 2
Fore
SplineSet
232 618 m 1,0,1
 242 658 242 658 242 684 c 0,2,3
 242 699 242 699 234 712.5 c 128,-1,4
 226 726 226 726 212 726 c 0,5,6
 184 726 184 726 131.5 674 c 128,-1,7
 79 622 79 622 70 604 c 1,8,9
 61 604 61 604 51.5 625 c 128,-1,10
 42 646 42 646 42 658 c 1,11,12
 75 720 75 720 177.5 809 c 128,-1,13
 280 898 280 898 352 898 c 0,14,15
 413 898 413 898 449.5 861 c 128,-1,16
 486 824 486 824 486 756 c 0,17,18
 486 726 486 726 468 636 c 1,19,20
 422 390 422 390 392 240 c 0,21,22
 369 121 369 121 327 30 c 128,-1,23
 285 -61 285 -61 218 -150 c 0,24,25
 159 -228 159 -228 25.5 -325 c 128,-1,26
 -108 -422 -108 -422 -158 -436 c 1,27,28
 -165 -436 -165 -436 -170.5 -421.5 c 128,-1,29
 -176 -407 -176 -407 -176 -392 c 1,30,31
 -23 -274 -23 -274 42 -152.5 c 128,-1,32
 107 -31 107 -31 152 200 c 2,33,-1
 232 618 l 1,0,1
EndSplineSet
EndChar
StartChar: uni02BE
Encoding: 702 702 420
Width: 374
Flags: W
LayerCount: 2
Fore
SplineSet
130 1402 m 1,0,1
 189 1402 189 1402 234 1377.5 c 128,-1,2
 279 1353 279 1353 302 1315 c 128,-1,3
 325 1277 325 1277 333.5 1233.5 c 128,-1,4
 342 1190 342 1190 334 1148 c 0,5,6
 314 1050 314 1050 229 971 c 128,-1,7
 144 892 144 892 30 892 c 1,8,9
 26 930 26 930 46 970 c 1,10,11
 109 970 109 970 158 1024 c 128,-1,12
 207 1078 207 1078 220 1148 c 0,13,14
 234 1219 234 1219 205.5 1272.5 c 128,-1,15
 177 1326 177 1326 114 1326 c 1,16,17
 110 1363 110 1363 130 1402 c 1,0,1
EndSplineSet
EndChar
StartChar: tildecomb
Encoding: 771 771 243
Width: 0
VWidth: 1990
GlyphClass: 4
Flags: W
LayerCount: 2
Fore
SplineSet
-588 1166 m 0,0,1
 -532 1166 -532 1166 -472 1134 c 0,2,3
 -466 1131 -466 1131 -436.5 1112.5 c 128,-1,4
 -407 1094 -407 1094 -386 1087 c 128,-1,5
 -365 1080 -365 1080 -338 1080 c 0,6,7
 -327 1080 -327 1080 -316.5 1082.5 c 128,-1,8
 -306 1085 -306 1085 -296 1089.5 c 128,-1,9
 -286 1094 -286 1094 -277 1098.5 c 128,-1,10
 -268 1103 -268 1103 -259 1110.5 c 128,-1,11
 -250 1118 -250 1118 -244 1123.5 c 128,-1,12
 -238 1129 -238 1129 -230.5 1137 c 128,-1,13
 -223 1145 -223 1145 -219.5 1148.5 c 128,-1,14
 -216 1152 -216 1152 -210 1159 c 2,15,-1
 -204 1166 l 1,16,17
 -188 1161 -188 1161 -190 1142 c 0,18,19
 -195 1099 -195 1099 -234 1056 c 1,20,21
 -307 980 -307 980 -394 980 c 0,22,23
 -450 980 -450 980 -508 1012 c 0,24,25
 -514 1016 -514 1016 -536.5 1029 c 128,-1,26
 -559 1042 -559 1042 -570.5 1048 c 128,-1,27
 -582 1054 -582 1054 -603.5 1060 c 128,-1,28
 -625 1066 -625 1066 -646 1066 c 0,29,30
 -657 1066 -657 1066 -667.5 1063.5 c 128,-1,31
 -678 1061 -678 1061 -688 1056.5 c 128,-1,32
 -698 1052 -698 1052 -707 1047.5 c 128,-1,33
 -716 1043 -716 1043 -725 1035.5 c 128,-1,34
 -734 1028 -734 1028 -740 1022.5 c 128,-1,35
 -746 1017 -746 1017 -753.5 1009 c 128,-1,36
 -761 1001 -761 1001 -764.5 997.5 c 128,-1,37
 -768 994 -768 994 -774 987 c 2,38,-1
 -780 980 l 1,39,40
 -795 985 -795 985 -792 1006 c 0,41,42
 -787 1049 -787 1049 -750 1090 c 1,43,44
 -677 1166 -677 1166 -588 1166 c 0,0,1
EndSplineSet
EndChar
StartChar: uni0307
Encoding: 775 775 248
Width: 0
VWidth: 1936
GlyphClass: 4
Flags: W
LayerCount: 2
Fore
SplineSet
-626 1122 m 128,-1,1
 -615 1178 -615 1178 -570.5 1217 c 128,-1,2
 -526 1256 -526 1256 -474 1256 c 0,3,4
 -423 1256 -423 1256 -393.5 1216.5 c 128,-1,5
 -364 1177 -364 1177 -374 1122 c 0,6,7
 -385 1065 -385 1065 -428.5 1022.5 c 128,-1,8
 -472 980 -472 980 -524 980 c 0,9,10
 -577 980 -577 980 -607 1023 c 128,-1,0
 -637 1066 -637 1066 -626 1122 c 128,-1,1
EndSplineSet
EndChar
StartChar: uni0327
Encoding: 807 807 257
Width: 0
GlyphClass: 4
Flags: W
LayerCount: 2
Fore
SplineSet
-492 -8 m 1,0,-1
 -434 -8 l 1,1,-1
 -480 -58 l 1,2,-1
 -446 -58 l 2,3,4
 -406 -58 -406 -58 -372 -85 c 128,-1,5
 -338 -112 -338 -112 -338 -152 c 0,6,7
 -338 -225 -338 -225 -410.5 -275.5 c 128,-1,8
 -483 -326 -483 -326 -578 -326 c 0,9,10
 -598 -326 -598 -326 -626.5 -319.5 c 128,-1,11
 -655 -313 -655 -313 -664 -306 c 1,12,13
 -672 -298 -672 -298 -672 -288 c 0,14,15
 -672 -264 -672 -264 -660.5 -248 c 128,-1,16
 -649 -232 -649 -232 -634 -232 c 0,17,18
 -617 -232 -617 -232 -586.5 -256 c 128,-1,19
 -556 -280 -556 -280 -526 -280 c 0,20,21
 -489 -280 -489 -280 -464.5 -257.5 c 128,-1,22
 -440 -235 -440 -235 -440 -200 c 0,23,24
 -440 -168 -440 -168 -458 -149 c 128,-1,25
 -476 -130 -476 -130 -498 -130 c 0,26,27
 -521 -130 -521 -130 -556 -146 c 1,28,29
 -560 -146 -560 -146 -573 -137.5 c 128,-1,30
 -586 -129 -586 -129 -586 -122 c 0,31,32
 -586 -118 -586 -118 -575 -105.5 c 128,-1,33
 -564 -93 -564 -93 -539.5 -65.5 c 128,-1,34
 -515 -38 -515 -38 -492 -8 c 1,0,-1
EndSplineSet
EndChar
StartChar: uni2011
Encoding: 8209 8209 198
Width: 576
Flags: W
LayerCount: 2
Fore
SplineSet
176 534 m 2,0,-1
 630 558 l 2,1,2
 642 558 642 558 642 534 c 0,3,4
 642 511 642 511 623 460 c 128,-1,5
 604 409 604 409 590 408 c 2,6,-1
 138 386 l 2,7,8
 128 386 128 386 128 416 c 0,9,10
 128 437 128 437 144.5 485 c 128,-1,11
 161 533 161 533 176 534 c 2,0,-1
EndSplineSet
EndChar
StartChar: figuredash
Encoding: 8210 8210 199
Width: 924
Flags: W
LayerCount: 2
Fore
SplineSet
940 536 m 2,0,1
 954 536 954 536 954 504 c 0,2,3
 954 475 954 475 937.5 437 c 128,-1,4
 921 399 921 399 910 388 c 1,5,-1
 138 388 l 2,6,7
 124 388 124 388 124 420 c 0,8,9
 124 449 124 449 140.5 487 c 128,-1,10
 157 525 157 525 168 536 c 1,11,-1
 940 536 l 2,0,1
EndSplineSet
EndChar
StartChar: emdash
Encoding: 8212 8212 201
Width: 1648
Flags: W
LayerCount: 2
Fore
SplineSet
1646 536 m 2,0,1
 1660 536 1660 536 1660 504 c 0,2,3
 1660 475 1660 475 1643.5 437 c 128,-1,4
 1627 399 1627 399 1616 388 c 1,5,-1
 138 388 l 2,6,7
 124 388 124 388 124 420 c 0,8,9
 124 449 124 449 140.5 487 c 128,-1,10
 157 525 157 525 168 536 c 1,11,-1
 1646 536 l 2,0,1
EndSplineSet
EndChar
StartChar: uni2015
Encoding: 8213 8213 202
Width: 2010
Flags: W
LayerCount: 2
Fore
SplineSet
2014 536 m 2,0,1
 2028 536 2028 536 2028 504 c 0,2,3
 2028 475 2028 475 2011.5 437 c 128,-1,4
 1995 399 1995 399 1984 388 c 1,5,-1
 138 388 l 2,6,7
 124 388 124 388 124 420 c 0,8,9
 124 449 124 449 140.5 487 c 128,-1,10
 157 525 157 525 168 536 c 1,11,-1
 2014 536 l 2,0,1
EndSplineSet
EndChar
StartChar: quoteleft
Encoding: 8216 8216 203
Width: 383
Flags: W
LayerCount: 2
Fore
SplineSet
281 1096 m 0,0,1
 331 1310 331 1310 559 1443 c 0,2,3
 588 1459 588 1459 595 1458 c 0,4,5
 608 1458 608 1458 619 1446 c 128,-1,6
 630 1434 630 1434 633 1415 c 1,7,8
 485 1331 485 1331 465 1238 c 0,9,10
 452 1154 452 1154 485 1108 c 0,11,12
 526 1054 526 1054 518 1022 c 0,13,14
 506 976 506 976 459 940 c 0,15,16
 410 902 410 902 357 902 c 0,17,18
 307 902 307 902 281 928 c 1,19,20
 253 984 253 984 281 1096 c 0,0,1
EndSplineSet
EndChar
StartChar: daggerdbl
Encoding: 8225 8225 210
Width: 760
Flags: W
LayerCount: 2
Back
SplineSet
302 496 m 2,0,1
 312 496 312 496 315 506 c 0,2,3
 318 516 318 516 318 550 c 2,2,-1
 318 740 l 2,3,4
 318 758 318 758 302 758 c 2,5,6
 272 758 l 2,7,8
 238 758 238 758 206 756.5 c 0,9,10
 174 755 174 755 133 752 c 0,11,12
 92 749 92 749 62 748 c 1,9,10
 66 784 66 784 66 802 c 0,11,12
 66 826 66 826 62 870 c 1,13,14
 92 869 92 869 133 866 c 0,15,16
 174 863 174 863 206 861.5 c 0,17,18
 238 860 238 860 272 860 c 2,15,16
 302 860 l 2,17,18
 308 860 308 860 313 865 c 0,19,20
 318 870 318 870 318 876 c 0,19,20
 318 943 318 943 315.5 999.5 c 0,21,22
 313 1056 313 1056 307.5 1134 c 0,23,24
 302 1212 302 1212 300 1258 c 1,21,22
 348 1250 348 1250 368 1250 c 0,23,24
 390 1250 390 1250 438 1258 c 1,25,26
 436 1212 436 1212 430.5 1134 c 0,27,28
 425 1056 425 1056 422.5 999.5 c 0,29,30
 420 943 420 943 420 876 c 0,27,28
 420 870 420 870 425 865 c 0,29,30
 430 860 430 860 436 860 c 2,29,-1
 464 860 l 2,30,31
 498 860 498 860 530 861.5 c 0,32,33
 562 863 562 863 604.5 866 c 0,34,35
 647 869 647 869 676 870 c 1,32,33
 672 826 672 826 672 802 c 0,34,35
 672 784 672 784 676 748 c 1,36,37
 647 749 647 749 604.5 752 c 0,38,39
 562 755 562 755 530 756.5 c 0,40,41
 498 758 498 758 464 758 c 2,38,-1
 436 758 l 2,39,40
 420 758 420 758 420 740 c 2,41,42
 420 512 l 2,43,44
 420 496 420 496 436 496 c 2,45,-1
 676 506 l 1,46,47
 672 462 672 462 672 438 c 0,48,49
 672 418 672 418 676 382 c 1,50,-1
 436 394 l 1,51,52
 423 391 423 391 420 372 c 1,53,54
 422 329 422 329 429 195.5 c 0,55,56
 436 62 436 62 438 -20 c 1,55,56
 410 -10 410 -10 368 -10 c 0,57,58
 330 -10 330 -10 300 -20 c 1,59,60
 302 62 302 62 309 195.5 c 0,61,62
 316 329 316 329 318 372 c 0,61,62
 318 380 318 380 313.5 387 c 0,63,64
 309 394 309 394 302 394 c 2,63,-1
 62 382 l 1,64,65
 66 418 66 418 66 438 c 0,66,67
 66 462 66 462 62 506 c 1,68,-1
 302 496 l 2,0,1
EndSplineSet
Fore
SplineSet
580 546 m 1,0,1
 561 514 561 514 530.5 467 c 128,-1,2
 500 420 500 420 492 406 c 1,3,4
 489 387 489 387 501.5 368.5 c 128,-1,5
 514 350 514 350 534 350 c 0,6,7
 631 353 631 353 696 412 c 1,8,9
 725 412 725 412 740.5 384.5 c 128,-1,10
 756 357 756 357 750 324 c 128,-1,11
 744 291 744 291 716.5 260.5 c 128,-1,12
 689 230 689 230 660 230 c 1,13,14
 608 300 608 300 524 300 c 0,15,16
 493 300 493 300 462 266 c 1,17,18
 451 206 451 206 451 129 c 128,-1,19
 451 52 451 52 470 26 c 1,20,21
 464 -4 464 -4 433.5 -26 c 128,-1,22
 403 -48 403 -48 372 -48 c 0,23,24
 339 -48 339 -48 316.5 -26.5 c 128,-1,25
 294 -5 294 -5 300 26 c 1,26,27
 329 52 329 52 360.5 130.5 c 128,-1,28
 392 209 392 209 402 266 c 1,29,30
 391 286 391 286 381.5 293 c 128,-1,31
 372 300 372 300 354 300 c 0,32,33
 267 300 267 300 190 230 c 1,34,35
 161 230 161 230 146.5 260 c 128,-1,36
 132 290 132 290 138 324 c 0,37,38
 144 357 144 357 170.5 384.5 c 128,-1,39
 197 412 197 412 226 412 c 1,40,41
 269 353 269 353 364 350 c 0,42,43
 384 350 384 350 403.5 368.5 c 128,-1,44
 423 387 423 387 426 406 c 1,45,46
 423 422 423 422 409 471 c 128,-1,47
 395 520 395 520 390 546 c 1,48,49
 411 563 411 563 435 595 c 128,-1,50
 459 627 459 627 462 640 c 0,51,52
 465 652 465 652 450.5 684 c 128,-1,53
 436 716 436 716 426 730 c 1,54,55
 442 756 442 756 474.5 805 c 128,-1,56
 507 854 507 854 516 870 c 1,57,58
 519 889 519 889 507.5 907.5 c 128,-1,59
 496 926 496 926 476 926 c 0,60,61
 379 923 379 923 314 864 c 1,62,63
 285 864 285 864 269.5 891.5 c 128,-1,64
 254 919 254 919 260 952 c 0,65,66
 266 986 266 986 292.5 1016 c 128,-1,67
 319 1046 319 1046 348 1046 c 1,68,69
 400 976 400 976 486 976 c 0,70,71
 504 976 504 976 516 983 c 128,-1,72
 528 990 528 990 546 1010 c 1,73,74
 557 1070 557 1070 557 1147 c 128,-1,75
 557 1224 557 1224 538 1250 c 1,76,77
 544 1281 544 1281 574.5 1302.5 c 128,-1,78
 605 1324 605 1324 638 1324 c 0,79,80
 669 1324 669 1324 691.5 1302 c 128,-1,81
 714 1280 714 1280 708 1250 c 1,82,83
 679 1224 679 1224 647.5 1145.5 c 128,-1,84
 616 1067 616 1067 606 1010 c 1,85,86
 617 990 617 990 626.5 983 c 128,-1,87
 636 976 636 976 654 976 c 0,88,89
 743 976 743 976 820 1046 c 1,90,91
 849 1046 849 1046 863.5 1016 c 128,-1,92
 878 986 878 986 872 952 c 0,93,94
 866 919 866 919 839.5 891.5 c 128,-1,95
 813 864 813 864 784 864 c 1,96,97
 741 923 741 923 646 926 c 0,98,99
 626 926 626 926 605.5 907.5 c 128,-1,100
 585 889 585 889 582 870 c 1,101,102
 585 854 585 854 597.5 807 c 128,-1,103
 610 760 610 760 616 730 c 1,104,105
 602 718 602 718 575.5 684.5 c 128,-1,106
 549 651 549 651 546 640 c 0,107,108
 543 627 543 627 553.5 595 c 128,-1,109
 564 563 564 563 580 546 c 1,0,1
EndSplineSet
EndChar
StartChar: perthousand
Encoding: 8240 8240 214
Width: 2012
Flags: W
LayerCount: 2
Fore
SplineSet
1756 542 m 0,0,1
 1705 542 1705 542 1666.5 479 c 128,-1,2
 1628 416 1628 416 1612.5 332 c 128,-1,3
 1597 248 1597 248 1602 172 c 0,4,5
 1603 151 1603 151 1608 127.5 c 128,-1,6
 1613 104 1613 104 1628 81 c 128,-1,7
 1643 58 1643 58 1664 58 c 0,8,9
 1715 58 1715 58 1753 121 c 128,-1,10
 1791 184 1791 184 1806 266 c 128,-1,11
 1821 348 1821 348 1816 420 c 0,12,13
 1813 463 1813 463 1798 502.5 c 128,-1,14
 1783 542 1783 542 1756 542 c 0,0,1
1767 600 m 0,15,16
 1984 600 1984 600 1998 400 c 0,17,18
 2003 331 2003 331 1972.5 257.5 c 128,-1,19
 1942 184 1942 184 1891.5 127.5 c 128,-1,20
 1841 71 1841 71 1774.5 34.5 c 128,-1,21
 1708 -2 1708 -2 1644 -2 c 0,22,23
 1551 -2 1551 -2 1489 49.5 c 128,-1,24
 1427 101 1427 101 1420 194 c 0,25,26
 1414 286 1414 286 1464 381.5 c 128,-1,27
 1514 477 1514 477 1598 538.5 c 128,-1,28
 1682 600 1682 600 1767 600 c 0,15,16
1134 542 m 0,29,30
 1083 542 1083 542 1044.5 479 c 128,-1,31
 1006 416 1006 416 990.5 332 c 128,-1,32
 975 248 975 248 980 172 c 0,33,34
 981 151 981 151 986 127.5 c 128,-1,35
 991 104 991 104 1006 81 c 128,-1,36
 1021 58 1021 58 1042 58 c 0,37,38
 1093 58 1093 58 1131 121 c 128,-1,39
 1169 184 1169 184 1184 266 c 128,-1,40
 1199 348 1199 348 1194 420 c 0,41,42
 1191 463 1191 463 1176 502.5 c 128,-1,43
 1161 542 1161 542 1134 542 c 0,29,30
1145 600 m 0,44,45
 1362 600 1362 600 1376 400 c 0,46,47
 1381 331 1381 331 1350.5 257.5 c 128,-1,48
 1320 184 1320 184 1269.5 127.5 c 128,-1,49
 1219 71 1219 71 1152.5 34.5 c 128,-1,50
 1086 -2 1086 -2 1022 -2 c 0,51,52
 929 -2 929 -2 867 49.5 c 128,-1,53
 805 101 805 101 798 194 c 0,54,55
 792 286 792 286 842 381.5 c 128,-1,56
 892 477 892 477 976 538.5 c 128,-1,57
 1060 600 1060 600 1145 600 c 0,44,45
554 1226 m 0,58,59
 503 1226 503 1226 464.5 1163 c 128,-1,60
 426 1100 426 1100 410.5 1016 c 128,-1,61
 395 932 395 932 400 856 c 0,62,63
 401 835 401 835 406 811.5 c 128,-1,64
 411 788 411 788 426 765 c 128,-1,65
 441 742 441 742 462 742 c 0,66,67
 513 742 513 742 551 805 c 128,-1,68
 589 868 589 868 604 950 c 128,-1,69
 619 1032 619 1032 614 1104 c 0,70,71
 611 1147 611 1147 596 1186.5 c 128,-1,72
 581 1226 581 1226 554 1226 c 0,58,59
565 1284 m 0,73,74
 782 1284 782 1284 796 1084 c 0,75,76
 801 1015 801 1015 770.5 941.5 c 128,-1,77
 740 868 740 868 689.5 811.5 c 128,-1,78
 639 755 639 755 572.5 718.5 c 128,-1,79
 506 682 506 682 442 682 c 0,80,81
 349 682 349 682 287 733.5 c 128,-1,82
 225 785 225 785 218 878 c 0,83,84
 212 970 212 970 262 1065.5 c 128,-1,85
 312 1161 312 1161 396 1222.5 c 128,-1,86
 480 1284 480 1284 565 1284 c 0,73,74
1257 1236 m 2,87,-1
 365 -28 l 1,88,89
 297 -12 297 -12 297 10 c 0,90,91
 297 14 297 14 301 22 c 1,92,-1
 1195 1286 l 1,93,94
 1259 1268 1259 1268 1259 1246 c 0,95,96
 1259 1238 1259 1238 1257 1236 c 2,87,-1
EndSplineSet
EndChar
StartChar: guilsinglright
Encoding: 8250 8250 219
Width: 922
Flags: W
LayerCount: 2
Fore
SplineSet
582 808 m 1,0,1
 590 822 590 822 608.5 833 c 128,-1,2
 627 844 627 844 638 846 c 1,3,-1
 654 825.5 l 2,4,5
 670 805 670 805 697 774.5 c 128,-1,6
 724 744 724 744 761.5 705.5 c 128,-1,7
 799 667 799 667 854 618.5 c 128,-1,8
 909 570 909 570 968 526 c 1,9,10
 977 513 977 513 974 496 c 0,11,12
 971 481 971 481 956 466 c 1,13,14
 912 441 912 441 869 414 c 128,-1,15
 826 387 826 387 789.5 362.5 c 128,-1,16
 753 338 753 338 719 314.5 c 128,-1,17
 685 291 685 291 657 270 c 128,-1,18
 629 249 629 249 605.5 231 c 128,-1,19
 582 213 582 213 563 197.5 c 128,-1,20
 544 182 544 182 531.5 171.5 c 128,-1,21
 519 161 519 161 511 154 c 128,-1,22
 503 147 503 147 502 146 c 1,23,24
 492 148 492 148 477.5 159.5 c 128,-1,25
 463 171 463 171 460 184 c 1,26,27
 475 202 475 202 596 326 c 128,-1,28
 717 450 717 450 770 496 c 1,29,30
 746 528 746 528 700 604.5 c 128,-1,31
 654 681 654 681 620.5 739.5 c 128,-1,32
 587 798 587 798 582 808 c 1,0,1
EndSplineSet
EndChar
StartChar: Euro
Encoding: 8364 8364 221
Width: 1226
UnlinkRmOvrlpSave: 1
Flags: W
LayerCount: 2
Fore
SplineSet
902 1248 m 0,0,1
 807 1248 807 1248 721 1195 c 128,-1,2
 635 1142 635 1142 570.5 1050 c 128,-1,3
 506 958 506 958 468 824 c 128,-1,4
 430 690 430 690 430 536 c 0,5,6
 430 461 430 461 446.5 385 c 128,-1,7
 463 309 463 309 496.5 237 c 128,-1,8
 530 165 530 165 593 119.5 c 128,-1,9
 656 74 656 74 738 74 c 0,10,11
 880 74 880 74 986 162 c 0,12,13
 1027 196 1027 196 1069 256 c 128,-1,14
 1111 316 1111 316 1130.5 354 c 128,-1,15
 1150 392 1150 392 1156 408 c 1,16,17
 1197 408 1197 408 1218 384 c 1,18,19
 1213 359 1213 359 1156.5 224.5 c 128,-1,20
 1100 90 1100 90 1082 80 c 0,21,22
 995 32 995 32 901 9 c 128,-1,23
 807 -14 807 -14 682 -14 c 0,24,25
 552 -14 552 -14 446 36.5 c 128,-1,26
 340 87 340 87 275.5 169 c 128,-1,27
 211 251 211 251 176.5 350 c 128,-1,28
 142 449 142 449 142 552 c 0,29,30
 142 673 142 673 175.5 783 c 128,-1,31
 209 893 209 893 266 977.5 c 128,-1,32
 323 1062 323 1062 398 1130.5 c 128,-1,33
 473 1199 473 1199 558 1243 c 128,-1,34
 643 1287 643 1287 731 1310.5 c 128,-1,35
 819 1334 819 1334 902 1334 c 0,36,37
 1036 1334 1036 1334 1292 1276 c 1,38,39
 1292 1260 1292 1260 1280.5 1133 c 128,-1,40
 1269 1006 1269 1006 1266 988 c 0,41,42
 1264 978 1264 978 1251 969 c 128,-1,43
 1238 960 1238 960 1222 960 c 0,44,45
 1204 960 1204 960 1198 968 c 1,46,47
 1197 995 1197 995 1189 1027 c 128,-1,48
 1181 1059 1181 1059 1159.5 1099.5 c 128,-1,49
 1138 1140 1138 1140 1107 1172 c 128,-1,50
 1076 1204 1076 1204 1022.5 1226 c 128,-1,51
 969 1248 969 1248 902 1248 c 0,0,1
83 702 m 2,52,53
 75 702 75 702 75 718 c 0,54,55
 75 730 75 730 83 755 c 128,-1,56
 91 780 91 780 101 788 c 1,57,-1
 776 788 l 2,58,59
 782 788 782 788 782 772 c 0,60,61
 782 760 782 760 776 737 c 128,-1,62
 770 714 770 714 758 702 c 1,63,-1
 83 702 l 2,52,53
52 500 m 2,64,65
 44 500 44 500 44 516 c 0,66,67
 44 528 44 528 52 553 c 128,-1,68
 60 578 60 578 70 586 c 1,69,-1
 746 586 l 2,70,71
 752 586 752 586 752 570 c 0,72,73
 752 558 752 558 746 535 c 128,-1,74
 740 512 740 512 728 500 c 1,75,-1
 52 500 l 2,64,65
EndSplineSet
EndChar
StartChar: arrowleft
Encoding: 8592 8592 222
Width: 1434
Flags: W
LayerCount: 2
Fore
SplineSet
404 638 m 2,0,-1
 330 568 l 1,1,-1
 1358 568 l 2,2,3
 1367 568 1367 568 1369.5 563 c 128,-1,4
 1372 558 1372 558 1372 542 c 0,5,6
 1372 524 1372 524 1354 478 c 128,-1,7
 1336 432 1336 432 1320 420 c 1,8,-1
 300 420 l 1,9,-1
 346 354 l 2,10,11
 373 314 373 314 403 275 c 128,-1,12
 433 236 433 236 443.5 221 c 128,-1,13
 454 206 454 206 454 198 c 0,14,15
 454 180 454 180 425 165.5 c 128,-1,16
 396 151 396 151 378 146 c 1,17,18
 376 150 376 150 343 183 c 128,-1,19
 310 216 310 216 225 292.5 c 128,-1,20
 140 369 140 369 34 454 c 1,21,22
 26 457 26 457 26 476 c 0,23,24
 26 510 26 510 52 536 c 1,25,26
 326 694 326 694 516 846 c 1,27,28
 528 844 528 844 550 829 c 128,-1,29
 572 814 572 814 572 798 c 0,30,31
 572 793 572 793 534.386106877 758.838514002 c 0,32,33
 470 700 470 700 404 638 c 2,0,-1
EndSplineSet
EndChar
StartChar: arrowup
Encoding: 8593 8593 223
Width: 668
Flags: W
LayerCount: 2
Fore
SplineSet
314 1154 m 1,0,-1
 238 1080 l 1,1,2
 145 995 145 995 107.5 963.5 c 128,-1,3
 70 932 70 932 60 932 c 0,4,5
 46 932 46 932 38 959.5 c 128,-1,6
 30 987 30 987 30 1004 c 1,7,8
 35 1007 35 1007 72 1043.5 c 128,-1,9
 109 1080 109 1080 200 1182.5 c 128,-1,10
 291 1285 291 1285 396 1416 c 1,11,12
 403 1428 403 1428 424 1428 c 0,13,14
 456 1428 456 1428 470 1412 c 1,15,16
 490 1358 490 1358 511.5 1307.5 c 128,-1,17
 533 1257 533 1257 552.5 1217.5 c 128,-1,18
 572 1178 572 1178 590.5 1143.5 c 128,-1,19
 609 1109 609 1109 625 1083.5 c 128,-1,20
 641 1058 641 1058 652.5 1040.5 c 128,-1,21
 664 1023 664 1023 672 1012 c 128,-1,22
 680 1001 680 1001 680 1000 c 0,23,24
 675 986 675 986 653.5 959 c 128,-1,25
 632 932 632 932 618 932 c 0,26,27
 606 932 606 932 528.631053999 1042.06132863 c 0,28,29
 512 1066 512 1066 502 1080 c 2,30,-1
 450 1152 l 1,31,-1
 210 -60 l 1,32,33
 206 -72 206 -72 184 -72 c 0,34,35
 169 -72 169 -72 141.5 -65 c 128,-1,36
 114 -58 114 -58 94 -51 c 2,37,-1
 74 -44 l 1,38,-1
 314 1154 l 1,0,-1
EndSplineSet
EndChar
StartChar: universal
Encoding: 8704 8704 226
Width: 1304
Flags: W
LayerCount: 2
Fore
SplineSet
356 8 m 2,0,-1
 146 1044 l 1,1,2
 137 1097 137 1097 118 1194 c 0,3,4
 112 1226 112 1226 74.5 1244 c 128,-1,5
 37 1262 37 1262 16 1262 c 0,6,7
 9 1262 9 1262 14 1294 c 1,8,9
 20 1325 20 1325 26 1334 c 1,10,11
 44 1333 44 1333 132 1325.5 c 128,-1,12
 220 1318 220 1318 268 1318 c 0,13,14
 306 1318 306 1318 354 1321 c 128,-1,15
 402 1324 402 1324 454 1328.5 c 128,-1,16
 506 1333 506 1333 528 1334 c 1,17,18
 534 1326 534 1326 527.5 1294 c 128,-1,19
 521 1262 521 1262 514 1262 c 0,20,21
 495 1262 495 1262 452.5 1246.5 c 128,-1,22
 410 1231 410 1231 396 1216 c 1,23,24
 388 1203 388 1203 386 1194 c 0,25,26
 384 1186 384 1186 386.5 1166.5 c 128,-1,27
 389 1147 389 1147 395.5 1108.5 c 128,-1,28
 402 1070 402 1070 404 1058 c 2,29,-1
 428 910 l 1,30,31
 434 902 434 902 440 902 c 0,32,33
 475 900 475 900 622 900 c 0,34,35
 744 900 744 900 810 902 c 0,36,37
 821 902 821 902 826 912 c 2,38,-1
 916 1064 l 1,39,40
 973 1150 973 1150 980 1188 c 1,41,42
 980 1199 980 1199 981 1203.5 c 128,-1,43
 982 1208 982 1208 978.5 1214.5 c 128,-1,44
 975 1221 975 1221 973.5 1223 c 128,-1,45
 972 1225 972 1225 967.5 1229 c 128,-1,46
 963 1233 963 1233 962 1234 c 0,47,48
 948 1248 948 1248 909 1257 c 128,-1,49
 870 1266 870 1266 852 1266 c 1,50,51
 846 1269 846 1269 851 1295.5 c 128,-1,52
 856 1322 856 1322 862 1334 c 1,53,54
 877 1333 877 1333 946.5 1327.5 c 128,-1,55
 1016 1322 1016 1322 1064 1322 c 0,56,57
 1102 1322 1102 1322 1143.5 1324 c 128,-1,58
 1185 1326 1185 1326 1234.5 1329.5 c 128,-1,59
 1284 1333 1284 1333 1314 1334 c 1,60,61
 1318 1326 1318 1326 1314 1304 c 0,62,63
 1308 1268 1308 1268 1304 1268 c 0,64,65
 1284 1268 1284 1268 1219 1238 c 128,-1,66
 1154 1208 1154 1208 1136 1184 c 1,67,-1
 1056 1058 l 1,68,-1
 512 154 l 2,69,70
 510 150 510 150 491.5 120 c 128,-1,71
 473 90 473 90 463 75 c 128,-1,72
 453 60 453 60 436 37 c 128,-1,73
 419 14 419 14 405 3 c 128,-1,74
 391 -8 391 -8 380 -8 c 0,75,76
 372 -8 372 -8 365 -2.5 c 128,-1,77
 358 3 358 3 356 8 c 2,0,-1
734 774 m 0,78,79
 680 780 680 780 600 780 c 0,80,81
 522 780 522 780 464 776 c 0,82,83
 462 776 462 776 460 773.5 c 128,-1,84
 458 771 458 771 457 768.5 c 2,85,-1
 456 766 l 1,86,-1
 522 410 l 1,87,-1
 736 766 l 1,88,89
 738 774 738 774 734 774 c 0,78,79
EndSplineSet
EndChar
StartChar: partialdiff
Encoding: 8706 8706 227
Width: 920
Flags: W
LayerCount: 2
Back
SplineSet
556 634 m 0,0,1
 504 634 504 634 462.5 573.5 c 0,2,3
 421 513 421 513 402 418 c 1,2,3
 377 302 377 302 387 233.5 c 0,4,5
 397 165 397 165 422.5 137.5 c 0,6,7
 448 110 448 110 490 110 c 0,4,5
 616 110 616 110 678 438 c 0,6,7
 715 634 715 634 556 634 c 0,0,1
692 1284 m 3,8,9
 758.465018438 1284 758.465018438 1284 809.902147813 1258.93204633 c 0,10,11
 861.339277187 1233.86409265 861.339277187 1233.86409265 893.228969375 1192.79132867 c 0,12,13
 925.118661563 1151.71856469 925.118661563 1151.71856469 945.541304063 1093.38999945 c 0,14,15
 965.963946562 1035.06143421 965.963946562 1035.06143421 973.870156875 974.522172423 c 0,16,17
 981.776367188 913.982910634 981.776367188 913.982910634 981.776367188 844 c 0,10,11
 981.776367188 669.607524938 981.776367188 669.607524938 940.732256874 514.87208749 c 0,12,13
 899.68814656 360.136650042 899.68814656 360.136650042 826.842236534 246.31541251 c 0,14,15
 753.996326508 132.494174979 753.996326508 132.494174979 647.386004433 66.2470874896 c 0,16,17
 540.775682357 0 540.775682357 0 416 0 c 0,12,13
 271 0 271 0 199 98 c 0,14,15
 127 196 127 196 164 388 c 0,14,15
 183 485 183 485 250.5 567 c 0,16,17
 318 649 318 649 413 694.5 c 0,18,19
 508 740 508 740 606 740 c 0,16,17
 640 740 640 740 667.5 735.5 c 0,18,19
 695 731 695 731 709 726.5 c 0,20,21
 723 722 723 722 724 722 c 0,18,19
 738 722 738 722 744 738 c 0,20,21
 753.639036315 766.917108944 753.639036315 766.917108944 761.668639251 822.158614132 c 0,22,23
 769.698242188 877.40011932 769.698242188 877.40011932 769.698242188 932 c 0,22,23
 769.698242188 1038.31079452 769.698242188 1038.31079452 740 1084 c 0,24,25
 692 1160 692 1160 564 1160 c 0,26,27
 542 1160 542 1160 520 1155 c 0,28,29
 498 1150 498 1150 473 1137 c 0,30,31
 448 1124 448 1124 435 1117 c 0,32,33
 422 1110 422 1110 393.5 1090.5 c 0,34,35
 365 1071 365 1071 360 1068 c 1,28,29
 352 1072 352 1072 353.5 1104 c 0,30,31
 355 1136 355 1136 372 1152 c 0,30,31
 429 1203 429 1203 520 1243.5 c 0,32,33
 611 1284 611 1284 692 1284 c 3,8,9
EndSplineSet
Fore
SplineSet
440 634 m 0,0,1
 388 634 388 634 346.5 573.5 c 128,-1,2
 305 513 305 513 286 418 c 1,3,4
 261 302 261 302 271 233.5 c 128,-1,5
 281 165 281 165 306.5 137.5 c 128,-1,6
 332 110 332 110 374 110 c 0,7,8
 500 110 500 110 562 438 c 0,9,10
 599 634 599 634 440 634 c 0,0,1
576 1284 m 3,11,12
 643 1284 643 1284 694.5 1259 c 128,-1,13
 746 1234 746 1234 778 1193 c 128,-1,14
 810 1152 810 1152 830 1093.5 c 128,-1,15
 850 1035 850 1035 858 974.5 c 128,-1,16
 866 914 866 914 866 844 c 0,17,18
 866 610 866 610 796.5 418.5 c 128,-1,19
 727 227 727 227 596.5 113.5 c 128,-1,20
 466 0 466 0 300 0 c 0,21,22
 155 0 155 0 83 98 c 128,-1,23
 11 196 11 196 48 388 c 0,24,25
 67 485 67 485 134.5 567 c 128,-1,26
 202 649 202 649 297 694.5 c 128,-1,27
 392 740 392 740 490 740 c 0,28,29
 524 740 524 740 551.5 735.5 c 128,-1,30
 579 731 579 731 593 726.5 c 128,-1,31
 607 722 607 722 608 722 c 0,32,33
 622 722 622 722 628 738 c 0,34,35
 654 812 654 812 654 932 c 0,36,37
 654 1038 654 1038 624 1084 c 0,38,39
 576 1160 576 1160 448 1160 c 0,40,41
 426 1160 426 1160 404 1155 c 128,-1,42
 382 1150 382 1150 357 1137 c 128,-1,43
 332 1124 332 1124 319 1117 c 128,-1,44
 306 1110 306 1110 277.5 1090.5 c 128,-1,45
 249 1071 249 1071 244 1068 c 1,46,47
 236 1072 236 1072 237.5 1104 c 128,-1,48
 239 1136 239 1136 256 1152 c 0,49,50
 313 1203 313 1203 404 1243.5 c 128,-1,51
 495 1284 495 1284 576 1284 c 3,11,12
EndSplineSet
EndChar
StartChar: notelement
Encoding: 8713 8713 231
Width: 880
Flags: W
LayerCount: 2
Fore
SplineSet
150 -16 m 1,0,1
 144 -20 144 -20 132 -20 c 0,2,3
 124 -20 124 -20 107 -10.5 c 128,-1,4
 90 -1 90 -1 78 20 c 1,5,-1
 72 34 l 1,6,-1
 130 116 l 1,7,8
 79 175 79 175 59.5 261 c 128,-1,9
 40 347 40 347 58 442 c 0,10,11
 90 610 90 610 215 735 c 128,-1,12
 340 860 340 860 488 860 c 2,13,-1
 664 860 l 1,14,-1
 740 968 l 1,15,16
 750 974 750 974 758 974 c 0,17,18
 787 974 787 974 810 940 c 1,19,20
 814 936 814 936 816.5 930.5 c 128,-1,21
 819 925 819 925 819.5 921.5 c 2,22,-1
 820 918 l 1,23,-1
 778 860 l 1,24,-1
 868 860 l 1,25,26
 869 858 869 858 870 854.5 c 128,-1,27
 871 851 871 851 873 839.5 c 128,-1,28
 875 828 875 828 872 818 c 1,29,30
 867 790 867 790 856.5 770.5 c 128,-1,31
 846 751 846 751 838 745.5 c 2,32,-1
 830 740 l 1,33,-1
 692 740 l 1,34,-1
 520 500 l 1,35,-1
 724 500 l 1,36,-1
 725 496.5 l 2,37,38
 726 493 726 493 726.5 487.5 c 128,-1,39
 727 482 727 482 728 475 c 128,-1,40
 729 468 729 468 728.5 459 c 128,-1,41
 728 450 728 450 726 440 c 0,42,43
 722 416 722 416 715 400.5 c 128,-1,44
 708 385 708 385 704 381.5 c 128,-1,45
 700 378 700 378 698 378 c 2,46,-1
 432 378 l 1,47,-1
 278 162 l 1,48,49
 318 142 318 142 364 142 c 2,50,-1
 714 142 l 1,51,52
 717 140 717 140 720.5 135.5 c 128,-1,53
 724 131 724 131 729.5 111 c 128,-1,54
 735 91 735 91 726 58 c 0,55,56
 724 50 724 50 719 41 c 128,-1,57
 714 32 714 32 710 27 c 2,58,-1
 706 22 l 1,59,-1
 344 22 l 2,60,61
 267 22 267 22 202 58 c 1,62,-1
 150 -16 l 1,0,1
406 500 m 1,63,-1
 576 740 l 1,64,-1
 466 740 l 2,65,66
 381 740 381 740 312 674.5 c 128,-1,67
 243 609 243 609 208 510 c 0,68,69
 205 500 205 500 216 500 c 2,70,-1
 406 500 l 1,63,-1
212 230 m 1,71,-1
 316 378 l 1,72,-1
 192 378 l 2,73,74
 182 378 182 378 182 370 c 0,75,76
 182 287 182 287 212 230 c 1,71,-1
EndSplineSet
EndChar
StartChar: minus
Encoding: 8722 8722 233
Width: 1060
Flags: W
LayerCount: 2
Fore
SplineSet
60 438 m 0,0,1
 94 566 94 566 112 566 c 2,2,-1
 962 566 l 2,3,4
 966 566 966 566 968 565.5 c 128,-1,5
 970 565 970 565 971.5 562 c 128,-1,6
 973 559 973 559 972 552 c 0,7,8
 952 473 952 473 932 430 c 0,9,10
 929 425 929 425 925 422 c 128,-1,11
 921 419 921 419 918.5 418.5 c 2,12,-1
 916 418 l 1,13,-1
 68 418 l 2,14,15
 67 418 67 418 65 418.5 c 128,-1,16
 63 419 63 419 60.5 424 c 128,-1,17
 58 429 58 429 60 438 c 0,0,1
EndSplineSet
EndChar
StartChar: proportional
Encoding: 8733 8733 236
Width: 1280
Flags: W
LayerCount: 2
Fore
SplineSet
1136 224 m 0,0,1
 1156 224 1156 224 1148 180 c 0,2,3
 1142 151 1142 151 1123.5 123.5 c 128,-1,4
 1105 96 1105 96 1088 84 c 1,5,6
 1030 84 1030 84 979 102 c 128,-1,7
 928 120 928 120 893 146.5 c 128,-1,8
 858 173 858 173 829 204 c 128,-1,9
 800 235 800 235 783 261.5 c 128,-1,10
 766 288 766 288 754 306 c 128,-1,11
 742 324 742 324 738 324 c 2,12,-1
 736 324 l 1,13,14
 681 268 681 268 638 230.5 c 128,-1,15
 595 193 595 193 537.5 153.5 c 128,-1,16
 480 114 480 114 418.5 94 c 128,-1,17
 357 74 357 74 292 74 c 0,18,19
 207 74 207 74 145.5 127.5 c 128,-1,20
 84 181 84 181 61 266 c 128,-1,21
 38 351 38 351 56 446 c 0,22,23
 88 610 88 610 221.5 731 c 128,-1,24
 355 852 355 852 506 852 c 0,25,26
 557 852 557 852 605 834.5 c 128,-1,27
 653 817 653 817 686.5 792.5 c 128,-1,28
 720 768 720 768 753.5 730.5 c 128,-1,29
 787 693 787 693 805.5 666 c 128,-1,30
 824 639 824 639 846 602 c 0,31,32
 848 599 848 599 851 598 c 128,-1,33
 854 597 854 597 856 600 c 0,34,35
 901 649 901 649 940 686 c 128,-1,36
 979 723 979 723 1033 765 c 128,-1,37
 1087 807 1087 807 1142.5 830.5 c 128,-1,38
 1198 854 1198 854 1250 854 c 0,39,40
 1260 854 1260 854 1264 817 c 128,-1,41
 1268 780 1268 780 1262 746 c 1,42,43
 1256 704 1256 704 1242 704 c 2,44,-1
 1210 704 l 2,45,46
 1175 704 1175 704 1130.5 681 c 128,-1,47
 1086 658 1086 658 1047 625.5 c 128,-1,48
 1008 593 1008 593 974.5 560 c 128,-1,49
 941 527 941 527 921 504 c 128,-1,50
 901 481 901 481 902 480 c 0,51,52
 906 472 906 472 919.5 441 c 128,-1,53
 933 410 933 410 944.5 386.5 c 128,-1,54
 956 363 956 363 977 330.5 c 128,-1,55
 998 298 998 298 1019 276.5 c 128,-1,56
 1040 255 1040 255 1071 239.5 c 128,-1,57
 1102 224 1102 224 1136 224 c 0,0,1
224 458 m 1,58,59
 204 357 204 357 250.5 288.5 c 128,-1,60
 297 220 297 220 374 220 c 0,61,62
 407 220 407 220 444.5 236.5 c 128,-1,63
 482 253 482 253 509 271 c 128,-1,64
 536 289 536 289 574.5 324.5 c 128,-1,65
 613 360 613 360 626.5 375 c 128,-1,66
 640 390 640 390 671.058765513 423.81044288 c 0,67,68
 679 432 679 432 682 436 c 0,69,70
 683 438 683 438 673 465.5 c 128,-1,71
 663 493 663 493 643 532.5 c 128,-1,72
 623 572 623 572 596.5 610.5 c 128,-1,73
 570 649 570 649 532 676.5 c 128,-1,74
 494 704 494 704 454 704 c 0,75,76
 379 704 379 704 311 632 c 128,-1,77
 243 560 243 560 224 458 c 1,58,59
EndSplineSet
EndChar
StartChar: greaterequal
Encoding: 8805 8805 240
Width: 912
Flags: W
LayerCount: 2
Fore
SplineSet
36 142 m 1,0,-1
 760 142 l 2,1,2
 776 142 776 142 776 106 c 0,3,4
 776 62 776 62 738 8 c 1,5,-1
 10 8 l 2,6,7
 -4 8 -4 8 -4 44 c 0,8,9
 -4 64 -4 64 8.5 93 c 128,-1,10
 21 122 21 122 36 142 c 1,0,-1
46 172 m 17,11,12
 39 181 39 181 30.5 214 c 128,-1,13
 22 247 22 247 22 276 c 0,14,15
 22 297 22 297 32 302 c 2,16,-1
 694 614 l 1,17,-1
 144 932 l 1,18,19
 144 959 144 959 161.5 1008.5 c 128,-1,20
 179 1058 179 1058 188 1058 c 0,21,22
 200 1058 200 1058 206 1054 c 2,23,-1
 846 692 l 2,24,25
 858 685 858 685 869 663 c 128,-1,26
 880 641 880 641 880 626 c 0,27,28
 880 592 880 592 853.5 563.5 c 128,-1,29
 827 535 827 535 800 522 c 0,30,31
 663 457 663 457 46 172 c 17,11,12
EndSplineSet
EndChar
StartChar: propersubset
Encoding: 8834 8834 241
Width: 874
Flags: W
LayerCount: 2
Fore
SplineSet
464 740 m 2,0,1
 373 740 373 740 292 655 c 128,-1,2
 211 570 211 570 186 440 c 0,3,4
 161 309 161 309 213.5 225.5 c 128,-1,5
 266 142 266 142 362 142 c 2,6,-1
 712 142 l 1,7,8
 715 140 715 140 718.5 135.5 c 128,-1,9
 722 131 722 131 727.5 111 c 128,-1,10
 733 91 733 91 724 58 c 0,11,12
 722 50 722 50 717 41 c 128,-1,13
 712 32 712 32 708 27 c 2,14,-1
 704 22 l 1,15,-1
 342 22 l 2,16,17
 240 22 240 22 166.5 80 c 128,-1,18
 93 138 93 138 63.5 234.5 c 128,-1,19
 34 331 34 331 56 442 c 0,20,21
 88 610 88 610 213 735 c 128,-1,22
 338 860 338 860 486 860 c 2,23,-1
 866 860 l 1,24,25
 867 858 867 858 868 854.5 c 128,-1,26
 869 851 869 851 871 839.5 c 128,-1,27
 873 828 873 828 870 818 c 1,28,29
 865 790 865 790 854.5 770.5 c 128,-1,30
 844 751 844 751 836 745.5 c 2,31,-1
 828 740 l 1,32,-1
 464 740 l 2,0,1
EndSplineSet
EndChar
StartChar: T_h
Encoding: 65575 -1 462
Width: 2050
VWidth: 0
Flags: W
LayerCount: 2
Fore
SplineSet
1278 1066 m 2,0,1
 1294 1145 1294 1145 1262 1185.5 c 128,-1,2
 1230 1226 1230 1226 1170 1226 c 2,3,-1
 860 1226 l 1,4,-1
 678 290 l 2,5,6
 676 280 676 280 671.5 255.5 c 128,-1,7
 667 231 667 231 665 221.5 c 128,-1,8
 663 212 663 212 660 193 c 128,-1,9
 657 174 657 174 656 165 c 128,-1,10
 655 156 655 156 654 142.5 c 128,-1,11
 653 129 653 129 653.5 119.5 c 128,-1,12
 654 110 654 110 656 102 c 0,13,14
 660 75 660 75 768 66 c 1,15,16
 772 56 772 56 767 28.5 c 128,-1,17
 762 1 762 1 754 -8 c 1,18,19
 632 6 632 6 492 6 c 0,20,21
 356 6 356 6 226 -8 c 1,22,23
 221 1 221 1 226 28.5 c 128,-1,24
 231 56 231 56 240 66 c 1,25,26
 352 75 352 75 366 102 c 0,27,28
 392 149 392 149 418 290 c 1,29,-1
 600 1226 l 1,30,-1
 426 1226 l 2,31,32
 357 1226 357 1226 284.5 1150 c 128,-1,33
 212 1074 212 1074 178 974 c 1,34,35
 173 964 173 964 158 964 c 0,36,37
 146 964 146 964 128.5 969 c 128,-1,38
 111 974 111 974 108 978 c 1,39,-1
 228 1346 l 1,40,41
 240 1352 240 1352 252 1352 c 0,42,43
 263 1352 263 1352 282.5 1342.5 c 128,-1,44
 302 1333 302 1333 340.5 1323.5 c 128,-1,45
 379 1314 379 1314 438 1314 c 2,46,-1
 728 1314 l 2,47,48
 879 1314 879 1314 969.5 1316 c 128,-1,49
 1060 1318 1060 1318 1186.5 1325.5 c 128,-1,50
 1313 1333 1313 1333 1412 1352 c 128,-1,51
 1511 1371 1511 1371 1590 1402 c 1,52,53
 1602 1395 1602 1395 1602 1364 c 0,54,55
 1602 1356 1602 1356 1570.5 1287 c 128,-1,56
 1539 1218 1539 1218 1536 1204 c 0,57,58
 1426 646 1426 646 1422 628 c 2,59,-1
 1406 548 l 1,60,61
 1437 617 1437 617 1497 698 c 128,-1,62
 1557 779 1557 779 1627 838.5 c 128,-1,63
 1697 898 1697 898 1744 898 c 0,64,65
 1825 898 1825 898 1856.5 856 c 128,-1,66
 1888 814 1888 814 1888 724 c 0,67,68
 1888 674 1888 674 1848 466 c 2,69,-1
 1810 264 l 1,70,71
 1802 232 1802 232 1802 198 c 0,72,73
 1802 182 1802 182 1809 169 c 128,-1,74
 1816 156 1816 156 1830 156 c 0,75,76
 1858 156 1858 156 1910.5 208 c 128,-1,77
 1963 260 1963 260 1972 278 c 1,78,79
 1981 278 1981 278 1990.5 257 c 128,-1,80
 2000 236 2000 236 2000 224 c 1,81,82
 1981 189 1981 189 1928 134 c 128,-1,83
 1875 79 1875 79 1803.5 31.5 c 128,-1,84
 1732 -16 1732 -16 1682 -16 c 0,85,86
 1628 -16 1628 -16 1592 19 c 128,-1,87
 1556 54 1556 54 1556 126 c 0,88,89
 1556 174 1556 174 1574 246 c 1,90,-1
 1620 484 l 1,91,92
 1625 504 1625 504 1634.5 563 c 128,-1,93
 1644 622 1644 622 1644 636 c 0,94,95
 1644 653 1644 653 1635.5 665.5 c 128,-1,96
 1627 678 1627 678 1612 678 c 0,97,98
 1583 678 1583 678 1530 608.5 c 128,-1,99
 1477 539 1477 539 1422.5 420.5 c 128,-1,100
 1368 302 1368 302 1342 182 c 2,101,-1
 1302 0 l 1,102,103
 1262 -12 1262 -12 1190 -12 c 0,104,105
 1120 -12 1120 -12 1072 0 c 1,106,-1
 1278 1066 l 2,0,1
EndSplineSet
Ligature2: "'liga' Standard Ligatures lookup 0-1" T h
LCarets2: 1 0 
EndChar
StartChar: acutecomb.cap
Encoding: 65537 -1 260
Width: 450
GlyphClass: 4
Flags: W
LayerCount: 2
Fore
SplineSet
332 1462 m 1,0,1
 314 1476 314 1476 314 1488 c 1,2,3
 327 1508 327 1508 399 1579 c 128,-1,4
 471 1650 471 1650 526 1682 c 0,5,6
 552 1698 552 1698 618 1698 c 0,7,8
 660 1698 660 1698 694.5 1682.5 c 128,-1,9
 729 1667 729 1667 729 1634 c 0,10,11
 729 1598 729 1598 632.5 1555.5 c 128,-1,12
 536 1513 536 1513 448 1489.5 c 128,-1,13
 360 1466 360 1466 332 1462 c 1,0,1
EndSplineSet
EndChar
StartChar: f_b
Encoding: 65567 -1 454
Width: 1578
VWidth: 0
Flags: W
LayerCount: 2
Fore
SplineSet
1028 672 m 1,0,1
 1075 745 1075 745 1174 821.5 c 128,-1,2
 1273 898 1273 898 1340 898 c 0,3,4
 1425 898 1425 898 1473.5 840 c 128,-1,5
 1522 782 1522 782 1522 674 c 0,6,7
 1522 539 1522 539 1464.5 409 c 128,-1,8
 1407 279 1407 279 1321.5 189 c 128,-1,9
 1236 99 1236 99 1136 43.5 c 128,-1,10
 1036 -12 1036 -12 950 -12 c 0,11,12
 853 -12 853 -12 785.5 50.5 c 128,-1,13
 718 113 718 113 718 214 c 0,14,15
 718 268 718 268 730 324 c 1,16,-1
 886 1120 l 1,17,-1
 892 1144 l 1,18,19
 867 1206 867 1206 815.5 1242 c 128,-1,20
 764 1278 764 1278 708 1278 c 1,21,22
 630 1280 630 1280 567 1169.5 c 128,-1,23
 504 1059 504 1059 462 848 c 1,24,-1
 662 848 l 2,25,26
 672 848 672 848 672 824 c 0,27,28
 672 791 672 791 650 756 c 1,29,-1
 444 756 l 1,30,31
 382 368 382 368 334 116 c 0,32,33
 311 -2 311 -2 259.5 -107.5 c 128,-1,34
 208 -213 208 -213 145 -283.5 c 128,-1,35
 82 -354 82 -354 13 -395 c 128,-1,36
 -56 -436 -56 -436 -116 -436 c 0,37,38
 -163 -436 -163 -436 -204 -425 c 128,-1,39
 -245 -414 -245 -414 -264 -400 c 1,40,41
 -282 -371 -282 -371 -282 -334 c 0,42,43
 -282 -295 -282 -295 -260.5 -265.5 c 128,-1,44
 -239 -236 -239 -236 -206 -236 c 0,45,46
 -157 -236 -157 -236 -122 -284 c 0,47,48
 -121 -285 -121 -285 -116 -292.5 c 128,-1,49
 -111 -300 -111 -300 -109.5 -302 c 128,-1,50
 -108 -304 -108 -304 -103 -311 c 128,-1,51
 -98 -318 -98 -318 -95.5 -320 c 128,-1,52
 -93 -322 -93 -322 -88 -327 c 128,-1,53
 -83 -332 -83 -332 -79 -334 c 128,-1,54
 -75 -336 -75 -336 -70 -339 c 128,-1,55
 -65 -342 -65 -342 -59.5 -343 c 128,-1,56
 -54 -344 -54 -344 -48 -344 c 0,57,58
 -3 -344 -3 -344 19 -280.5 c 128,-1,59
 41 -217 41 -217 75.6559500425 -31.1766874823 c 0,60,61
 92 57 92 57 102 108 c 1,62,-1
 214 756 l 1,63,-1
 84 756 l 2,64,65
 80 756 80 756 80 762 c 0,66,67
 80 780 80 780 112.5 814 c 128,-1,68
 145 848 145 848 176 848 c 2,69,-1
 230 848 l 1,70,71
 261 1007 261 1007 344 1126.5 c 128,-1,72
 427 1246 427 1246 535.5 1306 c 128,-1,73
 644 1366 644 1366 762 1366 c 0,74,75
 841 1366 841 1366 906 1338 c 1,76,77
 1119 1373 1119 1373 1190 1402 c 1,78,79
 1202 1395 1202 1395 1202 1364 c 0,80,81
 1202 1357 1202 1357 1172 1293.5 c 128,-1,82
 1142 1230 1142 1230 1136 1204 c 2,83,-1
 1028 672 l 1,0,1
1208 722 m 0,84,85
 1143 722 1143 722 1067 596.5 c 128,-1,86
 991 471 991 471 964 334 c 0,87,88
 952 273 952 273 950.5 217.5 c 128,-1,89
 949 162 949 162 964.5 120 c 128,-1,90
 980 78 980 78 1014 78 c 0,91,92
 1074 78 1074 78 1134 170 c 128,-1,93
 1194 262 1194 262 1229 384.5 c 128,-1,94
 1264 507 1264 507 1264 604 c 0,95,96
 1264 722 1264 722 1208 722 c 0,84,85
EndSplineSet
Ligature2: "'liga' Standard Ligatures lookup 0-1" f b
LCarets2: 1 0 
EndChar
StartChar: f_f_b
Encoding: 65568 -1 455
Width: 2138
VWidth: 0
Flags: W
LayerCount: 2
Fore
SplineSet
1588 672 m 1,0,1
 1635 745 1635 745 1734 821.5 c 128,-1,2
 1833 898 1833 898 1900 898 c 0,3,4
 1985 898 1985 898 2033.5 840 c 128,-1,5
 2082 782 2082 782 2082 674 c 0,6,7
 2082 539 2082 539 2024.5 409 c 128,-1,8
 1967 279 1967 279 1881.5 189 c 128,-1,9
 1796 99 1796 99 1696 43.5 c 128,-1,10
 1596 -12 1596 -12 1510 -12 c 0,11,12
 1413 -12 1413 -12 1345.5 50.5 c 128,-1,13
 1278 113 1278 113 1278 214 c 0,14,15
 1278 268 1278 268 1290 324 c 1,16,-1
 1446 1120 l 1,17,-1
 1452 1144 l 1,18,19
 1427 1206 1427 1206 1375.5 1242 c 128,-1,20
 1324 1278 1324 1278 1268 1278 c 1,21,22
 1190 1280 1190 1280 1127 1169.5 c 128,-1,23
 1064 1059 1064 1059 1022 848 c 1,24,-1
 1222 848 l 2,25,26
 1232 848 1232 848 1232 824 c 0,27,28
 1232 791 1232 791 1210 756 c 1,29,-1
 1004 756 l 1,30,31
 942 368 942 368 894 116 c 0,32,33
 871 -2 871 -2 819.5 -107.5 c 128,-1,34
 768 -213 768 -213 705 -283.5 c 128,-1,35
 642 -354 642 -354 573 -395 c 128,-1,36
 504 -436 504 -436 444 -436 c 0,37,38
 397 -436 397 -436 356 -425 c 128,-1,39
 315 -414 315 -414 296 -400 c 1,40,41
 278 -371 278 -371 278 -334 c 0,42,43
 278 -295 278 -295 299.5 -265.5 c 128,-1,44
 321 -236 321 -236 354 -236 c 0,45,46
 403 -236 403 -236 438 -284 c 0,47,48
 439 -285 439 -285 444 -292.5 c 128,-1,49
 449 -300 449 -300 450.5 -302 c 128,-1,50
 452 -304 452 -304 457 -311 c 128,-1,51
 462 -318 462 -318 464.5 -320 c 128,-1,52
 467 -322 467 -322 472 -327 c 128,-1,53
 477 -332 477 -332 481 -334 c 128,-1,54
 485 -336 485 -336 490 -339 c 128,-1,55
 495 -342 495 -342 500.5 -343 c 128,-1,56
 506 -344 506 -344 512 -344 c 0,57,58
 557 -344 557 -344 579 -280.5 c 128,-1,59
 601 -217 601 -217 635.655950043 -31.1766874823 c 0,60,61
 652 57 652 57 662 108 c 1,62,-1
 774 756 l 1,63,-1
 444 756 l 1,64,65
 382 368 382 368 334 116 c 0,66,67
 311 -2 311 -2 259.5 -107.5 c 128,-1,68
 208 -213 208 -213 145 -283.5 c 128,-1,69
 82 -354 82 -354 13 -395 c 128,-1,70
 -56 -436 -56 -436 -116 -436 c 0,71,72
 -163 -436 -163 -436 -204 -425 c 128,-1,73
 -245 -414 -245 -414 -264 -400 c 1,74,75
 -282 -371 -282 -371 -282 -334 c 0,76,77
 -282 -295 -282 -295 -260.5 -265.5 c 128,-1,78
 -239 -236 -239 -236 -206 -236 c 0,79,80
 -157 -236 -157 -236 -122 -284 c 0,81,82
 -121 -285 -121 -285 -116 -292.5 c 128,-1,83
 -111 -300 -111 -300 -109.5 -302 c 128,-1,84
 -108 -304 -108 -304 -103 -311 c 128,-1,85
 -98 -318 -98 -318 -95.5 -320 c 128,-1,86
 -93 -322 -93 -322 -88 -327 c 128,-1,87
 -83 -332 -83 -332 -79 -334 c 128,-1,88
 -75 -336 -75 -336 -70 -339 c 128,-1,89
 -65 -342 -65 -342 -59.5 -343 c 128,-1,90
 -54 -344 -54 -344 -48 -344 c 0,91,92
 -3 -344 -3 -344 19 -280.5 c 128,-1,93
 41 -217 41 -217 75.6559500425 -31.1766874823 c 0,94,95
 92 57 92 57 102 108 c 1,96,-1
 214 756 l 1,97,-1
 84 756 l 2,98,99
 80 756 80 756 80 762 c 0,100,101
 80 780 80 780 112.5 814 c 128,-1,102
 145 848 145 848 176 848 c 2,103,-1
 230 848 l 1,104,105
 261 1007 261 1007 344 1126.5 c 128,-1,106
 427 1246 427 1246 535.5 1306 c 128,-1,107
 644 1366 644 1366 762 1366 c 0,108,109
 848 1366 848 1366 921 1330.5 c 128,-1,110
 994 1295 994 1295 1016 1250 c 1,111,112
 1156 1366 1156 1366 1322 1366 c 0,113,114
 1401 1366 1401 1366 1466 1338 c 1,115,116
 1679 1373 1679 1373 1750 1402 c 1,117,118
 1762 1395 1762 1395 1762 1364 c 0,119,120
 1762 1357 1762 1357 1732 1293.5 c 128,-1,121
 1702 1230 1702 1230 1696 1204 c 2,122,-1
 1588 672 l 1,0,1
1768 722 m 0,123,124
 1703 722 1703 722 1627 596.5 c 128,-1,125
 1551 471 1551 471 1524 334 c 0,126,127
 1512 273 1512 273 1510.5 217.5 c 128,-1,128
 1509 162 1509 162 1524.5 120 c 128,-1,129
 1540 78 1540 78 1574 78 c 0,130,131
 1634 78 1634 78 1694 170 c 128,-1,132
 1754 262 1754 262 1789 384.5 c 128,-1,133
 1824 507 1824 507 1824 604 c 0,134,135
 1824 722 1824 722 1768 722 c 0,123,124
902 1122 m 1,136,137
 827 1275 827 1275 708 1278 c 0,138,139
 630 1280 630 1280 567 1169.5 c 128,-1,140
 504 1059 504 1059 462 848 c 1,141,-1
 790 848 l 1,142,143
 819 1000 819 1000 902 1122 c 1,136,137
EndSplineSet
Ligature2: "'liga' Standard Ligatures lookup 0-1" f f b
LCarets2: 2 0 0 
EndChar
StartChar: f_f_h
Encoding: 65572 -1 459
Width: 2210
VWidth: 0
Flags: W
LayerCount: 2
Fore
SplineSet
1696 1204 m 0,0,1
 1586 646 1586 646 1582 628 c 2,2,3
 1566 548 l 1,4,5
 1597 617 1597 617 1657 698 c 128,-1,6
 1717 779 1717 779 1787 838.5 c 128,-1,7
 1857 898 1857 898 1904 898 c 0,8,9
 1985 898 1985 898 2016.5 856 c 128,-1,10
 2048 814 2048 814 2048 724 c 0,11,12
 2048 674 2048 674 2008 466 c 2,13,-1
 1970 264 l 1,14,15
 1962 232 1962 232 1962 198 c 0,16,17
 1962 182 1962 182 1969 169 c 128,-1,18
 1976 156 1976 156 1990 156 c 0,19,20
 2018 156 2018 156 2070.5 208 c 128,-1,21
 2123 260 2123 260 2132 278 c 1,22,23
 2141 278 2141 278 2150.5 257 c 128,-1,24
 2160 236 2160 236 2160 224 c 1,25,26
 2141 189 2141 189 2088 134 c 128,-1,27
 2035 79 2035 79 1963.5 31.5 c 128,-1,28
 1892 -16 1892 -16 1842 -16 c 0,29,30
 1788 -16 1788 -16 1752 19 c 128,-1,31
 1716 54 1716 54 1716 126 c 0,32,33
 1716 174 1716 174 1734 246 c 1,34,-1
 1780 484 l 1,35,36
 1785 504 1785 504 1794.5 563 c 128,-1,37
 1804 622 1804 622 1804 636 c 0,38,39
 1804 653 1804 653 1795.5 665.5 c 128,-1,40
 1787 678 1787 678 1772 678 c 0,41,42
 1743 678 1743 678 1690 608.5 c 128,-1,43
 1637 539 1637 539 1582.5 420.5 c 128,-1,44
 1528 302 1528 302 1502 182 c 2,45,-1
 1462 0 l 1,46,47
 1422 -12 1422 -12 1350 -12 c 0,48,49
 1280 -12 1280 -12 1232 0 c 1,50,51
 1429 1017 1429 1017 1446 1120 c 1,52,-1
 1452 1144 l 1,53,54
 1427 1206 1427 1206 1375.5 1242 c 128,-1,55
 1324 1278 1324 1278 1268 1278 c 1,56,57
 1190 1280 1190 1280 1127 1169.5 c 128,-1,58
 1064 1059 1064 1059 1022 848 c 1,59,-1
 1222 848 l 2,60,61
 1232 848 1232 848 1232 824 c 0,62,63
 1232 791 1232 791 1210 756 c 1,64,-1
 1004 756 l 1,65,66
 942 368 942 368 894 116 c 0,67,68
 871 -2 871 -2 819.5 -107.5 c 128,-1,69
 768 -213 768 -213 705 -283.5 c 128,-1,70
 642 -354 642 -354 573 -395 c 128,-1,71
 504 -436 504 -436 444 -436 c 0,72,73
 397 -436 397 -436 356 -425 c 128,-1,74
 315 -414 315 -414 296 -400 c 1,75,76
 278 -371 278 -371 278 -334 c 0,77,78
 278 -295 278 -295 299.5 -265.5 c 128,-1,79
 321 -236 321 -236 354 -236 c 0,80,81
 403 -236 403 -236 438 -284 c 0,82,83
 439 -285 439 -285 444 -292.5 c 128,-1,84
 449 -300 449 -300 450.5 -302 c 128,-1,85
 452 -304 452 -304 457 -311 c 128,-1,86
 462 -318 462 -318 464.5 -320 c 128,-1,87
 467 -322 467 -322 472 -327 c 128,-1,88
 477 -332 477 -332 481 -334 c 128,-1,89
 485 -336 485 -336 490 -339 c 128,-1,90
 495 -342 495 -342 500.5 -343 c 128,-1,91
 506 -344 506 -344 512 -344 c 0,92,93
 557 -344 557 -344 579 -280.5 c 128,-1,94
 601 -217 601 -217 635.655950043 -31.1766874823 c 0,95,96
 652 57 652 57 662 108 c 1,97,-1
 774 756 l 1,98,-1
 444 756 l 1,99,100
 382 368 382 368 334 116 c 0,101,102
 311 -2 311 -2 259.5 -107.5 c 128,-1,103
 208 -213 208 -213 145 -283.5 c 128,-1,104
 82 -354 82 -354 13 -395 c 128,-1,105
 -56 -436 -56 -436 -116 -436 c 0,106,107
 -163 -436 -163 -436 -204 -425 c 128,-1,108
 -245 -414 -245 -414 -264 -400 c 1,109,110
 -282 -371 -282 -371 -282 -334 c 0,111,112
 -282 -295 -282 -295 -260.5 -265.5 c 128,-1,113
 -239 -236 -239 -236 -206 -236 c 0,114,115
 -157 -236 -157 -236 -122 -284 c 0,116,117
 -121 -285 -121 -285 -116 -292.5 c 128,-1,118
 -111 -300 -111 -300 -109.5 -302 c 128,-1,119
 -108 -304 -108 -304 -103 -311 c 128,-1,120
 -98 -318 -98 -318 -95.5 -320 c 128,-1,121
 -93 -322 -93 -322 -88 -327 c 128,-1,122
 -83 -332 -83 -332 -79 -334 c 128,-1,123
 -75 -336 -75 -336 -70 -339 c 128,-1,124
 -65 -342 -65 -342 -59.5 -343 c 128,-1,125
 -54 -344 -54 -344 -48 -344 c 0,126,127
 -3 -344 -3 -344 19 -280.5 c 128,-1,128
 41 -217 41 -217 75.6559500425 -31.1766874823 c 0,129,130
 92 57 92 57 102 108 c 1,131,-1
 214 756 l 1,132,-1
 84 756 l 2,133,134
 80 756 80 756 80 762 c 0,135,136
 80 780 80 780 112.5 814 c 128,-1,137
 145 848 145 848 176 848 c 2,138,-1
 230 848 l 1,139,140
 261 1007 261 1007 344 1126.5 c 128,-1,141
 427 1246 427 1246 535.5 1306 c 128,-1,142
 644 1366 644 1366 762 1366 c 0,143,144
 848 1366 848 1366 921 1330.5 c 128,-1,145
 994 1295 994 1295 1016 1250 c 1,146,147
 1156 1366 1156 1366 1322 1366 c 0,148,149
 1401 1366 1401 1366 1466 1338 c 1,150,151
 1674 1373 1674 1373 1750 1402 c 1,152,153
 1762 1395 1762 1395 1762 1364 c 0,154,155
 1762 1356 1762 1356 1730.5 1287 c 128,-1,156
 1699 1218 1699 1218 1696 1204 c 0,0,1
902 1122 m 1,157,158
 827 1275 827 1275 708 1278 c 0,159,160
 630 1280 630 1280 567 1169.5 c 128,-1,161
 504 1059 504 1059 462 848 c 1,162,-1
 790 848 l 1,163,164
 819 1000 819 1000 902 1122 c 1,157,158
EndSplineSet
Ligature2: "'liga' Standard Ligatures lookup 0-1" f f h
LCarets2: 2 0 0 
EndChar
StartChar: f_f_i
Encoding: 65564 -1 451
Width: 1716
VWidth: 0
Flags: W
LayerCount: 2
Fore
SplineSet
1516 836 m 0,0,1
 1523 836 1523 836 1543.5 815 c 128,-1,2
 1564 794 1564 794 1564 782 c 0,3,4
 1564 748 1564 748 1549 662.5 c 128,-1,5
 1534 577 1534 577 1505 436.5 c 128,-1,6
 1476 296 1476 296 1470 264 c 1,7,8
 1462 232 1462 232 1462 198 c 0,9,10
 1462 182 1462 182 1469 169 c 128,-1,11
 1476 156 1476 156 1490 156 c 0,12,13
 1518 156 1518 156 1570.5 208 c 128,-1,14
 1623 260 1623 260 1632 278 c 1,15,16
 1641 278 1641 278 1650.5 257 c 128,-1,17
 1660 236 1660 236 1660 224 c 1,18,19
 1641 189 1641 189 1588 134 c 128,-1,20
 1535 79 1535 79 1463.5 31.5 c 128,-1,21
 1392 -16 1392 -16 1342 -16 c 0,22,23
 1288 -16 1288 -16 1252 19 c 128,-1,24
 1216 54 1216 54 1216 126 c 0,25,26
 1216 174 1216 174 1234 246 c 1,27,-1
 1296 558 l 2,28,29
 1296 561 1296 561 1300.5 584 c 128,-1,30
 1305 607 1305 607 1305.5 618 c 128,-1,31
 1306 629 1306 629 1307 650.5 c 128,-1,32
 1308 672 1308 672 1303 684 c 128,-1,33
 1298 696 1298 696 1289 709.5 c 128,-1,34
 1280 723 1280 723 1262.5 729 c 128,-1,35
 1245 735 1245 735 1220 734 c 2,36,-1
 998 724 l 1,37,38
 942 368 942 368 894 116 c 0,39,40
 871 -2 871 -2 819.5 -107.5 c 128,-1,41
 768 -213 768 -213 705 -283.5 c 128,-1,42
 642 -354 642 -354 573 -395 c 128,-1,43
 504 -436 504 -436 444 -436 c 0,44,45
 397 -436 397 -436 356 -425 c 128,-1,46
 315 -414 315 -414 296 -400 c 1,47,48
 278 -371 278 -371 278 -334 c 0,49,50
 278 -295 278 -295 299.5 -265.5 c 128,-1,51
 321 -236 321 -236 354 -236 c 0,52,53
 403 -236 403 -236 438 -284 c 0,54,55
 439 -285 439 -285 444 -292.5 c 128,-1,56
 449 -300 449 -300 450.5 -302 c 128,-1,57
 452 -304 452 -304 457 -311 c 128,-1,58
 462 -318 462 -318 464.5 -320 c 128,-1,59
 467 -322 467 -322 472 -327 c 128,-1,60
 477 -332 477 -332 481 -334 c 128,-1,61
 485 -336 485 -336 490 -339 c 128,-1,62
 495 -342 495 -342 500.5 -343 c 128,-1,63
 506 -344 506 -344 512 -344 c 0,64,65
 557 -344 557 -344 579 -280.5 c 128,-1,66
 601 -217 601 -217 635.655950043 -31.1766874823 c 0,67,68
 652 57 652 57 662 108 c 1,69,-1
 768 724 l 1,70,-1
 438 724 l 1,71,72
 382 368 382 368 334 116 c 0,73,74
 311 -2 311 -2 259.5 -107.5 c 128,-1,75
 208 -213 208 -213 145 -283.5 c 128,-1,76
 82 -354 82 -354 13 -395 c 128,-1,77
 -56 -436 -56 -436 -116 -436 c 0,78,79
 -163 -436 -163 -436 -204 -425 c 128,-1,80
 -245 -414 -245 -414 -264 -400 c 1,81,82
 -282 -371 -282 -371 -282 -334 c 0,83,84
 -282 -295 -282 -295 -260.5 -265.5 c 128,-1,85
 -239 -236 -239 -236 -206 -236 c 0,86,87
 -157 -236 -157 -236 -122 -284 c 0,88,89
 -121 -285 -121 -285 -116 -292.5 c 128,-1,90
 -111 -300 -111 -300 -109.5 -302 c 128,-1,91
 -108 -304 -108 -304 -103 -311 c 128,-1,92
 -98 -318 -98 -318 -95.5 -320 c 128,-1,93
 -93 -322 -93 -322 -88 -327 c 128,-1,94
 -83 -332 -83 -332 -79 -334 c 128,-1,95
 -75 -336 -75 -336 -70 -339 c 128,-1,96
 -65 -342 -65 -342 -59.5 -343 c 128,-1,97
 -54 -344 -54 -344 -48 -344 c 0,98,99
 -3 -344 -3 -344 19 -280.5 c 128,-1,100
 41 -217 41 -217 75.6559500425 -31.1766874823 c 0,101,102
 92 57 92 57 102 108 c 1,103,-1
 208 724 l 1,104,-1
 78 724 l 2,105,106
 74 724 74 724 74 730 c 0,107,108
 74 748 74 748 106.5 782 c 128,-1,109
 139 816 139 816 170 816 c 2,110,-1
 224 816 l 1,111,112
 247 949 247 949 302 1055.5 c 128,-1,113
 357 1162 357 1162 430.5 1229 c 128,-1,114
 504 1296 504 1296 589 1331 c 128,-1,115
 674 1366 674 1366 762 1366 c 0,116,117
 848 1366 848 1366 919 1331.5 c 128,-1,118
 990 1297 990 1297 1014 1252 c 1,119,120
 1153 1366 1153 1366 1322 1366 c 0,121,122
 1380 1366 1380 1366 1438.5 1349 c 128,-1,123
 1497 1332 1497 1332 1524.5 1317.5 c 128,-1,124
 1552 1303 1552 1303 1570 1290 c 1,125,126
 1588 1261 1588 1261 1588 1224 c 0,127,128
 1588 1122 1588 1122 1530 1106 c 1,129,130
 1494 1095 1494 1095 1455.5 1111.5 c 128,-1,131
 1417 1128 1417 1128 1398 1154 c 0,132,133
 1384 1174 1384 1174 1371.5 1202 c 128,-1,134
 1359 1230 1359 1230 1352 1243.5 c 128,-1,135
 1345 1257 1345 1257 1324 1267.5 c 128,-1,136
 1303 1278 1303 1278 1268 1278 c 0,137,138
 1185 1278 1185 1278 1119.5 1156.5 c 128,-1,139
 1054 1035 1054 1035 1016 816 c 1,140,141
 1110 818 1110 818 1263.5 827 c 128,-1,142
 1417 836 1417 836 1516 836 c 0,0,1
784 816 m 1,143,144
 814 996 814 996 900 1124 c 1,145,146
 826 1275 826 1275 708 1278 c 0,147,148
 629 1280 629 1280 563.5 1161 c 128,-1,149
 498 1042 498 1042 456 816 c 1,150,-1
 784 816 l 1,143,144
EndSplineSet
Ligature2: "'liga' Standard Ligatures lookup 0-1" f f i
LCarets2: 2 0 0 
EndChar
StartChar: f_f_j
Encoding: 65574 -1 461
Width: 1648
VWidth: 0
Flags: W
LayerCount: 2
Fore
SplineSet
1228 200 m 1,0,-1
 1296 558 l 2,1,2
 1296 561 1296 561 1300.5 584 c 128,-1,3
 1305 607 1305 607 1305.5 618 c 128,-1,4
 1306 629 1306 629 1307 650.5 c 128,-1,5
 1308 672 1308 672 1303 684 c 128,-1,6
 1298 696 1298 696 1289 709.5 c 128,-1,7
 1280 723 1280 723 1262.5 729 c 128,-1,8
 1245 735 1245 735 1220 734 c 2,9,-1
 998 724 l 1,10,11
 942 368 942 368 894 116 c 0,12,13
 871 -2 871 -2 819.5 -107.5 c 128,-1,14
 768 -213 768 -213 705 -283.5 c 128,-1,15
 642 -354 642 -354 573 -395 c 128,-1,16
 504 -436 504 -436 444 -436 c 0,17,18
 397 -436 397 -436 356 -425 c 128,-1,19
 315 -414 315 -414 296 -400 c 1,20,21
 278 -371 278 -371 278 -334 c 0,22,23
 278 -295 278 -295 299.5 -265.5 c 128,-1,24
 321 -236 321 -236 354 -236 c 0,25,26
 403 -236 403 -236 438 -284 c 0,27,28
 439 -285 439 -285 444 -292.5 c 128,-1,29
 449 -300 449 -300 450.5 -302 c 128,-1,30
 452 -304 452 -304 457 -311 c 128,-1,31
 462 -318 462 -318 464.5 -320 c 128,-1,32
 467 -322 467 -322 472 -327 c 128,-1,33
 477 -332 477 -332 481 -334 c 128,-1,34
 485 -336 485 -336 490 -339 c 128,-1,35
 495 -342 495 -342 500.5 -343 c 128,-1,36
 506 -344 506 -344 512 -344 c 0,37,38
 557 -344 557 -344 579 -280.5 c 128,-1,39
 601 -217 601 -217 635.655950043 -31.1766874823 c 0,40,41
 652 57 652 57 662 108 c 1,42,-1
 768 724 l 1,43,-1
 438 724 l 1,44,45
 382 368 382 368 334 116 c 0,46,47
 311 -2 311 -2 259.5 -107.5 c 128,-1,48
 208 -213 208 -213 145 -283.5 c 128,-1,49
 82 -354 82 -354 13 -395 c 128,-1,50
 -56 -436 -56 -436 -116 -436 c 0,51,52
 -163 -436 -163 -436 -204 -425 c 128,-1,53
 -245 -414 -245 -414 -264 -400 c 1,54,55
 -282 -371 -282 -371 -282 -334 c 0,56,57
 -282 -295 -282 -295 -260.5 -265.5 c 128,-1,58
 -239 -236 -239 -236 -206 -236 c 0,59,60
 -157 -236 -157 -236 -122 -284 c 0,61,62
 -121 -285 -121 -285 -116 -292.5 c 128,-1,63
 -111 -300 -111 -300 -109.5 -302 c 128,-1,64
 -108 -304 -108 -304 -103 -311 c 128,-1,65
 -98 -318 -98 -318 -95.5 -320 c 128,-1,66
 -93 -322 -93 -322 -88 -327 c 128,-1,67
 -83 -332 -83 -332 -79 -334 c 128,-1,68
 -75 -336 -75 -336 -70 -339 c 128,-1,69
 -65 -342 -65 -342 -59.5 -343 c 128,-1,70
 -54 -344 -54 -344 -48 -344 c 0,71,72
 -3 -344 -3 -344 19 -280.5 c 128,-1,73
 41 -217 41 -217 75.6559500425 -31.1766874823 c 0,74,75
 92 57 92 57 102 108 c 1,76,-1
 208 724 l 1,77,-1
 78 724 l 2,78,79
 74 724 74 724 74 730 c 0,80,81
 74 748 74 748 106.5 782 c 128,-1,82
 139 816 139 816 170 816 c 2,83,-1
 224 816 l 1,84,85
 247 949 247 949 302 1055.5 c 128,-1,86
 357 1162 357 1162 430.5 1229 c 128,-1,87
 504 1296 504 1296 589 1331 c 128,-1,88
 674 1366 674 1366 762 1366 c 0,89,90
 848 1366 848 1366 919 1331.5 c 128,-1,91
 990 1297 990 1297 1014 1252 c 1,92,93
 1153 1366 1153 1366 1322 1366 c 0,94,95
 1380 1366 1380 1366 1438.5 1349 c 128,-1,96
 1497 1332 1497 1332 1524.5 1317.5 c 128,-1,97
 1552 1303 1552 1303 1570 1290 c 1,98,99
 1588 1261 1588 1261 1588 1224 c 0,100,101
 1588 1122 1588 1122 1530 1106 c 1,102,103
 1494 1095 1494 1095 1455.5 1111.5 c 128,-1,104
 1417 1128 1417 1128 1398 1154 c 0,105,106
 1384 1174 1384 1174 1371.5 1202 c 128,-1,107
 1359 1230 1359 1230 1352 1243.5 c 128,-1,108
 1345 1257 1345 1257 1324 1267.5 c 128,-1,109
 1303 1278 1303 1278 1268 1278 c 0,110,111
 1185 1278 1185 1278 1119.5 1156.5 c 128,-1,112
 1054 1035 1054 1035 1016 816 c 1,113,114
 1110 818 1110 818 1263.5 827 c 128,-1,115
 1417 836 1417 836 1516 836 c 0,116,117
 1524 836 1524 836 1546.5 815 c 128,-1,118
 1569 794 1569 794 1568 782 c 0,119,120
 1533 563 1533 563 1468 240 c 0,121,122
 1445 121 1445 121 1403 30 c 128,-1,123
 1361 -61 1361 -61 1294 -150 c 0,124,125
 1235 -228 1235 -228 1101.5 -325 c 128,-1,126
 968 -422 968 -422 918 -436 c 1,127,128
 911 -436 911 -436 905.5 -421.5 c 128,-1,129
 900 -407 900 -407 900 -392 c 1,130,131
 1053 -274 1053 -274 1118 -152.5 c 128,-1,132
 1183 -31 1183 -31 1228 200 c 1,0,-1
784 816 m 1,133,134
 814 996 814 996 900 1124 c 1,135,136
 826 1275 826 1275 708 1278 c 0,137,138
 629 1280 629 1280 563.5 1161 c 128,-1,139
 498 1042 498 1042 456 816 c 1,140,-1
 784 816 l 1,133,134
EndSplineSet
Ligature2: "'liga' Standard Ligatures lookup 0-1" f f j
LCarets2: 2 0 0 
EndChar
